{
.appVersion = "3108";
classes = (
{
automatic = 1;

glyphs = (
{
color = 6;
glyphname = A;
lastChange = "2022-02-18 13:14:15 +0000";
layers = (
{
anchors = (
{
name = bottom;
position = "{360, 60}";
},
{
name = ogonek;
position = "{704, 0}";
},
{
name = top;
position = "{360, 780}";
}
);
hints = (
{
horizontal = 1;
origin = "{0, 9}";
target = up;
type = BottomGhost;
},
{
horizontal = 1;
origin = "{1, 3}";
target = "{1, 2}";
type = Stem;
},
{
horizontal = 1;
origin = "{0, 7}";
target = "{0, 1}";
type = Stem;
}
);
layerId = "D6DAFCCC-80B4-447A-AB8D-F3640E986932";
paths = (
{
closed = 1;
nodes = (
"125 0 LINE",
"344 693 LINE",
"368 693 LINE",
"587 0 LINE",
"704 0 LINE",
"704 6 LINE",
"450 780 LINE",
"270 780 LINE",
"16 6 LINE",
"16 0 LINE"
);
},
{
closed = 1;
nodes = (
"531 227 LINE",
"500 321 LINE",
"212 321 LINE",
"181 227 LINE"
);
}
);
width = 720;
},
{
anchors = (
{
name = bottom;
position = "{375, 60}";
},
{
name = ogonek;
position = "{742, 0}";
},
{
name = top;
position = "{375, 780}";
}
);
layerId = "2C59C6D3-D4C2-4A05-8DF2-5125000072A2";
paths = (
{
closed = 1;
nodes = (
"166 0 LINE",
"357 650 LINE",
"381 650 LINE",
"570 0 LINE",
"742 0 LINE",
"742 6 LINE",
"506 780 LINE",
"243 780 LINE",
"8 6 LINE",
"8 0 LINE"
);
},
{
closed = 1;
nodes = (
"535 195 LINE",
"500 321 LINE",
"238 321 LINE",
"203 195 LINE"
);
}
);
width = 750;
}
);
leftKerningGroup = A;
rightKerningGroup = A;
unicode = 0041;
},
{
color = 6;
glyphname = AE;
lastChange = "2022-02-18 13:14:15 +0000";
layers = (
{
anchors = (
{
name = bottom;
position = "{480, 0}";
},
{
name = top;
position = "{544, 780}";
}
);
background = {
paths = (
{
closed = 1;
nodes = (
"125 0 LINE",
"344 693 LINE",
"368 693 LINE",
"587 0 LINE",
"704 0 LINE",
"704 2 LINE",
"450 780 LINE",
"270 780 LINE",
"16 2 LINE",
"16 0 LINE"
);
},
{
closed = 1;
nodes = (
"531 227 LINE",
"500 321 LINE",
"212 321 LINE",
"181 227 LINE"
);
}
);
};
hints = (
{
horizontal = 1;
origin = "{0, 9}";
target = "{2, 2}";
type = Stem;
},
{
horizontal = 1;
origin = "{1, 3}";
target = "{1, 2}";
type = Stem;
},
{
horizontal = 1;
origin = "{3, 3}";
target = "{3, 2}";
type = Stem;
},
{
horizontal = 1;
origin = "{0, 7}";
target = "{4, 3}";
type = Stem;
}
);
layerId = "D6DAFCCC-80B4-447A-AB8D-F3640E986932";
paths = (
{
closed = 1;
nodes = (
"125 0 LINE",
"344 693 LINE",
"368 693 LINE",
"587 0 LINE",
"704 0 LINE",
"704 2 LINE",
"450 780 LINE",
"270 780 LINE",
"16 6 LINE",
"16 0 LINE"
);
},
{
closed = 1;
nodes = (
"531 227 LINE",
"500 321 LINE",
"212 321 LINE",
"181 227 LINE"
);
},
{
closed = 1;
nodes = (
"948 0 LINE",
"948 94 LINE",
"615 94 LINE",
"587 0 LINE"
);
},
{
closed = 1;
nodes = (
"840 375 LINE",
"841 465 LINE",
"496 465 LINE",
"495 375 LINE"
);
},
{
closed = 1;
nodes = (
"817 686 LINE",
"817 780 LINE",
"300 780 LINE",
"410 686 LINE"
);
}
);
width = 960;
},
{
anchors = (
{
name = bottom;
position = "{480, 0}";
},
{
name = top;
position = "{560, 780}";
}
);
layerId = "2C59C6D3-D4C2-4A05-8DF2-5125000072A2";
paths = (
{
closed = 1;
nodes = (
"166 0 LINE",
"357 650 LINE",
"381 650 LINE",
"570 0 LINE",
"742 0 LINE",
"742 6 LINE",
"506 780 LINE",
"243 780 LINE",
"8 6 LINE",
"8 0 LINE"
);
},
{
closed = 1;
nodes = (
"535 195 LINE",
"500 321 LINE",
"238 321 LINE",
"203 195 LINE"
);
},
{
closed = 1;
nodes = (
"1008 0 LINE",
"1008 132 LINE",
"626 132 LINE",
"587 0 LINE"
);
},
{
closed = 1;
nodes = (
"900 354 LINE",
"901 476 LINE",
"496 476 LINE",
"495 354 LINE"
);
},
{
closed = 1;
nodes = (
"877 648 LINE",
"877 780 LINE",
"300 780 LINE",
"410 648 LINE"
);
}
);
width = 1020;
},
{
anchors = (
{
name = bottom;
position = "{475, 0}";
},
{
name = top;
position = "{475, 780}";
}
);
associatedMasterId = "D6DAFCCC-80B4-447A-AB8D-F3640E986932";
hints = (
{
horizontal = 1;
origin = "{0, 16}";
target = "{0, 6}";
type = Stem;
},
{
horizontal = 1;
origin = "{0, 1}";
target = "{1, 3}";
type = Stem;
},
{
horizontal = 1;
origin = "{0, 7}";
target = "{0, 10}";
type = Stem;
},
{
horizontal = 1;
origin = "{0, 14}";
target = "{0, 11}";
type = Stem;
}
);
layerId = "AC944549-D132-4DED-B615-04AC45C022C4";
name = "24 Aug 21, 13:13";
paths = (
{
closed = 1;
nodes = (
"128 0 LINE",
"187 227 LINE",
"454 227 LINE",
"515 0 LINE",
"920 0 LINE",
"920 94 LINE",
"607 94 LINE",
"529 374 LINE",
"780 374 LINE",
"780 466 LINE",
"503 466 LINE",
"442 686 LINE",
"840 686 LINE",
"840 780 LINE",
"229 780 LINE",
"16 4 LINE",
"16 0 LINE"
);
},
{
closed = 1;
nodes = (
"312 693 LINE",
"328 693 LINE",
"428 321 LINE",
"213 321 LINE"
);
}
);
width = 950;
}
);
leftKerningGroup = A;
rightKerningGroup = A;
unicode = 00C6;
},
{
color = 6;
glyphname = B;
lastChange = "2022-02-18 13:14:15 +0000";
layers = (
{
background = {
paths = (
{
closed = 1;
nodes = (
"374 0 LINE SMOOTH",
"569 0 OFFCURVE",
"660 92 OFFCURVE",
"660 228 CURVE SMOOTH",
"660 330 OFFCURVE",
"608 398 OFFCURVE",
"506 420 CURVE",
"506 434 LINE",
"584 458 OFFCURVE",
"622 519 OFFCURVE",
"622 591 CURVE SMOOTH",
"622 705 OFFCURVE",
"538 780 OFFCURVE",
"356 780 CURVE SMOOTH",
"90 780 LINE",
"90 0 LINE"
);
},
{
closed = 1;
nodes = (
"199 375 LINE",
"373 375 LINE SMOOTH",
"496 375 OFFCURVE",
"548 324 OFFCURVE",
"548 236 CURVE SMOOTH",
"548 145 OFFCURVE",
"496 94 OFFCURVE",
"373 94 CURVE SMOOTH",
"199 94 LINE"
);
},
{
closed = 1;
nodes = (
"199 686 LINE",
"358 686 LINE SMOOTH",
"462 686 OFFCURVE",
"512 651 OFFCURVE",
"512 574 CURVE SMOOTH",
"512 497 OFFCURVE",
"462 462 OFFCURVE",
"358 462 CURVE SMOOTH",
"199 462 LINE"
);
}
);
};
hints = (
{
horizontal = 1;
origin = "{0, 15}";
target = "{1, 8}";
type = Stem;
},
{
horizontal = 1;
origin = "{1, 0}";
target = "{2, 8}";
type = Stem;
},
{
horizontal = 1;
origin = "{0, 14}";
target = "{2, 0}";
type = Stem;
},
{
origin = "{0, 15}";
target = "{1, 8}";
type = Stem;
},
{
origin = "{1, 4}";
target = "{0, 3}";
type = Stem;
}
);
layerId = "D6DAFCCC-80B4-447A-AB8D-F3640E986932";
paths = (
{
closed = 1;
nodes = (
"374 0 LINE SMOOTH",
"569 0 OFFCURVE",
"660 92 OFFCURVE",
"660 228 CURVE SMOOTH",
"660 330 OFFCURVE",
"608 398 OFFCURVE",
"508 415 CURVE",
"508 439 LINE",
"586 458 OFFCURVE",
"624 519 OFFCURVE",
"624 591 CURVE SMOOTH",
"624 705 OFFCURVE",
"540 780 OFFCURVE",
"358 780 CURVE SMOOTH",
"90 780 LINE",
"90 0 LINE"
);
},
{
closed = 1;
nodes = (
"200 375 LINE",
"375 375 LINE SMOOTH",
"496 375 OFFCURVE",
"548 323 OFFCURVE",
"548 234 CURVE SMOOTH",
"548 142 OFFCURVE",
"496 90 OFFCURVE",
"373 90 CURVE SMOOTH",
"200 90 LINE"
);
},
{
closed = 1;
nodes = (
"200 690 LINE",
"360 690 LINE SMOOTH",
"464 690 OFFCURVE",
"514 654 OFFCURVE",
"514 576 CURVE SMOOTH",
"514 498 OFFCURVE",
"464 462 OFFCURVE",
"360 462 CURVE SMOOTH",
"200 462 LINE"
);
}
);
width = 700;
},
{
background = {
paths = (
{
closed = 1;
nodes = (
"412 0 LINE SMOOTH",
"618 0 OFFCURVE",
"702 91 OFFCURVE",
"702 228 CURVE SMOOTH",
"702 337 OFFCURVE",
"648 393 OFFCURVE",
"549 416 CURVE",
"549 434 LINE",
"625 457 OFFCURVE",
"662 507 OFFCURVE",
"662 584 CURVE SMOOTH",
"662 704 OFFCURVE",
"580 780 OFFCURVE",
"386 780 CURVE SMOOTH",
"76 780 LINE",
"76 0 LINE"
);
},
{
closed = 1;
nodes = (
"236 348 LINE",
"390 348 LINE SMOOTH",
"481 348 OFFCURVE",
"534 312 OFFCURVE",
"534 234 CURVE SMOOTH",
"534 163 OFFCURVE",
"491 120 OFFCURVE",
"390 120 CURVE SMOOTH",
"236 120 LINE"
);
},
{
closed = 1;
nodes = (
"236 660 LINE",
"374 660 LINE SMOOTH",
"456 660 OFFCURVE",
"498 629 OFFCURVE",
"498 563 CURVE SMOOTH",
"498 496 OFFCURVE",
"450 466 OFFCURVE",
"374 466 CURVE SMOOTH",
"236 466 LINE"
);
}
);
};
hints = (
{
horizontal = 1;
origin = "{0, 15}";
target = "{1, 8}";
type = Stem;
},
{
horizontal = 1;
origin = "{1, 0}";
target = "{2, 8}";
type = Stem;
},
{
horizontal = 1;
origin = "{0, 14}";
target = "{2, 0}";
type = Stem;
},
{
origin = "{0, 15}";
target = "{1, 8}";
type = Stem;
},
{
origin = "{1, 4}";
target = "{0, 3}";
type = Stem;
}
);
layerId = "2C59C6D3-D4C2-4A05-8DF2-5125000072A2";
paths = (
{
closed = 1;
nodes = (
"410 0 LINE SMOOTH",
"616 0 OFFCURVE",
"700 91 OFFCURVE",
"700 228 CURVE SMOOTH",
"700 337 OFFCURVE",
"646 390 OFFCURVE",
"545 413 CURVE",
"545 437 LINE",
"621 460 OFFCURVE",
"658 507 OFFCURVE",
"658 584 CURVE SMOOTH",
"658 704 OFFCURVE",
"576 780 OFFCURVE",
"382 780 CURVE SMOOTH",
"76 780 LINE",
"76 0 LINE"
);
},
{
closed = 1;
nodes = (
"236 348 LINE",
"388 348 LINE SMOOTH",
"479 348 OFFCURVE",
"532 312 OFFCURVE",
"532 234 CURVE SMOOTH",
"532 163 OFFCURVE",
"489 120 OFFCURVE",
"388 120 CURVE SMOOTH",
"236 120 LINE"
);
},
{
closed = 1;
nodes = (
"236 660 LINE",
"370 660 LINE SMOOTH",
"452 660 OFFCURVE",
"494 629 OFFCURVE",
"494 563 CURVE SMOOTH",
"494 496 OFFCURVE",
"446 466 OFFCURVE",
"370 466 CURVE SMOOTH",
"236 466 LINE"
);
}
);
width = 730;
},
{
associatedMasterId = "D6DAFCCC-80B4-447A-AB8D-F3640E986932";
background = {
paths = (
{
closed = 1;
nodes = (
"374 0 LINE SMOOTH",
"569 0 OFFCURVE",
"660 92 OFFCURVE",
"660 228 CURVE SMOOTH",
"660 330 OFFCURVE",
"608 398 OFFCURVE",
"506 420 CURVE",
"506 434 LINE",
"584 458 OFFCURVE",
"622 519 OFFCURVE",
"622 591 CURVE SMOOTH",
"622 705 OFFCURVE",
"538 780 OFFCURVE",
"356 780 CURVE SMOOTH",
"90 780 LINE",
"90 0 LINE"
);
},
{
closed = 1;
nodes = (
"199 375 LINE",
"373 375 LINE SMOOTH",
"496 375 OFFCURVE",
"548 324 OFFCURVE",
"548 236 CURVE SMOOTH",
"548 145 OFFCURVE",
"496 94 OFFCURVE",
"373 94 CURVE SMOOTH",
"199 94 LINE"
);
},
{
closed = 1;
nodes = (
"199 686 LINE",
"358 686 LINE SMOOTH",
"462 686 OFFCURVE",
"512 651 OFFCURVE",
"512 574 CURVE SMOOTH",
"512 497 OFFCURVE",
"462 462 OFFCURVE",
"358 462 CURVE SMOOTH",
"199 462 LINE"
);
}
);
};
hints = (
{
horizontal = 1;
origin = "{0, 15}";
target = "{1, 8}";
type = Stem;
},
{
horizontal = 1;
origin = "{1, 0}";
target = "{2, 8}";
type = Stem;
},
{
horizontal = 1;
origin = "{0, 14}";
target = "{2, 0}";
type = Stem;
},
{
origin = "{0, 15}";
target = "{1, 8}";
type = Stem;
},
{
origin = "{1, 4}";
target = "{0, 3}";
type = Stem;
}
);
layerId = "2D1F55BC-46CD-4245-B259-F74B9F658346";
name = "20 Aug 21, 10:41";
paths = (
{
closed = 1;
nodes = (
"374 0 LINE SMOOTH",
"569 0 OFFCURVE",
"660 92 OFFCURVE",
"660 228 CURVE SMOOTH",
"660 330 OFFCURVE",
"608 398 OFFCURVE",
"506 420 CURVE",
"506 434 LINE",
"584 458 OFFCURVE",
"622 519 OFFCURVE",
"622 591 CURVE SMOOTH",
"622 705 OFFCURVE",
"538 780 OFFCURVE",
"356 780 CURVE SMOOTH",
"90 780 LINE",
"90 0 LINE"
);
},
{
closed = 1;
nodes = (
"199 375 LINE",
"373 375 LINE SMOOTH",
"496 375 OFFCURVE",
"548 324 OFFCURVE",
"548 236 CURVE SMOOTH",
"548 145 OFFCURVE",
"496 94 OFFCURVE",
"373 94 CURVE SMOOTH",
"199 94 LINE"
);
},
{
closed = 1;
nodes = (
"199 686 LINE",
"358 686 LINE SMOOTH",
"462 686 OFFCURVE",
"512 651 OFFCURVE",
"512 574 CURVE SMOOTH",
"512 497 OFFCURVE",
"462 462 OFFCURVE",
"358 462 CURVE SMOOTH",
"199 462 LINE"
);
}
);
width = 700;
},
{
associatedMasterId = "2C59C6D3-D4C2-4A05-8DF2-5125000072A2";
background = {
paths = (
{
closed = 1;
nodes = (
"412 0 LINE SMOOTH",
"618 0 OFFCURVE",
"702 91 OFFCURVE",
"702 228 CURVE SMOOTH",
"702 337 OFFCURVE",
"648 393 OFFCURVE",
"549 416 CURVE",
"549 434 LINE",
"625 457 OFFCURVE",
"662 507 OFFCURVE",
"662 584 CURVE SMOOTH",
"662 704 OFFCURVE",
"580 780 OFFCURVE",
"386 780 CURVE SMOOTH",
"76 780 LINE",
"76 0 LINE"
);
},
{
closed = 1;
nodes = (
"236 348 LINE",
"390 348 LINE SMOOTH",
"481 348 OFFCURVE",
"534 312 OFFCURVE",
"534 234 CURVE SMOOTH",
"534 163 OFFCURVE",
"491 120 OFFCURVE",
"390 120 CURVE SMOOTH",
"236 120 LINE"
);
},
{
closed = 1;
nodes = (
"236 660 LINE",
"374 660 LINE SMOOTH",
"456 660 OFFCURVE",
"498 629 OFFCURVE",
"498 563 CURVE SMOOTH",
"498 496 OFFCURVE",
"450 466 OFFCURVE",
"374 466 CURVE SMOOTH",
"236 466 LINE"
);
}
);
};
layerId = "B2FE71B8-6307-42DC-A0F5-1078DEE8BE79";
name = "20 Aug 21, 15:27";
paths = (
{
closed = 1;
nodes = (
"412 0 LINE SMOOTH",
"618 0 OFFCURVE",
"702 91 OFFCURVE",
"702 228 CURVE SMOOTH",
"702 337 OFFCURVE",
"648 393 OFFCURVE",
"549 416 CURVE",
"549 434 LINE",
"625 457 OFFCURVE",
"662 507 OFFCURVE",
"662 584 CURVE SMOOTH",
"662 704 OFFCURVE",
"580 780 OFFCURVE",
"386 780 CURVE SMOOTH",
"76 780 LINE",
"76 0 LINE"
);
},
{
closed = 1;
nodes = (
"236 348 LINE",
"390 348 LINE SMOOTH",
"481 348 OFFCURVE",
"534 312 OFFCURVE",
"534 234 CURVE SMOOTH",
"534 163 OFFCURVE",
"491 120 OFFCURVE",
"390 120 CURVE SMOOTH",
"236 120 LINE"
);
},
{
closed = 1;
nodes = (
"236 660 LINE",
"374 660 LINE SMOOTH",
"456 660 OFFCURVE",
"498 629 OFFCURVE",
"498 563 CURVE SMOOTH",
"498 496 OFFCURVE",
"450 466 OFFCURVE",
"374 466 CURVE SMOOTH",
"236 466 LINE"
);
}
);
width = 730;
}
);
leftKerningGroup = B;
rightKerningGroup = B;
unicode = 0042;
},
{
color = 6;
glyphname = C;
lastChange = "2022-02-18 13:14:15 +0000";
layers = (
{
anchors = (
{
name = bottom;
position = "{385, 0}";
},
{
name = top;
position = "{385, 780}";
}
);
hints = (
{
horizontal = 1;
origin = "{0, 25}";
target = "{0, 6}";
type = Stem;
},
{
horizontal = 1;
origin = "{0, 19}";
target = "{0, 12}";
type = Stem;
},
{
origin = "{0, 22}";
target = "{0, 9}";
type = Stem;
},
{
origin = "{0, 15}";
target = "{0, 16}";
type = Stem;
},
{
horizontal = 1;
origin = "{0, 15}";
target = up;
type = BottomGhost;
},
{
horizontal = 1;
origin = "{0, 3}";
target = down;
type = TopGhost;
}
);
layerId = "D6DAFCCC-80B4-447A-AB8D-F3640E986932";
paths = (
{
closed = 1;
nodes = (
"571 -15 OFFCURVE",
"686 99 OFFCURVE",
"703 270 CURVE",
"590 270 LINE",
"579 159 OFFCURVE",
"506 75 OFFCURVE",
"381 75 CURVE SMOOTH",
"239 75 OFFCURVE",
"156 188 OFFCURVE",
"156 390 CURVE SMOOTH",
"156 590 OFFCURVE",
"237 705 OFFCURVE",
"382 705 CURVE SMOOTH",
"500 705 OFFCURVE",
"577 629 OFFCURVE",
"590 510 CURVE",
"703 510 LINE",
"686 681 OFFCURVE",
"570 795 OFFCURVE",
"384 795 CURVE SMOOTH",
"170 795 OFFCURVE",
"42 647 OFFCURVE",
"42 390 CURVE SMOOTH",
"42 134 OFFCURVE",
"169 -15 OFFCURVE",
"384 -15 CURVE SMOOTH"
);
}
);
width = 740;
},
{
anchors = (
{
name = bottom;
position = "{385, 0}";
},
{
name = top;
position = "{385, 780}";
}
);
layerId = "2C59C6D3-D4C2-4A05-8DF2-5125000072A2";
paths = (
{
closed = 1;
nodes = (
"592 -15 OFFCURVE",
"710 110 OFFCURVE",
"724 286 CURVE",
"557 286 LINE",
"547 181 OFFCURVE",
"486 111 OFFCURVE",
"386 111 CURVE SMOOTH",
"270 111 OFFCURVE",
"204 204 OFFCURVE",
"204 389 CURVE SMOOTH",
"204 568 OFFCURVE",
"266 669 OFFCURVE",
"387 669 CURVE SMOOTH",
"483 669 OFFCURVE",
"546 603 OFFCURVE",
"557 494 CURVE",
"724 494 LINE",
"710 670 OFFCURVE",
"591 795 OFFCURVE",
"386 795 CURVE SMOOTH",
"157 795 OFFCURVE",
"30 642 OFFCURVE",
"30 390 CURVE SMOOTH",
"30 135 OFFCURVE",
"160 -15 OFFCURVE",
"387 -15 CURVE SMOOTH"
);
}
);
width = 750;
}
);
leftKerningGroup = C;
rightKerningGroup = C;
unicode = 0043;
},
{
color = 6;
glyphname = D;
lastChange = "2022-02-18 13:14:15 +0000";
layers = (
{
anchors = (
{
name = bottom;
position = "{362, 0}";
},
{
name = center;
position = "{187, 420}";
},
{
name = top;
position = "{362, 780}";
}
);
hints = (
{
horizontal = 1;
origin = "{0, 8}";
target = "{1, 8}";
type = Stem;
},
{
horizontal = 1;
origin = "{0, 7}";
target = "{1, 0}";
type = Stem;
},
{
origin = "{0, 8}";
target = "{1, 8}";
type = Stem;
},
{
origin = "{1, 4}";
target = "{0, 3}";
type = Stem;
}
);
layerId = "D6DAFCCC-80B4-447A-AB8D-F3640E986932";
paths = (
{
closed = 1;
nodes = (
"345 0 LINE SMOOTH",
"614 0 OFFCURVE",
"728 143 OFFCURVE",
"728 390 CURVE SMOOTH",
"728 637 OFFCURVE",
"614 780 OFFCURVE",
"345 780 CURVE SMOOTH",
"90 780 LINE",
"90 0 LINE"
);
},
{
closed = 1;
nodes = (
"203 686 LINE",
"335 686 LINE SMOOTH",
"537 686 OFFCURVE",
"614 589 OFFCURVE",
"614 390 CURVE SMOOTH",
"614 191 OFFCURVE",
"537 94 OFFCURVE",
"335 94 CURVE SMOOTH",
"203 94 LINE"
);
}
);
width = 770;
},
{
anchors = (
{
name = bottom;
position = "{361, 0}";
},
{
name = center;
position = "{220, 420}";
},
{
name = top;
position = "{361, 780}";
}
);
layerId = "2C59C6D3-D4C2-4A05-8DF2-5125000072A2";
paths = (
{
closed = 1;
nodes = (
"354 0 LINE SMOOTH",
"631 0 OFFCURVE",
"750 143 OFFCURVE",
"750 390 CURVE SMOOTH",
"750 637 OFFCURVE",
"631 780 OFFCURVE",
"354 780 CURVE SMOOTH",
"76 780 LINE",
"76 0 LINE"
);
},
{
closed = 1;
nodes = (
"244 650 LINE",
"344 650 LINE SMOOTH",
"497 650 OFFCURVE",
"576 590 OFFCURVE",
"576 390 CURVE SMOOTH",
"576 190 OFFCURVE",
"497 130 OFFCURVE",
"344 130 CURVE SMOOTH",
"244 130 LINE"
);
}
);
width = 780;
}
);
leftKerningGroup = B;
rightKerningGroup = D;
unicode = 0044;
},
{
color = 6;
glyphname = E;
lastChange = "2022-02-18 13:14:15 +0000";
layers = (
{
anchors = (
{
name = bottom;
position = "{340, 0}";
},
{
name = ogonek;
position = "{596, 0}";
},
{
name = top;
position = "{340, 780}";
},
{
name = topleft;
position = "{18, 780}";
}
);
hints = (
{
horizontal = 1;
origin = "{0, 11}";
target = "{0, 2}";
type = Stem;
},
{
horizontal = 1;
origin = "{0, 3}";
target = "{0, 6}";
type = Stem;
},
{
horizontal = 1;
origin = "{0, 10}";
target = "{0, 7}";
type = Stem;
},
{
origin = "{0, 11}";
target = "{0, 2}";
type = Stem;
}
);
layerId = "D6DAFCCC-80B4-447A-AB8D-F3640E986932";
paths = (
{
closed = 1;
nodes = (
"596 0 LINE",
"596 94 LINE",
"202 94 LINE",
"202 375 LINE",
"508 375 LINE",
"508 465 LINE",
"202 465 LINE",
"202 686 LINE",
"590 686 LINE",
"590 780 LINE",
"90 780 LINE",
"90 0 LINE"
);
}
);
width = 650;
},
{
anchors = (
{
name = bottom;
position = "{345, 0}";
},
{
name = ogonek;
position = "{614, 0}";
},
{
name = top;
position = "{342, 780}";
},
{
name = topleft;
position = "{17, 780}";
}
);
layerId = "2C59C6D3-D4C2-4A05-8DF2-5125000072A2";
paths = (
{
closed = 1;
nodes = (
"614 0 LINE",
"614 132 LINE",
"242 132 LINE",
"242 354 LINE",
"524 354 LINE",
"524 476 LINE",
"242 476 LINE",
"242 648 LINE",
"608 648 LINE",
"608 780 LINE",
"76 780 LINE",
"76 0 LINE"
);
}
);
width = 660;
}
);
leftKerningGroup = B;
rightKerningGroup = E;
unicode = 0045;
},
{
color = 6;
glyphname = Schwa;
lastChange = "2022-02-18 13:14:15 +0000";
layers = (
{
anchors = (
{
name = bottom;
position = "{370, 0}";
},
{
name = top;
position = "{370, 780}";
}
);
background = {
paths = (
{
closed = 1;
nodes = (
"634 -15 OFFCURVE",
"748 156 OFFCURVE",
"748 393 CURVE SMOOTH",
"748 630 OFFCURVE",
"635 795 OFFCURVE",
"398 795 CURVE SMOOTH",
"210 795 OFFCURVE",
"102 692 OFFCURVE",
"82 520 CURVE",
"192 520 LINE",
"208 637 OFFCURVE",
"281 705 OFFCURVE",
"403 705 CURVE SMOOTH",
"560 705 OFFCURVE",
"634 584 OFFCURVE",
"634 394 CURVE SMOOTH",
"634 190 OFFCURVE",
"552 73 OFFCURVE",
"398 73 CURVE SMOOTH",
"267 73 OFFCURVE",
"192 155 OFFCURVE",
"185 292 CURVE",
"440 292 LINE",
"440 382 LINE",
"80 382 LINE",
"80 0 LINE",
"170 0 LINE",
"170 96 LINE",
"194 96 LINE",
"224 36 OFFCURVE",
"286 -15 OFFCURVE",
"411 -15 CURVE SMOOTH"
);
}
);
};
guideLines = (
{
angle = 180;
position = "{653, 520}";
},
{
angle = 180;
position = "{530, 412}";
}
);
hints = (
{
horizontal = 1;
origin = "{0, 32}";
target = "{0, 19}";
type = Stem;
},
{
horizontal = 1;
origin = "{0, 23}";
target = "{0, 26}";
type = Stem;
},
{
horizontal = 1;
origin = "{0, 5}";
target = "{0, 12}";
type = Stem;
},
{
origin = "{0, 16}";
target = "{0, 2}";
type = Stem;
},
{
place = "{608, 110}";
type = Stem;
},
{
horizontal = 1;
origin = "{0, 8}";
target = up;
type = BottomGhost;
}
);
layerId = "D6DAFCCC-80B4-447A-AB8D-F3640E986932";
paths = (
{
closed = 1;
nodes = (
"609 -14 OFFCURVE",
"718 143 OFFCURVE",
"718 390 CURVE SMOOTH",
"718 637 OFFCURVE",
"609 794 OFFCURVE",
"380 794 CURVE SMOOTH",
"196 794 OFFCURVE",
"88 691 OFFCURVE",
"54 520 CURVE",
"170 520 LINE",
"191 638 OFFCURVE",
"262 704 OFFCURVE",
"380 704 CURVE SMOOTH",
"536 704 OFFCURVE",
"610 589 OFFCURVE",
"610 402 CURVE SMOOTH",
"610 378 LINE SMOOTH",
"610 191 OFFCURVE",
"539 76 OFFCURVE",
"383 76 CURVE SMOOTH",
"226 76 OFFCURVE",
"150 191 OFFCURVE",
"150 390 CURVE",
"120 322 LINE",
"668 322 LINE",
"668 412 LINE",
"42 412 LINE",
"42 405 OFFCURVE",
"42 397 OFFCURVE",
"42 390 CURVE SMOOTH",
"42 143 OFFCURVE",
"152 -14 OFFCURVE",
"380 -14 CURVE SMOOTH"
);
}
);
width = 760;
},
{
anchors = (
{
name = bottom;
position = "{329, 0}";
},
{
name = center;
position = "{379, 390}";
},
{
name = ogonek;
position = "{699, 10}";
},
{
name = top;
position = "{329, 780}";
},
{
name = topleft;
position = "{-1, 780}";
},
{
name = topright;
position = "{759, 780}";
}
);
associatedMasterId = "2C59C6D3-D4C2-4A05-8DF2-5125000072A2";
background = {
paths = (
{
closed = 1;
nodes = (
"619 -15 OFFCURVE",
"749 135 OFFCURVE",
"749 390 CURVE SMOOTH",
"749 642 OFFCURVE",
"622 795 OFFCURVE",
"393 795 CURVE SMOOTH",
"188 795 OFFCURVE",
"69 670 OFFCURVE",
"55 494 CURVE",
"222 494 LINE",
"233 603 OFFCURVE",
"296 669 OFFCURVE",
"392 669 CURVE SMOOTH",
"513 669 OFFCURVE",
"575 568 OFFCURVE",
"575 389 CURVE SMOOTH",
"575 204 OFFCURVE",
"509 111 OFFCURVE",
"393 111 CURVE SMOOTH",
"293 111 OFFCURVE",
"232 181 OFFCURVE",
"222 286 CURVE",
"55 286 LINE",
"69 110 OFFCURVE",
"187 -15 OFFCURVE",
"392 -15 CURVE SMOOTH"
);
}
);
};
layerId = "F042EE73-E7F1-46D2-AAF6-BD30B0D4A14C";
name = "26 Aug 21, 10:13";
paths = (
{
closed = 1;
nodes = (
"646 -15 OFFCURVE",
"749 188 OFFCURVE",
"749 390 CURVE SMOOTH",
"749 642 OFFCURVE",
"622 795 OFFCURVE",
"393 795 CURVE SMOOTH",
"188 795 OFFCURVE",
"69 670 OFFCURVE",
"55 494 CURVE",
"222 494 LINE",
"233 603 OFFCURVE",
"296 669 OFFCURVE",
"392 669 CURVE SMOOTH",
"513 669 OFFCURVE",
"575 568 OFFCURVE",
"575 390 CURVE SMOOTH",
"575 242 OFFCURVE",
"526 111 OFFCURVE",
"385 111 CURVE SMOOTH",
"315 111 OFFCURVE",
"220 157 OFFCURVE",
"214 290 CURVE",
"584 290 LINE",
"591 407 LINE",
"30 407 LINE",
"30 160 OFFCURVE",
"134 -15 OFFCURVE",
"392 -15 CURVE SMOOTH"
);
}
);
width = 780;
},
{
anchors = (
{
name = bottom;
position = "{375, 0}";
},
{
name = top;
position = "{375, 780}";
}
);
associatedMasterId = "2C59C6D3-D4C2-4A05-8DF2-5125000072A2";
background = {
paths = (
{
closed = 1;
nodes = (
"162 795 OFFCURVE",
"44 670 OFFCURVE",
"30 494 CURVE",
"197 494 LINE",
"207 599 OFFCURVE",
"268 669 OFFCURVE",
"368 669 CURVE SMOOTH",
"484 669 OFFCURVE",
"550 576 OFFCURVE",
"550 391 CURVE SMOOTH",
"550 212 OFFCURVE",
"488 111 OFFCURVE",
"367 111 CURVE SMOOTH",
"271 111 OFFCURVE",
"208 177 OFFCURVE",
"197 290 CURVE",
"614 290 LINE",
"614 407 LINE",
"30 407 LINE",
"30 290 LINE",
"44 110 OFFCURVE",
"163 -15 OFFCURVE",
"368 -15 CURVE SMOOTH",
"597 -15 OFFCURVE",
"724 138 OFFCURVE",
"724 390 CURVE SMOOTH",
"724 645 OFFCURVE",
"594 795 OFFCURVE",
"367 795 CURVE SMOOTH"
);
}
);
};
layerId = "B0939050-6167-4E5F-8D6B-C13B7BC571F3";
name = "3 Sep 21, 08:52";
paths = (
{
closed = 1;
nodes = (
"603 -15 OFFCURVE",
"720 149 OFFCURVE",
"720 396 CURVE SMOOTH",
"720 649 OFFCURVE",
"597 795 OFFCURVE",
"366 795 CURVE SMOOTH",
"161 795 OFFCURVE",
"52 682 OFFCURVE",
"30 521 CURVE",
"190 521 LINE",
"205 615 OFFCURVE",
"269 669 OFFCURVE",
"367 669 CURVE SMOOTH",
"491 669 OFFCURVE",
"558 583 OFFCURVE",
"558 396 CURVE SMOOTH",
"558 212 OFFCURVE",
"499 111 OFFCURVE",
"376 111 CURVE SMOOTH",
"256 111 OFFCURVE",
"174 201 OFFCURVE",
"190 339 CURVE",
"121 320 LINE",
"620 320 LINE",
"620 437 LINE",
"30 437 LINE",
"30 370 LINE SMOOTH",
"30 109 OFFCURVE",
"160 -15 OFFCURVE",
"371 -15 CURVE SMOOTH"
);
}
);
width = 750;
},
{
anchors = (
{
name = bottom;
position = "{370, 0}";
},
{
name = top;
position = "{370, 780}";
}
);
associatedMasterId = "D6DAFCCC-80B4-447A-AB8D-F3640E986932";
background = {
paths = (
{
closed = 1;
nodes = (
"613 294 LINE",
"613 381 LINE",
"42 381 LINE",
"42 287 LINE",
"60 106 OFFCURVE",
"183 -15 OFFCURVE",
"376 -15 CURVE SMOOTH",
"590 -15 OFFCURVE",
"718 133 OFFCURVE",
"718 390 CURVE SMOOTH",
"718 646 OFFCURVE",
"591 795 OFFCURVE",
"376 795 CURVE SMOOTH",
"188 795 OFFCURVE",
"77 692 OFFCURVE",
"57 520 CURVE",
"167 520 LINE",
"183 637 OFFCURVE",
"259 705 OFFCURVE",
"379 705 CURVE SMOOTH",
"521 705 OFFCURVE",
"604 592 OFFCURVE",
"604 390 CURVE SMOOTH",
"604 190 OFFCURVE",
"523 75 OFFCURVE",
"378 75 CURVE SMOOTH",
"248 75 OFFCURVE",
"164 168 OFFCURVE",
"165 309 CURVE",
"145 294 LINE"
);
}
);
};
layerId = "C725D64A-CFF6-4C10-8C70-268C0735DBA3";
name = "3 Sep 21, 09:00";
paths = (
{
closed = 1;
nodes = (
"571 -15 OFFCURVE",
"698 132 OFFCURVE",
"698 395 CURVE SMOOTH",
"698 650 OFFCURVE",
"578 795 OFFCURVE",
"363 795 CURVE SMOOTH",
"173 795 OFFCURVE",
"63 683 OFFCURVE",
"42 520 CURVE",
"152 520 LINE",
"170 635 OFFCURVE",
"251 705 OFFCURVE",
"365 705 CURVE SMOOTH",
"508 705 OFFCURVE",
"590 591 OFFCURVE",
"590 387 CURVE SMOOTH",
"590 182 OFFCURVE",
"507 75 OFFCURVE",
"369 75 CURVE SMOOTH",
"243 75 OFFCURVE",
"159 165 OFFCURVE",
"159 309 CURVE",
"139 294 LINE",
"623 294 LINE",
"623 381 LINE",
"42 381 LINE",
"42 327 LINE SMOOTH",
"42 105 OFFCURVE",
"179 -15 OFFCURVE",
"364 -15 CURVE SMOOTH"
);
}
);
width = 740;
},
{
anchors = (
{
name = bottom;
position = "{375, 0}";
},
{
name = top;
position = "{375, 780}";
}
);
associatedMasterId = "2C59C6D3-D4C2-4A05-8DF2-5125000072A2";
background = {
paths = (
{
closed = 1;
nodes = (
"602 -14 OFFCURVE",
"726 147 OFFCURVE",
"726 392 CURVE SMOOTH",
"726 640 OFFCURVE",
"600 794 OFFCURVE",
"364 794 CURVE SMOOTH",
"161 794 OFFCURVE",
"57 681 OFFCURVE",
"35 520 CURVE",
"195 520 LINE",
"211 616 OFFCURVE",
"269 668 OFFCURVE",
"366 668 CURVE SMOOTH",
"496 668 OFFCURVE",
"558 567 OFFCURVE",
"558 391 CURVE SMOOTH",
"558 211 OFFCURVE",
"492 110 OFFCURVE",
"362 110 CURVE SMOOTH",
"254 110 OFFCURVE",
"195 178 OFFCURVE",
"188 286 CURVE",
"408 286 LINE",
"408 407 LINE",
"34 407 LINE",
"34 0 LINE",
"155 0 LINE",
"155 90 LINE",
"179 90 LINE",
"206 36 OFFCURVE",
"265 -14 OFFCURVE",
"388 -14 CURVE SMOOTH"
);
}
);
};
layerId = "08C9651F-9DA6-49D8-A000-40E62480E526";
name = "3 Sep 21, 09:01";
paths = (
{
closed = 1;
nodes = (
"165 795 OFFCURVE",
"65 670 OFFCURVE",
"43 529 CURVE",
"204 529 LINE",
"222 603 OFFCURVE",
"278 668 OFFCURVE",
"369 668 CURVE SMOOTH",
"484 668 OFFCURVE",
"551 581 OFFCURVE",
"562 439 CURVE",
"34 439 LINE",
"34 395 LINE SMOOTH",
"34 126 OFFCURVE",
"154 -15 OFFCURVE",
"372 -15 CURVE SMOOTH",
"600 -15 OFFCURVE",
"725 138 OFFCURVE",
"725 389 CURVE SMOOTH",
"725 639 OFFCURVE",
"601 795 OFFCURVE",
"370 795 CURVE SMOOTH"
);
},
{
closed = 1;
nodes = (
"547 180 OFFCURVE",
"478 111 OFFCURVE",
"373 111 CURVE SMOOTH",
"265 111 OFFCURVE",
"207 187 OFFCURVE",
"199 321 CURVE",
"562 321 LINE"
);
}
);
width = 750;
},
{
anchors = (
{
name = bottom;
position = "{375, 0}";
},
{
name = top;
position = "{375, 780}";
}
);
background = {
paths = (
{
closed = 1;
nodes = (
"628 -14 OFFCURVE",
"752 147 OFFCURVE",
"752 392 CURVE SMOOTH",
"752 640 OFFCURVE",
"626 794 OFFCURVE",
"390 794 CURVE SMOOTH",
"187 794 OFFCURVE",
"83 681 OFFCURVE",
"61 520 CURVE",
"221 520 LINE",
"237 616 OFFCURVE",
"295 668 OFFCURVE",
"392 668 CURVE SMOOTH",
"522 668 OFFCURVE",
"584 567 OFFCURVE",
"584 391 CURVE SMOOTH",
"584 211 OFFCURVE",
"518 110 OFFCURVE",
"388 110 CURVE SMOOTH",
"280 110 OFFCURVE",
"221 178 OFFCURVE",
"214 286 CURVE",
"434 286 LINE",
"434 407 LINE",
"60 407 LINE",
"60 0 LINE",
"181 0 LINE",
"181 90 LINE",
"205 90 LINE",
"232 36 OFFCURVE",
"291 -14 OFFCURVE",
"414 -14 CURVE SMOOTH"
);
}
);
};
guideLines = (
{
angle = 180;
position = "{641, 520}";
},
{
angle = 180;
position = "{535, 407}";
}
);
layerId = "2C59C6D3-D4C2-4A05-8DF2-5125000072A2";
name = Bold;
paths = (
{
closed = 1;
nodes = (
"632 -14 OFFCURVE",
"750 146 OFFCURVE",
"750 393 CURVE SMOOTH",
"750 640 OFFCURVE",
"632 794 OFFCURVE",
"390 794 CURVE SMOOTH",
"190 794 OFFCURVE",
"79 691 OFFCURVE",
"48 520 CURVE",
"216 520 LINE",
"236 616 OFFCURVE",
"296 668 OFFCURVE",
"393 668 CURVE SMOOTH",
"519 668 OFFCURVE",
"582 579 OFFCURVE",
"582 402 CURVE SMOOTH",
"582 378 LINE SMOOTH",
"582 200 OFFCURVE",
"518 112 OFFCURVE",
"393 112 CURVE SMOOTH",
"260 112 OFFCURVE",
"198 212 OFFCURVE",
"198 390 CURVE",
"143 322 LINE",
"625 322 LINE",
"625 437 LINE",
"30 437 LINE",
"30 421 OFFCURVE",
"30 406 OFFCURVE",
"30 390 CURVE SMOOTH",
"30 143 OFFCURVE",
"149 -14 OFFCURVE",
"390 -14 CURVE SMOOTH"
);
}
);
visible = 1;
width = 780;
}
);
leftKerningGroup = C;
rightKerningGroup = D;
unicode = 018F;
},
{
color = 6;
glyphname = F;
lastChange = "2022-02-18 13:14:15 +0000";
layers = (
{
hints = (
{
horizontal = 1;
origin = "{0, 9}";
target = up;
type = BottomGhost;
},
{
horizontal = 1;
origin = "{0, 1}";
target = "{0, 4}";
type = Stem;
},
{
horizontal = 1;
origin = "{0, 8}";
target = "{0, 5}";
type = Stem;
},
{
origin = "{0, 9}";
target = "{0, 0}";
type = Stem;
}
);
layerId = "D6DAFCCC-80B4-447A-AB8D-F3640E986932";
paths = (
{
closed = 1;
nodes = (
"202 0 LINE",
"202 371 LINE",
"514 371 LINE",
"514 461 LINE",
"202 461 LINE",
"202 686 LINE",
"596 686 LINE",
"596 780 LINE",
"90 780 LINE",
"90 0 LINE"
);
}
);
width = 620;
},
{
layerId = "2C59C6D3-D4C2-4A05-8DF2-5125000072A2";
paths = (
{
closed = 1;
nodes = (
"242 0 LINE",
"242 349 LINE",
"506 349 LINE",
"506 471 LINE",
"242 471 LINE",
"242 648 LINE",
"590 648 LINE",
"590 780 LINE",
"76 780 LINE",
"76 0 LINE"
);
}
);
width = 620;
}
);
leftKerningGroup = B;
rightKerningGroup = F;
unicode = 0046;
},
{
color = 6;
glyphname = G;
lastChange = "2022-02-18 13:14:15 +0000";
layers = (
{
anchors = (
{
name = bottom;
position = "{391, 0}";
},
{
name = top;
position = "{391, 780}";
}
);
guideLines = (
{
angle = 180;
position = "{653, 520}";
},
{
angle = 180;
position = "{530, 382}";
}
);
hints = (
{
horizontal = 1;
origin = "{0, 8}";
target = "{0, 7}";
type = Stem;
},
{
horizontal = 1;
origin = "{0, 25}";
target = "{0, 18}";
type = Stem;
},
{
horizontal = 1;
origin = "{0, 4}";
target = up;
type = BottomGhost;
},
{
origin = "{0, 28}";
target = "{0, 15}";
type = Stem;
},
{
origin = "{0, 9}";
target = "{0, 6}";
type = Stem;
},
{
horizontal = 1;
origin = "{0, 31}";
target = "{0, 12}";
type = Stem;
}
);
layerId = "D6DAFCCC-80B4-447A-AB8D-F3640E986932";
paths = (
{
closed = 1;
nodes = (
"504 -15 OFFCURVE",
"566 36 OFFCURVE",
"596 96 CURVE",
"620 96 LINE",
"620 0 LINE",
"710 0 LINE",
"710 382 LINE",
"350 382 LINE",
"350 292 LINE",
"605 292 LINE",
"598 155 OFFCURVE",
"523 73 OFFCURVE",
"392 73 CURVE SMOOTH",
"238 73 OFFCURVE",
"156 190 OFFCURVE",
"156 394 CURVE SMOOTH",
"156 584 OFFCURVE",
"230 705 OFFCURVE",
"387 705 CURVE SMOOTH",
"509 705 OFFCURVE",
"582 637 OFFCURVE",
"598 520 CURVE",
"708 520 LINE",
"688 692 OFFCURVE",
"580 795 OFFCURVE",
"392 795 CURVE SMOOTH",
"155 795 OFFCURVE",
"42 630 OFFCURVE",
"42 393 CURVE SMOOTH",
"42 156 OFFCURVE",
"156 -15 OFFCURVE",
"379 -15 CURVE SMOOTH"
);
}
);
width = 790;
},
{
anchors = (
{
name = bottom;
position = "{389, 0}";
},
{
name = top;
position = "{392, 780}";
}
);
guideLines = (
{
angle = 180;
position = "{641, 520}";
},
{
angle = 180;
position = "{535, 407}";
}
);
layerId = "2C59C6D3-D4C2-4A05-8DF2-5125000072A2";
paths = (
{
closed = 1;
nodes = (
"491 -14 OFFCURVE",
"550 36 OFFCURVE",
"577 90 CURVE",
"601 90 LINE",
"601 0 LINE",
"722 0 LINE",
"722 407 LINE",
"348 407 LINE",
"348 286 LINE",
"568 286 LINE",
"561 178 OFFCURVE",
"502 110 OFFCURVE",
"394 110 CURVE SMOOTH",
"264 110 OFFCURVE",
"198 211 OFFCURVE",
"198 391 CURVE SMOOTH",
"198 567 OFFCURVE",
"260 668 OFFCURVE",
"390 668 CURVE SMOOTH",
"487 668 OFFCURVE",
"545 616 OFFCURVE",
"561 520 CURVE",
"721 520 LINE",
"699 681 OFFCURVE",
"595 794 OFFCURVE",
"392 794 CURVE SMOOTH",
"156 794 OFFCURVE",
"30 640 OFFCURVE",
"30 392 CURVE SMOOTH",
"30 147 OFFCURVE",
"154 -14 OFFCURVE",
"368 -14 CURVE SMOOTH"
);
}
);
width = 780;
}
);
leftKerningGroup = C;
rightKerningGroup = G;
unicode = 0047;
},
{
color = 6;
glyphname = H;
lastChange = "2022-02-18 13:14:15 +0000";
layers = (
{
anchors = (
{
name = bottom;
position = "{400, 0}";
},
{
name = center;
position = "{400, 600}";
},
{
name = top;
position = "{400, 780}";
},
{
name = topleft;
position = "{20, 780}";
}
);
hints = (
{
horizontal = 1;
origin = "{0, 11}";
target = up;
type = BottomGhost;
},
{
horizontal = 1;
origin = "{0, 1}";
target = "{0, 8}";
type = Stem;
},
{
horizontal = 1;
origin = "{0, 10}";
target = down;
type = TopGhost;
},
{
origin = "{0, 11}";
target = "{0, 0}";
type = Stem;
},
{
origin = "{0, 3}";
target = "{0, 4}";
type = Stem;
}
);
layerId = "D6DAFCCC-80B4-447A-AB8D-F3640E986932";
paths = (
{
closed = 1;
nodes = (
"202 0 LINE",
"202 373 LINE",
"598 373 LINE",
"598 0 LINE",
"710 0 LINE",
"710 780 LINE",
"598 780 LINE",
"598 467 LINE",
"202 467 LINE",
"202 780 LINE",
"90 780 LINE",
"90 0 LINE"
);
}
);
width = 800;
},
{
anchors = (
{
name = bottom;
position = "{410, 0}";
},
{
name = center;
position = "{410, 600}";
},
{
name = top;
position = "{410, 780}";
},
{
name = topleft;
position = "{17, 780}";
}
);
layerId = "2C59C6D3-D4C2-4A05-8DF2-5125000072A2";
paths = (
{
closed = 1;
nodes = (
"244 0 LINE",
"244 347 LINE",
"576 347 LINE",
"576 0 LINE",
"744 0 LINE",
"744 780 LINE",
"576 780 LINE",
"576 483 LINE",
"244 483 LINE",
"244 780 LINE",
"76 780 LINE",
"76 0 LINE"
);
}
);
width = 820;
}
);
leftKerningGroup = B;
rightKerningGroup = H;
unicode = 0048;
},
{
color = 6;
glyphname = I;
lastChange = "2022-02-18 13:14:15 +0000";
layers = (
{
anchors = (
{
name = bottom;
position = "{151, 0}";
},
{
name = ogonek;
position = "{186, 10}";
},
{
name = top;
position = "{151, 780}";
},
{
name = topleft;
position = "{22, 780}";
}
);
hints = (
{
horizontal = 1;
origin = "{0, 3}";
target = up;
type = BottomGhost;
},
{
horizontal = 1;
origin = "{0, 2}";
target = down;
type = TopGhost;
},
{
origin = "{0, 3}";
target = "{0, 0}";
type = Stem;
}
);
layerId = "D6DAFCCC-80B4-447A-AB8D-F3640E986932";
paths = (
{
closed = 1;
nodes = (
"206 0 LINE",
"206 780 LINE",
"94 780 LINE",
"94 0 LINE"
);
}
);
width = 300;
},
{
anchors = (
{
name = bottom;
position = "{160, 0}";
},
{
name = ogonek;
position = "{194, 10}";
},
{
name = top;
position = "{160, 780}";
},
{
name = topleft;
position = "{14, 780}";
}
);
layerId = "2C59C6D3-D4C2-4A05-8DF2-5125000072A2";
paths = (
{
closed = 1;
nodes = (
"244 0 LINE",
"244 780 LINE",
"76 780 LINE",
"76 0 LINE"
);
}
);
width = 320;
}
);
leftKerningGroup = B;
rightKerningGroup = H;
unicode = 0049;
},
{
color = 6;
glyphname = J;
lastChange = "2022-02-18 13:14:15 +0000";
layers = (
{
anchors = (
{
name = bottom;
position = "{150, 0}";
},
{
name = top;
position = "{150, 780}";
}
);
hints = (
{
horizontal = 1;
origin = "{0, 5}";
target = down;
type = TopGhost;
},
{
origin = "{0, 6}";
target = "{0, 3}";
type = Stem;
},
{
horizontal = 1;
origin = "{0, 0}";
target = up;
type = BottomGhost;
}
);
layerId = "D6DAFCCC-80B4-447A-AB8D-F3640E986932";
paths = (
{
closed = 1;
nodes = (
"133 -150 LINE",
"173 -90 OFFCURVE",
"210 -22 OFFCURVE",
"210 144 CURVE SMOOTH",
"210 780 LINE",
"98 780 LINE",
"98 144 LINE SMOOTH",
"98 -10 OFFCURVE",
"56 -78 OFFCURVE",
"8 -144 CURVE",
"8 -150 LINE"
);
}
);
width = 300;
},
{
anchors = (
{
name = bottom;
position = "{163, 0}";
},
{
name = top;
position = "{163, 780}";
}
);
layerId = "2C59C6D3-D4C2-4A05-8DF2-5125000072A2";
paths = (
{
closed = 1;
nodes = (
"174 -150 LINE",
"210 -92 OFFCURVE",
"248 -24 OFFCURVE",
"248 138 CURVE SMOOTH",
"248 780 LINE",
"80 780 LINE",
"80 138 LINE SMOOTH",
"80 -16 OFFCURVE",
"42 -74 OFFCURVE",
"-6 -144 CURVE",
"-6 -150 LINE"
);
}
);
width = 326;
}
);
leftKerningGroup = B;
rightKerningGroup = H;
unicode = 004A;
},
{
color = 6;
glyphname = K;
lastChange = "2022-02-18 13:14:15 +0000";
layers = (
{
anchors = (
{
name = bottom;
position = "{360, 60}";
},
{
name = top;
position = "{350, 780}";
}
);
hints = (
{
horizontal = 1;
origin = "{0, 14}";
target = up;
type = BottomGhost;
},
{
horizontal = 1;
origin = "{0, 1}";
target = "{0, 11}";
type = Stem;
},
{
horizontal = 1;
origin = "{0, 13}";
target = down;
type = TopGhost;
},
{
origin = "{0, 14}";
target = "{0, 0}";
type = Stem;
}
);
layerId = "D6DAFCCC-80B4-447A-AB8D-F3640E986932";
paths = (
{
closed = 1;
nodes = (
"200 0 LINE",
"200 350 LINE",
"260 350 LINE",
"536 0 LINE",
"672 0 LINE",
"672 6 LINE",
"348 407 LINE",
"647 774 LINE",
"647 780 LINE",
"522 780 LINE",
"260 450 LINE",
"200 450 LINE",
"200 780 LINE",
"90 780 LINE",
"90 0 LINE"
);
}
);
width = 690;
},
{
anchors = (
{
name = bottom;
position = "{384, 60}";
},
{
name = top;
position = "{372, 780}";
}
);
layerId = "2C59C6D3-D4C2-4A05-8DF2-5125000072A2";
paths = (
{
closed = 1;
nodes = (
"240 0 LINE",
"240 348 LINE",
"300 348 LINE",
"554 0 LINE",
"754 0 LINE",
"754 6 LINE",
"440 422 LINE",
"710 774 LINE",
"710 780 LINE",
"524 780 LINE",
"300 480 LINE",
"240 480 LINE",
"240 780 LINE",
"76 780 LINE",
"76 0 LINE"
);
}
);
width = 760;
}
);
leftKerningGroup = B;
rightKerningGroup = K;
unicode = 004B;
},
{
color = 6;
glyphname = L;
lastChange = "2022-02-18 13:14:15 +0000";
layers = (
{
anchors = (
{
name = bottom;
position = "{330, 0}";
},
{
name = center;
position = "{383, 390}";
},
{
name = slash;
position = "{146, 390}";
},
{
name = top;
position = "{147, 780}";
},
{
name = topright;
position = "{203, 780}";
}
);
guideLines = (
{
angle = 90;
position = "{203, 436}";
}
);
hints = (
{
horizontal = 1;
origin = "{0, 5}";
target = "{0, 2}";
type = Stem;
},
{
horizontal = 1;
origin = "{0, 4}";
target = down;
type = TopGhost;
},
{
origin = "{0, 5}";
target = "{0, 2}";
type = Stem;
}
);
layerId = "D6DAFCCC-80B4-447A-AB8D-F3640E986932";
paths = (
{
closed = 1;
nodes = (
"570 0 LINE",
"570 94 LINE",
"202 94 LINE",
"202 780 LINE",
"90 780 LINE",
"90 0 LINE"
);
}
);
width = 600;
},
{
anchors = (
{
name = bottom;
position = "{327, 0}";
},
{
name = center;
position = "{422, 390}";
},
{
name = slash;
position = "{159, 390}";
},
{
name = top;
position = "{160, 780}";
},
{
name = topright;
position = "{242, 780}";
}
);
guideLines = (
{
angle = 90;
position = "{242, 457}";
}
);
layerId = "2C59C6D3-D4C2-4A05-8DF2-5125000072A2";
paths = (
{
closed = 1;
nodes = (
"570 0 LINE",
"570 132 LINE",
"244 132 LINE",
"244 780 LINE",
"76 780 LINE",
"76 0 LINE"
);
}
);
width = 600;
}
);
leftKerningGroup = B;
rightKerningGroup = L;
unicode = 004C;
},
{
color = 6;
glyphname = M;
lastChange = "2022-02-18 13:14:15 +0000";
layers = (
{
hints = (
{
horizontal = 1;
origin = "{0, 15}";
target = "{0, 12}";
type = Stem;
},
{
horizontal = 1;
origin = "{0, 14}";
target = "{0, 1}";
type = Stem;
},
{
origin = "{0, 15}";
target = "{0, 0}";
type = Stem;
},
{
origin = "{0, 7}";
target = "{0, 8}";
type = Stem;
},
{
horizontal = 1;
origin = "{0, 15}";
target = up;
type = BottomGhost;
},
{
horizontal = 1;
origin = "{0, 14}";
target = down;
type = TopGhost;
}
);
layerId = "D6DAFCCC-80B4-447A-AB8D-F3640E986932";
paths = (
{
closed = 1;
nodes = (
"192 0 LINE",
"192 684 LINE",
"216 684 LINE",
"420 0 LINE",
"600 0 LINE",
"804 684 LINE",
"828 684 LINE",
"828 0 LINE",
"940 0 LINE",
"940 780 LINE",
"736 780 LINE",
"525 90 LINE",
"501 90 LINE",
"294 780 LINE",
"90 780 LINE",
"90 0 LINE"
);
}
);
width = 1030;
},
{
layerId = "2C59C6D3-D4C2-4A05-8DF2-5125000072A2";
paths = (
{
closed = 1;
nodes = (
"224 0 LINE",
"224 642 LINE",
"250 642 LINE",
"392 0 LINE",
"670 0 LINE",
"812 642 LINE",
"838 642 LINE",
"838 0 LINE",
"994 0 LINE",
"994 780 LINE",
"698 780 LINE",
"553 132 LINE",
"517 132 LINE",
"372 780 LINE",
"76 780 LINE",
"76 0 LINE"
);
}
);
width = 1070;
},
{
associatedMasterId = "D6DAFCCC-80B4-447A-AB8D-F3640E986932";
hints = (
{
horizontal = 1;
origin = "{0, 15}";
target = "{0, 12}";
type = Stem;
},
{
horizontal = 1;
origin = "{0, 14}";
target = "{0, 1}";
type = Stem;
},
{
origin = "{0, 15}";
target = "{0, 0}";
type = Stem;
},
{
origin = "{0, 7}";
target = "{0, 8}";
type = Stem;
}
);
layerId = "20C32E98-74A4-410A-9AB4-95AB2DDEE911";
name = "20 Aug 21, 13:39";
paths = (
{
closed = 1;
nodes = (
"189 0 LINE",
"189 684 LINE",
"214 684 LINE",
"420 0 LINE",
"604 0 LINE",
"810 684 LINE",
"835 684 LINE",
"835 0 LINE",
"940 0 LINE",
"940 780 LINE",
"738 780 LINE",
"528 90 LINE",
"502 90 LINE",
"292 780 LINE",
"90 780 LINE",
"90 0 LINE"
);
}
);
width = 1030;
}
);
leftKerningGroup = B;
rightKerningGroup = H;
unicode = 004D;
},
{
color = 6;
glyphname = N;
lastChange = "2022-02-18 13:14:15 +0000";
layers = (
{
anchors = (
{
name = bottom;
position = "{410, 0}";
},
{
name = top;
position = "{410, 780}";
}
);
hints = (
{
horizontal = 1;
origin = "{0, 11}";
target = "{0, 8}";
type = Stem;
},
{
horizontal = 1;
origin = "{0, 10}";
target = "{0, 1}";
type = Stem;
},
{
origin = "{0, 11}";
target = "{0, 0}";
type = Stem;
},
{
origin = "{0, 7}";
target = "{0, 4}";
type = Stem;
},
{
horizontal = 1;
origin = "{0, 11}";
target = up;
type = BottomGhost;
},
{
horizontal = 1;
origin = "{0, 10}";
target = down;
type = TopGhost;
}
);
layerId = "D6DAFCCC-80B4-447A-AB8D-F3640E986932";
paths = (
{
closed = 1;
nodes = (
"192 0 LINE",
"192 691 LINE",
"216 691 LINE",
"526 0 LINE",
"730 0 LINE",
"730 780 LINE",
"628 780 LINE",
"628 89 LINE",
"604 89 LINE",
"294 780 LINE",
"90 780 LINE",
"90 0 LINE"
);
}
);
width = 820;
},
{
anchors = (
{
name = bottom;
position = "{430, 30}";
},
{
name = top;
position = "{430, 750}";
}
);
layerId = "2C59C6D3-D4C2-4A05-8DF2-5125000072A2";
paths = (
{
closed = 1;
nodes = (
"228 0 LINE",
"228 648 LINE",
"251 648 LINE",
"492 0 LINE",
"784 0 LINE",
"784 780 LINE",
"632 780 LINE",
"632 132 LINE",
"608 132 LINE",
"366 780 LINE",
"76 780 LINE",
"76 0 LINE"
);
}
);
width = 860;
}
);
leftKerningGroup = B;
rightKerningGroup = H;
unicode = 004E;
},
{
color = 6;
glyphname = Eng;
lastChange = "2022-02-18 13:14:15 +0000";
layers = (
{
anchors = (
{
name = bottom;
position = "{410, 0}";
},
{
name = top;
position = "{410, 780}";
}
);
hints = (
{
horizontal = 1;
origin = "{0, 10}";
target = "{0, 7}";
type = Stem;
},
{
horizontal = 1;
origin = "{0, 9}";
target = "{0, 12}";
type = Stem;
},
{
origin = "{0, 10}";
target = "{0, 11}";
type = Stem;
},
{
origin = "{0, 6}";
target = "{0, 3}";
type = Stem;
},
{
horizontal = 1;
origin = "{0, 10}";
target = up;
type = BottomGhost;
},
{
horizontal = 1;
origin = "{0, 9}";
target = down;
type = TopGhost;
}
);
layerId = "D6DAFCCC-80B4-447A-AB8D-F3640E986932";
paths = (
{
closed = 1;
nodes = (
"657 -150 LINE",
"710 -66 OFFCURVE",
"730 -12 OFFCURVE",
"730 144 CURVE SMOOTH",
"730 780 LINE",
"628 780 LINE",
"628 89 LINE",
"604 89 LINE",
"294 780 LINE",
"90 780 LINE",
"90 0 LINE",
"192 0 LINE",
"192 691 LINE",
"216 691 LINE",
"526 0 LINE",
"655 0 LINE",
"623 49 LINE",
"611 -39 OFFCURVE",
"583 -88 OFFCURVE",
"544 -141 CURVE",
"544 -150 LINE"
);
}
);
width = 820;
},
{
anchors = (
{
name = bottom;
position = "{430, 30}";
},
{
name = top;
position = "{430, 750}";
}
);
layerId = "2C59C6D3-D4C2-4A05-8DF2-5125000072A2";
paths = (
{
closed = 1;
nodes = (
"723 -150 LINE",
"761 -84 OFFCURVE",
"784 -24 OFFCURVE",
"784 106 CURVE SMOOTH",
"784 780 LINE",
"632 780 LINE",
"632 132 LINE",
"608 132 LINE",
"366 780 LINE",
"76 780 LINE",
"76 0 LINE",
"228 0 LINE",
"228 648 LINE",
"251 648 LINE",
"492 0 LINE",
"716 0 LINE",
"632 126 LINE",
"632 -14 OFFCURVE",
"605 -73 OFFCURVE",
"561 -144 CURVE",
"561 -150 LINE"
);
}
);
width = 860;
}
);
leftKerningGroup = B;
rightKerningGroup = H;
unicode = 014A;
},
{
color = 6;
glyphname = O;
lastChange = "2022-02-18 13:14:15 +0000";
layers = (
{
anchors = (
{
name = bottom;
position = "{395, 0}";
},
{
name = center;
position = "{395, 390}";
},
{
name = ogonek;
position = "{490, 0}";
},
{
name = top;
position = "{395, 780}";
},
{
name = topleft;
position = "{20, 780}";
},
{
name = topright;
position = "{770, 780}";
}
);
hints = (
{
horizontal = 1;
origin = "{0, 11}";
target = "{1, 11}";
type = Stem;
},
{
horizontal = 1;
origin = "{0, 5}";
target = "{1, 5}";
type = Stem;
},
{
origin = "{0, 8}";
target = "{1, 2}";
type = Stem;
},
{
origin = "{1, 8}";
target = "{0, 2}";
type = Stem;
}
);
layerId = "D6DAFCCC-80B4-447A-AB8D-F3640E986932";
paths = (
{
closed = 1;
nodes = (
"634 -14 OFFCURVE",
"748 143 OFFCURVE",
"748 390 CURVE SMOOTH",
"748 637 OFFCURVE",
"634 794 OFFCURVE",
"395 794 CURVE SMOOTH",
"157 794 OFFCURVE",
"42 637 OFFCURVE",
"42 390 CURVE SMOOTH",
"42 143 OFFCURVE",
"157 -14 OFFCURVE",
"395 -14 CURVE SMOOTH"
);
},
{
closed = 1;
nodes = (
"232 76 OFFCURVE",
"156 191 OFFCURVE",
"156 390 CURVE SMOOTH",
"156 589 OFFCURVE",
"232 704 OFFCURVE",
"395 704 CURVE SMOOTH",
"557 704 OFFCURVE",
"634 589 OFFCURVE",
"634 390 CURVE SMOOTH",
"634 191 OFFCURVE",
"557 76 OFFCURVE",
"395 76 CURVE SMOOTH"
);
}
);
width = 790;
},
{
anchors = (
{
name = bottom;
position = "{400, 0}";
},
{
name = center;
position = "{400, 390}";
},
{
name = ogonek;
position = "{510, 0}";
},
{
name = top;
position = "{400, 780}";
},
{
name = topleft;
position = "{20, 780}";
},
{
name = topright;
position = "{780, 780}";
}
);
layerId = "2C59C6D3-D4C2-4A05-8DF2-5125000072A2";
paths = (
{
closed = 1;
nodes = (
"650 -14 OFFCURVE",
"770 143 OFFCURVE",
"770 390 CURVE SMOOTH",
"770 637 OFFCURVE",
"650 794 OFFCURVE",
"400 794 CURVE SMOOTH",
"151 794 OFFCURVE",
"30 637 OFFCURVE",
"30 390 CURVE SMOOTH",
"30 143 OFFCURVE",
"151 -14 OFFCURVE",
"400 -14 CURVE SMOOTH"
);
},
{
closed = 1;
nodes = (
"265 112 OFFCURVE",
"204 212 OFFCURVE",
"204 390 CURVE SMOOTH",
"204 568 OFFCURVE",
"265 668 OFFCURVE",
"400 668 CURVE SMOOTH",
"535 668 OFFCURVE",
"596 568 OFFCURVE",
"596 390 CURVE SMOOTH",
"596 212 OFFCURVE",
"535 112 OFFCURVE",
"400 112 CURVE SMOOTH"
);
}
);
width = 800;
}
);
leftKerningGroup = C;
rightKerningGroup = D;
unicode = 004F;
},
{
color = 6;
glyphname = Ohorn;
lastChange = "2022-02-18 13:14:15 +0000";
layers = (
{
anchors = (
{
name = bottom;
position = "{395, 0}";
},
{
name = center;
position = "{395, 390}";
},
{
name = ogonek;
position = "{711, 10}";
},
{
name = top;
position = "{395, 780}";
},
{
name = topleft;
position = "{20, 780}";
}
);
hints = (
{
horizontal = 1;
origin = "{0, 22}";
target = "{1, 11}";
type = Stem;
},
{
horizontal = 1;
origin = "{0, 16}";
target = "{1, 5}";
type = Stem;
},
{
origin = "{0, 19}";
target = "{1, 2}";
type = Stem;
},
{
origin = "{1, 8}";
target = "{0, 2}";
type = Stem;
},
{
origin = "{0, 9}";
target = "{0, 8}";
type = Stem;
},
{
horizontal = 1;
origin = "{0, 9}";
target = down;
type = TopGhost;
},
{
horizontal = 1;
origin = "{0, 13}";
target = down;
type = TopGhost;
}
);
layerId = "D6DAFCCC-80B4-447A-AB8D-F3640E986932";
paths = (
{
closed = 1;
nodes = (
"634 -14 OFFCURVE",
"748 143 OFFCURVE",
"748 390 CURVE SMOOTH",
"748 489 OFFCURVE",
"730 572 OFFCURVE",
"687 638 CURVE",
"779 662 OFFCURVE",
"810 743 OFFCURVE",
"810 840 CURVE",
"726 840 LINE",
"727 771 OFFCURVE",
"703 714 OFFCURVE",
"668 690 CURVE",
"644 690 LINE",
"599 750 OFFCURVE",
"512 794 OFFCURVE",
"395 794 CURVE SMOOTH",
"157 794 OFFCURVE",
"42 637 OFFCURVE",
"42 390 CURVE SMOOTH",
"42 143 OFFCURVE",
"157 -14 OFFCURVE",
"395 -14 CURVE SMOOTH"
);
},
{
closed = 1;
nodes = (
"232 76 OFFCURVE",
"156 191 OFFCURVE",
"156 390 CURVE SMOOTH",
"156 589 OFFCURVE",
"232 704 OFFCURVE",
"395 704 CURVE SMOOTH",
"557 704 OFFCURVE",
"634 589 OFFCURVE",
"634 390 CURVE SMOOTH",
"634 191 OFFCURVE",
"557 76 OFFCURVE",
"395 76 CURVE SMOOTH"
);
}
);
width = 790;
},
{
anchors = (
{
name = bottom;
position = "{400, 0}";
},
{
name = center;
position = "{400, 390}";
},
{
name = ogonek;
position = "{720, 10}";
},
{
name = top;
position = "{400, 780}";
},
{
name = topleft;
position = "{20, 780}";
}
);
layerId = "2C59C6D3-D4C2-4A05-8DF2-5125000072A2";
paths = (
{
closed = 1;
nodes = (
"650 -14 OFFCURVE",
"770 143 OFFCURVE",
"770 390 CURVE SMOOTH",
"770 486 OFFCURVE",
"752 568 OFFCURVE",
"709 633 CURVE",
"806 662 OFFCURVE",
"837 733 OFFCURVE",
"837 840 CURVE",
"716 840 LINE",
"716 786 OFFCURVE",
"693 745 OFFCURVE",
"661 720 CURVE",
"637 720 LINE",
"583 768 OFFCURVE",
"502 794 OFFCURVE",
"400 794 CURVE SMOOTH",
"151 794 OFFCURVE",
"30 637 OFFCURVE",
"30 390 CURVE SMOOTH",
"30 143 OFFCURVE",
"151 -14 OFFCURVE",
"400 -14 CURVE SMOOTH"
);
},
{
closed = 1;
nodes = (
"265 112 OFFCURVE",
"204 212 OFFCURVE",
"204 390 CURVE SMOOTH",
"204 568 OFFCURVE",
"265 668 OFFCURVE",
"400 668 CURVE SMOOTH",
"535 668 OFFCURVE",
"596 568 OFFCURVE",
"596 390 CURVE SMOOTH",
"596 212 OFFCURVE",
"535 112 OFFCURVE",
"400 112 CURVE SMOOTH"
);
}
);
width = 800;
}
);
leftKerningGroup = C;
rightKerningGroup = D;
unicode = 01A0;
},
{
color = 6;
glyphname = Oslash;
lastChange = "2022-02-18 13:14:15 +0000";
layers = (
{
anchors = (
{
name = _center;
position = "{395, 390}";
},
{
name = bottom;
position = "{395, 0}";
},
{
name = center;
position = "{395, 390}";
},
{
name = ogonek;
position = "{711, 10}";
},
{
name = top;
position = "{395, 780}";
},
{
name = topleft;
position = "{20, 780}";
},
{
name = topright;
position = "{770, 780}";
}
);
hints = (
{
horizontal = 1;
origin = "{0, 23}";
target = "{1, 13}";
type = Stem;
},
{
horizontal = 1;
origin = "{0, 11}";
target = "{2, 5}";
type = Stem;
},
{
origin = "{0, 14}";
target = "{2, 2}";
type = Stem;
},
{
origin = "{1, 10}";
target = "{0, 2}";
type = Stem;
}
);
layerId = "D6DAFCCC-80B4-447A-AB8D-F3640E986932";
paths = (
{
closed = 1;
nodes = (
"634 -14 OFFCURVE",
"748 143 OFFCURVE",
"748 390 CURVE SMOOTH",
"748 502 OFFCURVE",
"725 595 OFFCURVE",
"677 664 CURVE",
"757 758 LINE",
"700 808 LINE",
"626 720 LINE",
"569 768 OFFCURVE",
"492 794 OFFCURVE",
"395 794 CURVE SMOOTH",
"157 794 OFFCURVE",
"42 637 OFFCURVE",
"42 390 CURVE SMOOTH",
"42 278 OFFCURVE",
"65 185 OFFCURVE",
"113 116 CURVE",
"33 22 LINE",
"90 -28 LINE",
"165 60 LINE",
"221 12 OFFCURVE",
"298 -14 OFFCURVE",
"395 -14 CURVE SMOOTH"
);
},
{
closed = 1;
nodes = (
"324 76 OFFCURVE",
"270 98 OFFCURVE",
"231 138 CURVE",
"522 480 LINE",
"544 506 OFFCURVE",
"566 532 OFFCURVE",
"585 570 CURVE",
"609 570 LINE",
"627 512 OFFCURVE",
"634 456 OFFCURVE",
"634 390 CURVE SMOOTH",
"634 191 OFFCURVE",
"557 76 OFFCURVE",
"395 76 CURVE SMOOTH"
);
},
{
closed = 1;
nodes = (
"164 268 OFFCURVE",
"156 324 OFFCURVE",
"156 390 CURVE SMOOTH",
"156 589 OFFCURVE",
"232 704 OFFCURVE",
"395 704 CURVE SMOOTH",
"465 704 OFFCURVE",
"520 682 OFFCURVE",
"559 641 CURVE",
"268 300 LINE SMOOTH",
"246 274 OFFCURVE",
"224 248 OFFCURVE",
"208 216 CURVE",
"184 216 LINE"
);
}
);
width = 790;
},
{
anchors = (
{
name = _center;
position = "{400, 390}";
},
{
name = bottom;
position = "{400, 0}";
},
{
name = center;
position = "{400, 390}";
},
{
name = ogonek;
position = "{720, 10}";
},
{
name = top;
position = "{400, 780}";
},
{
name = topleft;
position = "{20, 780}";
},
{
name = topright;
position = "{780, 780}";
}
);
guideLines = (
{
position = "{514, 442}";
},
{
position = "{277, 338}";
}
);
layerId = "2C59C6D3-D4C2-4A05-8DF2-5125000072A2";
paths = (
{
closed = 1;
nodes = (
"650 -14 OFFCURVE",
"770 143 OFFCURVE",
"770 390 CURVE SMOOTH",
"770 502 OFFCURVE",
"745 595 OFFCURVE",
"695 664 CURVE",
"770 752 LINE",
"697 815 LINE",
"626 732 LINE",
"569 772 OFFCURVE",
"493 794 OFFCURVE",
"400 794 CURVE SMOOTH",
"151 794 OFFCURVE",
"30 637 OFFCURVE",
"30 390 CURVE SMOOTH",
"30 278 OFFCURVE",
"55 185 OFFCURVE",
"105 116 CURVE",
"30 28 LINE",
"103 -35 LINE",
"174 49 LINE",
"231 8 OFFCURVE",
"307 -14 OFFCURVE",
"400 -14 CURVE SMOOTH"
);
},
{
closed = 1;
nodes = (
"344 112 OFFCURVE",
"301 129 OFFCURVE",
"270 162 CURVE",
"508 442 LINE SMOOTH",
"526 464 OFFCURVE",
"544 485 OFFCURVE",
"561 519 CURVE",
"585 519 LINE",
"593 473 OFFCURVE",
"596 434 OFFCURVE",
"596 390 CURVE SMOOTH",
"596 212 OFFCURVE",
"535 112 OFFCURVE",
"400 112 CURVE SMOOTH"
);
},
{
closed = 1;
nodes = (
"206 307 OFFCURVE",
"204 346 OFFCURVE",
"204 390 CURVE SMOOTH",
"204 568 OFFCURVE",
"265 668 OFFCURVE",
"400 668 CURVE SMOOTH",
"456 668 OFFCURVE",
"499 651 OFFCURVE",
"530 618 CURVE",
"292 338 LINE SMOOTH",
"274 316 OFFCURVE",
"255 295 OFFCURVE",
"239 261 CURVE",
"215 261 LINE"
);
}
);
width = 800;
}
);
leftKerningGroup = C;
rightKerningGroup = D;
unicode = 00D8;
},
{
color = 6;
glyphname = OE;
lastChange = "2022-02-18 13:14:15 +0000";
layers = (
{
anchors = (
{
name = bottom;
position = "{520, 0}";
},
{
name = top;
position = "{520, 780}";
}
);
hints = (
{
horizontal = 1;
origin = "{0, 16}";
target = "{1, 8}";
type = Stem;
},
{
horizontal = 1;
origin = "{0, 3}";
target = "{0, 6}";
type = Stem;
},
{
horizontal = 1;
origin = "{0, 10}";
target = "{1, 5}";
type = Stem;
},
{
origin = "{0, 13}";
target = "{1, 2}";
type = Stem;
},
{
origin = "{1, 7}";
target = "{0, 2}";
type = Stem;
}
);
layerId = "D6DAFCCC-80B4-447A-AB8D-F3640E986932";
paths = (
{
closed = 1;
nodes = (
"986 0 LINE",
"986 94 LINE",
"630 94 LINE",
"630 376 LINE",
"898 376 LINE",
"898 467 LINE",
"630 467 LINE",
"630 686 LINE",
"980 686 LINE",
"980 780 LINE",
"426 780 LINE SMOOTH",
"156 780 OFFCURVE",
"42 637 OFFCURVE",
"42 390 CURVE SMOOTH",
"42 143 OFFCURVE",
"156 0 OFFCURVE",
"426 0 CURVE SMOOTH"
);
},
{
closed = 1;
nodes = (
"233 94 OFFCURVE",
"158 192 OFFCURVE",
"158 390 CURVE SMOOTH",
"158 588 OFFCURVE",
"233 686 OFFCURVE",
"436 686 CURVE SMOOTH",
"517 686 LINE",
"517 94 LINE",
"436 94 LINE SMOOTH"
);
}
);
width = 1040;
},
{
anchors = (
{
name = bottom;
position = "{510, 0}";
},
{
name = top;
position = "{510, 780}";
}
);
layerId = "2C59C6D3-D4C2-4A05-8DF2-5125000072A2";
paths = (
{
closed = 1;
nodes = (
"974 0 LINE",
"974 130 LINE",
"657 130 LINE",
"657 354 LINE",
"886 354 LINE",
"886 477 LINE",
"657 477 LINE",
"657 650 LINE",
"968 650 LINE",
"968 780 LINE",
"424 780 LINE SMOOTH",
"149 780 OFFCURVE",
"30 637 OFFCURVE",
"30 390 CURVE SMOOTH",
"30 143 OFFCURVE",
"149 0 OFFCURVE",
"424 0 CURVE SMOOTH"
);
},
{
closed = 1;
nodes = (
"283 129 OFFCURVE",
"202 189 OFFCURVE",
"202 390 CURVE SMOOTH",
"202 588 OFFCURVE",
"280 651 OFFCURVE",
"434 651 CURVE SMOOTH",
"495 651 LINE",
"495 129 LINE",
"434 129 LINE SMOOTH"
);
}
);
width = 1020;
}
);
leftKerningGroup = C;
rightKerningGroup = E;
unicode = 0152;
},
{
color = 6;
glyphname = P;
lastChange = "2022-02-18 13:14:15 +0000";
layers = (
{
hints = (
{
horizontal = 1;
origin = "{0, 10}";
target = up;
type = BottomGhost;
},
{
horizontal = 1;
origin = "{0, 1}";
target = "{1, 8}";
type = Stem;
},
{
horizontal = 1;
origin = "{0, 9}";
target = "{1, 0}";
type = Stem;
},
{
origin = "{0, 10}";
target = "{0, 0}";
type = Stem;
},
{
origin = "{1, 4}";
target = "{0, 5}";
type = Stem;
}
);
layerId = "D6DAFCCC-80B4-447A-AB8D-F3640E986932";
paths = (
{
closed = 1;
nodes = (
"202 0 LINE",
"202 328 LINE",
"368 328 LINE SMOOTH",
"567 328 OFFCURVE",
"654 417 OFFCURVE",
"654 554 CURVE SMOOTH",
"654 691 OFFCURVE",
"567 780 OFFCURVE",
"368 780 CURVE SMOOTH",
"90 780 LINE",
"90 0 LINE"
);
},
{
closed = 1;
nodes = (
"202 690 LINE",
"363 690 LINE SMOOTH",
"488 690 OFFCURVE",
"540 647 OFFCURVE",
"540 554 CURVE SMOOTH",
"540 461 OFFCURVE",
"488 418 OFFCURVE",
"363 418 CURVE SMOOTH",
"202 418 LINE"
);
}
);
width = 690;
},
{
layerId = "2C59C6D3-D4C2-4A05-8DF2-5125000072A2";
paths = (
{
closed = 1;
nodes = (
"242 0 LINE",
"242 311 LINE",
"402 311 LINE SMOOTH",
"603 311 OFFCURVE",
"690 403 OFFCURVE",
"690 546 CURVE SMOOTH",
"690 688 OFFCURVE",
"602 780 OFFCURVE",
"402 780 CURVE SMOOTH",
"76 780 LINE",
"76 0 LINE"
);
},
{
closed = 1;
nodes = (
"242 654 LINE",
"377 654 LINE SMOOTH",
"468 654 OFFCURVE",
"522 625 OFFCURVE",
"522 545 CURVE SMOOTH",
"522 464 OFFCURVE",
"468 437 OFFCURVE",
"377 437 CURVE SMOOTH",
"242 437 LINE"
);
}
);
width = 720;
}
);
leftKerningGroup = B;
rightKerningGroup = P;
unicode = 0050;
},
{
color = 6;
glyphname = Thorn;
lastChange = "2022-02-18 13:14:15 +0000";
layers = (
{
hints = (
{
horizontal = 1;
origin = "{0, 12}";
target = up;
type = BottomGhost;
},
{
horizontal = 1;
origin = "{0, 1}";
target = "{1, 8}";
type = Stem;
},
{
horizontal = 1;
origin = "{1, 0}";
target = "{0, 9}";
type = Stem;
},
{
horizontal = 1;
origin = "{0, 11}";
target = down;
type = TopGhost;
},
{
origin = "{0, 12}";
target = "{0, 0}";
type = Stem;
},
{
origin = "{1, 4}";
target = "{0, 5}";
type = Stem;
}
);
layerId = "D6DAFCCC-80B4-447A-AB8D-F3640E986932";
paths = (
{
closed = 1;
nodes = (
"202 0 LINE",
"202 161 LINE",
"374 161 LINE SMOOTH",
"573 161 OFFCURVE",
"660 253 OFFCURVE",
"660 395 CURVE SMOOTH",
"660 537 OFFCURVE",
"573 629 OFFCURVE",
"374 629 CURVE SMOOTH",
"202 629 LINE",
"202 780 LINE",
"90 780 LINE",
"90 0 LINE"
);
},
{
closed = 1;
nodes = (
"202 535 LINE",
"369 535 LINE SMOOTH",
"494 535 OFFCURVE",
"545 490 OFFCURVE",
"545 394 CURVE SMOOTH",
"545 298 OFFCURVE",
"494 253 OFFCURVE",
"369 253 CURVE SMOOTH",
"202 253 LINE"
);
}
);
width = 696;
},
{
layerId = "2C59C6D3-D4C2-4A05-8DF2-5125000072A2";
paths = (
{
closed = 1;
nodes = (
"244 0 LINE",
"244 158 LINE",
"404 158 LINE SMOOTH",
"605 158 OFFCURVE",
"692 251 OFFCURVE",
"692 395 CURVE SMOOTH",
"692 539 OFFCURVE",
"604 632 OFFCURVE",
"404 632 CURVE SMOOTH",
"244 632 LINE",
"244 780 LINE",
"76 780 LINE",
"76 0 LINE"
);
},
{
closed = 1;
nodes = (
"244 505 LINE",
"377 505 LINE SMOOTH",
"466 505 OFFCURVE",
"520 478 OFFCURVE",
"520 394 CURVE SMOOTH",
"520 310 OFFCURVE",
"466 283 OFFCURVE",
"377 283 CURVE SMOOTH",
"244 283 LINE"
);
}
);
width = 722;
}
);
leftKerningGroup = B;
leftMetricsKey = H;
rightKerningGroup = Thorn;
unicode = 00DE;
},
{
color = 6;
glyphname = Q;
lastChange = "2022-02-18 13:14:15 +0000";
layers = (
{
hints = (
{
horizontal = 1;
origin = "{0, 11}";
target = "{1, 11}";
type = Stem;
},
{
horizontal = 1;
origin = "{0, 5}";
target = "{1, 5}";
type = Stem;
},
{
origin = "{0, 8}";
target = "{1, 2}";
type = Stem;
},
{
origin = "{1, 8}";
target = "{0, 2}";
type = Stem;
},
{
horizontal = 1;
origin = "{2, 4}";
target = up;
type = BottomGhost;
}
);
layerId = "D6DAFCCC-80B4-447A-AB8D-F3640E986932";
paths = (
{
closed = 1;
nodes = (
"634 -14 OFFCURVE",
"748 143 OFFCURVE",
"748 390 CURVE SMOOTH",
"748 637 OFFCURVE",
"634 794 OFFCURVE",
"395 794 CURVE SMOOTH",
"157 794 OFFCURVE",
"42 637 OFFCURVE",
"42 390 CURVE SMOOTH",
"42 143 OFFCURVE",
"157 -14 OFFCURVE",
"395 -14 CURVE SMOOTH"
);
},
{
closed = 1;
nodes = (
"232 76 OFFCURVE",
"156 191 OFFCURVE",
"156 390 CURVE SMOOTH",
"156 589 OFFCURVE",
"232 704 OFFCURVE",
"395 704 CURVE SMOOTH",
"557 704 OFFCURVE",
"634 589 OFFCURVE",
"634 390 CURVE SMOOTH",
"634 191 OFFCURVE",
"557 76 OFFCURVE",
"395 76 CURVE SMOOTH"
);
},
{
closed = 1;
nodes = (
"688 -150 LINE",
"688 -144 LINE",
"529 60 LINE",
"438 12 LINE",
"564 -150 LINE"
);
}
);
width = 790;
},
{
layerId = "2C59C6D3-D4C2-4A05-8DF2-5125000072A2";
paths = (
{
closed = 1;
nodes = (
"650 -14 OFFCURVE",
"770 143 OFFCURVE",
"770 390 CURVE SMOOTH",
"770 637 OFFCURVE",
"650 794 OFFCURVE",
"400 794 CURVE SMOOTH",
"151 794 OFFCURVE",
"30 637 OFFCURVE",
"30 390 CURVE SMOOTH",
"30 143 OFFCURVE",
"151 -14 OFFCURVE",
"400 -14 CURVE SMOOTH"
);
},
{
closed = 1;
nodes = (
"265 112 OFFCURVE",
"204 212 OFFCURVE",
"204 390 CURVE SMOOTH",
"204 568 OFFCURVE",
"265 668 OFFCURVE",
"400 668 CURVE SMOOTH",
"535 668 OFFCURVE",
"596 568 OFFCURVE",
"596 390 CURVE SMOOTH",
"596 212 OFFCURVE",
"535 112 OFFCURVE",
"400 112 CURVE SMOOTH"
);
},
{
closed = 1;
nodes = (
"714 -150 LINE",
"714 -144 LINE",
"563 49 LINE",
"371 49 LINE",
"528 -150 LINE"
);
}
);
width = 800;
}
);
leftKerningGroup = C;
rightKerningGroup = D;
unicode = 0051;
},
{
color = 6;
glyphname = R;
lastChange = "2022-02-18 13:14:15 +0000";
layers = (
{
anchors = (
{
name = bottom;
position = "{372, 60}";
},
{
name = top;
position = "{330, 780}";
}
);
hints = (
{
horizontal = 1;
origin = "{0, 14}";
target = up;
type = BottomGhost;
},
{
horizontal = 1;
origin = "{0, 1}";
target = "{1, 8}";
type = Stem;
},
{
horizontal = 1;
origin = "{0, 13}";
target = "{1, 0}";
type = Stem;
},
{
origin = "{0, 14}";
target = "{0, 0}";
type = Stem;
},
{
origin = "{1, 4}";
target = "{0, 9}";
type = Stem;
}
);
layerId = "D6DAFCCC-80B4-447A-AB8D-F3640E986932";
paths = (
{
closed = 1;
nodes = (
"200 0 LINE",
"200 357 LINE",
"375 357 LINE",
"558 0 LINE",
"676 0 LINE",
"676 6 LINE",
"486 372 LINE",
"596 398 OFFCURVE",
"654 471 OFFCURVE",
"654 572 CURVE SMOOTH",
"654 687 OFFCURVE",
"578 780 OFFCURVE",
"381 780 CURVE SMOOTH",
"90 780 LINE",
"90 0 LINE"
);
},
{
closed = 1;
nodes = (
"200 690 LINE",
"374 690 LINE SMOOTH",
"494 690 OFFCURVE",
"540 647 OFFCURVE",
"540 567 CURVE SMOOTH",
"540 488 OFFCURVE",
"494 443 OFFCURVE",
"374 443 CURVE SMOOTH",
"200 443 LINE"
);
}
);
width = 700;
},
{
anchors = (
{
name = bottom;
position = "{390, 60}";
},
{
name = top;
position = "{342, 780}";
}
);
layerId = "2C59C6D3-D4C2-4A05-8DF2-5125000072A2";
paths = (
{
closed = 1;
nodes = (
"242 0 LINE",
"242 330 LINE",
"375 330 LINE",
"534 0 LINE",
"712 0 LINE",
"712 6 LINE",
"537 354 LINE",
"638 384 OFFCURVE",
"691 460 OFFCURVE",
"691 559 CURVE SMOOTH",
"691 688 OFFCURVE",
"606 780 OFFCURVE",
"407 780 CURVE SMOOTH",
"76 780 LINE",
"76 0 LINE"
);
},
{
closed = 1;
nodes = (
"242 654 LINE",
"383 654 LINE SMOOTH",
"468 654 OFFCURVE",
"521 630 OFFCURVE",
"521 553 CURVE SMOOTH",
"521 477 OFFCURVE",
"470 452 OFFCURVE",
"383 452 CURVE SMOOTH",
"242 452 LINE"
);
}
);
width = 730;
},
{
anchors = (
{
name = bottom;
position = "{372, 0}";
},
{
name = top;
position = "{360, 780}";
}
);
associatedMasterId = "D6DAFCCC-80B4-447A-AB8D-F3640E986932";
hints = (
{
horizontal = 1;
origin = "{0, 14}";
target = up;
type = BottomGhost;
},
{
horizontal = 1;
origin = "{0, 1}";
target = "{1, 8}";
type = Stem;
},
{
horizontal = 1;
origin = "{0, 13}";
target = "{1, 0}";
type = Stem;
},
{
origin = "{0, 14}";
target = "{0, 0}";
type = Stem;
},
{
origin = "{1, 4}";
target = "{0, 9}";
type = Stem;
}
);
layerId = "E7A5AE34-823D-40FF-A809-8A70F60E77A9";
name = "23 Aug 21, 08:03";
paths = (
{
closed = 1;
nodes = (
"200 0 LINE",
"200 357 LINE",
"375 357 LINE",
"558 0 LINE",
"676 0 LINE",
"676 6 LINE",
"486 372 LINE",
"596 398 OFFCURVE",
"654 471 OFFCURVE",
"654 572 CURVE SMOOTH",
"654 687 OFFCURVE",
"578 780 OFFCURVE",
"381 780 CURVE SMOOTH",
"90 780 LINE",
"90 0 LINE"
);
},
{
closed = 1;
nodes = (
"200 684 LINE",
"374 684 LINE SMOOTH",
"494 684 OFFCURVE",
"540 643 OFFCURVE",
"540 567 CURVE SMOOTH",
"540 492 OFFCURVE",
"494 449 OFFCURVE",
"374 449 CURVE SMOOTH",
"200 449 LINE"
);
}
);
width = 700;
}
);
leftKerningGroup = B;
rightKerningGroup = R;
unicode = 0052;
},
{
color = 6;
glyphname = S;
lastChange = "2022-02-18 13:14:15 +0000";
layers = (
{
anchors = (
{
name = bottom;
position = "{362, 0}";
},
{
name = top;
position = "{327, 780}";
}
);
background = {
paths = (
{
closed = 1;
nodes = (
"520 -14 OFFCURVE",
"637 67 OFFCURVE",
"637 211 CURVE SMOOTH",
"637 493 OFFCURVE",
"185 404 OFFCURVE",
"185 598 CURVE SMOOTH",
"185 665 OFFCURVE",
"240 704 OFFCURVE",
"326 704 CURVE SMOOTH",
"442 704 OFFCURVE",
"488 634 OFFCURVE",
"494 560 CURVE",
"602 560 LINE",
"593 687 OFFCURVE",
"511 794 OFFCURVE",
"330 794 CURVE SMOOTH",
"180 794 OFFCURVE",
"77 719 OFFCURVE",
"77 588 CURVE SMOOTH",
"77 315 OFFCURVE",
"529 398 OFFCURVE",
"529 200 CURVE SMOOTH",
"529 122 OFFCURVE",
"460 76 OFFCURVE",
"357 76 CURVE SMOOTH",
"213 76 OFFCURVE",
"145 167 OFFCURVE",
"139 260 CURVE",
"31 260 LINE",
"41 106 OFFCURVE",
"146 -14 OFFCURVE",
"352 -14 CURVE SMOOTH"
);
}
);
};
guideLines = (
{
angle = 71.357;
position = "{303, 366}";
},
{
angle = 71.43;
position = "{411, 438}";
},
{
angle = 161.43;
position = "{411, 438}";
},
{
angle = 161.357;
position = "{303, 366}";
}
);
hints = (
{
horizontal = 1;
origin = "{0, 39}";
target = "{0, 32}";
type = Stem;
},
{
horizontal = 1;
origin = "{0, 19}";
target = "{0, 12}";
type = Stem;
},
{
origin = "{0, 22}";
target = "{0, 9}";
type = Stem;
},
{
origin = "{0, 29}";
target = "{0, 2}";
type = Stem;
},
{
horizontal = 1;
origin = "{0, 15}";
target = up;
type = BottomGhost;
},
{
horizontal = 1;
origin = "{0, 36}";
target = down;
type = TopGhost;
}
);
layerId = "D6DAFCCC-80B4-447A-AB8D-F3640E986932";
paths = (
{
closed = 1;
nodes = (
"523 -15 OFFCURVE",
"632 67 OFFCURVE",
"632 211 CURVE SMOOTH",
"632 352 OFFCURVE",
"524 400 OFFCURVE",
"411 437 CURVE SMOOTH",
"335 462 LINE SMOOTH",
"252 489 OFFCURVE",
"184 523 OFFCURVE",
"184 598 CURVE SMOOTH",
"184 665 OFFCURVE",
"239 705 OFFCURVE",
"325 705 CURVE SMOOTH",
"442 705 OFFCURVE",
"488 634 OFFCURVE",
"494 560 CURVE",
"602 560 LINE",
"593 687 OFFCURVE",
"511 795 OFFCURVE",
"329 795 CURVE SMOOTH",
"179 795 OFFCURVE",
"76 719 OFFCURVE",
"76 588 CURVE SMOOTH",
"76 452 OFFCURVE",
"190 404 OFFCURVE",
"303 366 CURVE SMOOTH",
"378 341 LINE SMOOTH",
"462 313 OFFCURVE",
"524 277 OFFCURVE",
"524 200 CURVE SMOOTH",
"524 122 OFFCURVE",
"463 75 OFFCURVE",
"362 75 CURVE SMOOTH",
"222 75 OFFCURVE",
"154 167 OFFCURVE",
"148 260 CURVE",
"40 260 LINE",
"50 106 OFFCURVE",
"155 -15 OFFCURVE",
"357 -15 CURVE SMOOTH"
);
}
);
width = 680;
},
{
anchors = (
{
name = bottom;
position = "{355, 0}";
},
{
name = top;
position = "{340, 780}";
}
);
guideLines = (
{
angle = 71.357;
position = "{442, 452}";
},
{
angle = 71.357;
position = "{283, 353}";
},
{
angle = 161.357;
position = "{442, 452}";
},
{
angle = 161.357;
position = "{283, 353}";
}
);
layerId = "2C59C6D3-D4C2-4A05-8DF2-5125000072A2";
paths = (
{
closed = 1;
nodes = (
"550 -15 OFFCURVE",
"658 73 OFFCURVE",
"658 219 CURVE SMOOTH",
"658 363 OFFCURVE",
"551 415 OFFCURVE",
"442 452 CURVE SMOOTH",
"329 490 LINE SMOOTH",
"267 511 OFFCURVE",
"228 539 OFFCURVE",
"228 590 CURVE SMOOTH",
"228 637 OFFCURVE",
"263 671 OFFCURVE",
"336 671 CURVE SMOOTH",
"434 671 OFFCURVE",
"468 616 OFFCURVE",
"472 560 CURVE",
"628 560 LINE",
"616 675 OFFCURVE",
"550 795 OFFCURVE",
"343 795 CURVE SMOOTH",
"180 795 OFFCURVE",
"66 719 OFFCURVE",
"66 579 CURVE SMOOTH",
"66 442 OFFCURVE",
"175 389 OFFCURVE",
"283 353 CURVE SMOOTH",
"396 315 LINE SMOOTH",
"456 295 OFFCURVE",
"496 262 OFFCURVE",
"496 207 CURVE SMOOTH",
"496 149 OFFCURVE",
"454 111 OFFCURVE",
"368 111 CURVE SMOOTH",
"247 111 OFFCURVE",
"190 182 OFFCURVE",
"186 255 CURVE",
"30 255 LINE",
"39 132 OFFCURVE",
"119 -15 OFFCURVE",
"363 -15 CURVE SMOOTH"
);
}
);
width = 700;
},
{
anchors = (
{
name = bottom;
position = "{362, 0}";
},
{
name = top;
position = "{327, 780}";
}
);
associatedMasterId = "D6DAFCCC-80B4-447A-AB8D-F3640E986932";
guideLines = (
{
angle = 71.357;
position = "{303, 366}";
},
{
angle = 71.43;
position = "{411, 438}";
},
{
angle = 161.43;
position = "{411, 438}";
},
{
angle = 161.357;
position = "{303, 366}";
}
);
hints = (
{
horizontal = 1;
origin = "{0, 31}";
target = "{0, 24}";
type = Stem;
},
{
horizontal = 1;
origin = "{0, 15}";
target = "{0, 8}";
type = Stem;
},
{
origin = "{0, 18}";
target = "{0, 5}";
type = Stem;
},
{
origin = "{0, 21}";
target = "{0, 2}";
type = Stem;
}
);
layerId = "0BC7384E-D1FC-4F17-9D08-24D4D26ECD1D";
name = "20 Aug 21, 13:47";
paths = (
{
closed = 1;
nodes = (
"520 -14 OFFCURVE",
"637 67 OFFCURVE",
"637 211 CURVE SMOOTH",
"637 493 OFFCURVE",
"185 404 OFFCURVE",
"185 598 CURVE SMOOTH",
"185 665 OFFCURVE",
"240 704 OFFCURVE",
"326 704 CURVE SMOOTH",
"442 704 OFFCURVE",
"488 634 OFFCURVE",
"494 560 CURVE",
"602 560 LINE",
"593 687 OFFCURVE",
"511 794 OFFCURVE",
"330 794 CURVE SMOOTH",
"180 794 OFFCURVE",
"77 719 OFFCURVE",
"77 588 CURVE SMOOTH",
"77 315 OFFCURVE",
"529 398 OFFCURVE",
"529 200 CURVE SMOOTH",
"529 122 OFFCURVE",
"460 76 OFFCURVE",
"357 76 CURVE SMOOTH",
"213 76 OFFCURVE",
"145 167 OFFCURVE",
"139 260 CURVE",
"31 260 LINE",
"41 106 OFFCURVE",
"146 -14 OFFCURVE",
"352 -14 CURVE SMOOTH"
);
}
);
width = 680;
},
{
anchors = (
{
name = bottom;
position = "{355, 0}";
},
{
name = top;
position = "{340, 780}";
}
);
associatedMasterId = "2C59C6D3-D4C2-4A05-8DF2-5125000072A2";
layerId = "B2F0E2FB-C067-4DB7-94B2-4D40E5D623BE";
name = "20 Aug 21, 13:51";
paths = (
{
closed = 1;
nodes = (
"550 -14 OFFCURVE",
"662 71 OFFCURVE",
"662 217 CURVE SMOOTH",
"662 505 OFFCURVE",
"223 429 OFFCURVE",
"223 590 CURVE SMOOTH",
"223 639 OFFCURVE",
"263 670 OFFCURVE",
"335 670 CURVE SMOOTH",
"431 670 OFFCURVE",
"465 616 OFFCURVE",
"469 555 CURVE",
"627 555 LINE",
"615 675 OFFCURVE",
"549 794 OFFCURVE",
"343 794 CURVE SMOOTH",
"180 794 OFFCURVE",
"64 721 OFFCURVE",
"64 581 CURVE SMOOTH",
"64 307 OFFCURVE",
"503 378 OFFCURVE",
"503 204 CURVE SMOOTH",
"503 146 OFFCURVE",
"454 111 OFFCURVE",
"369 111 CURVE SMOOTH",
"249 111 OFFCURVE",
"192 182 OFFCURVE",
"188 255 CURVE",
"30 255 LINE",
"39 132 OFFCURVE",
"119 -14 OFFCURVE",
"363 -14 CURVE SMOOTH"
);
}
);
width = 700;
}
);
leftKerningGroup = S;
rightKerningGroup = S;
unicode = 0053;
},
{
color = 6;
glyphname = Germandbls;
lastChange = "2022-02-18 13:14:15 +0000";
layers = (
{
hints = (
{
horizontal = 1;
origin = "{0, 40}";
target = "{0, 33}";
type = Stem;
},
{
horizontal = 1;
origin = "{0, 11}";
target = "{0, 20}";
type = Stem;
},
{
horizontal = 1;
origin = "{0, 15}";
target = up;
type = BottomGhost;
},
{
origin = "{0, 15}";
target = "{0, 16}";
type = Stem;
},
{
origin = "{0, 26}";
target = "{0, 5}";
type = Stem;
},
{
origin = "{0, 30}";
target = "{0, 2}";
type = Stem;
}
);
layerId = "D6DAFCCC-80B4-447A-AB8D-F3640E986932";
paths = (
{
closed = 1;
nodes = (
"728 -13 OFFCURVE",
"832 88 OFFCURVE",
"832 235 CURVE SMOOTH",
"832 355 OFFCURVE",
"763 438 OFFCURVE",
"612 466 CURVE",
"612 490 LINE",
"756 638 LINE",
"756 724 LINE",
"661 771 OFFCURVE",
"568 794 OFFCURVE",
"459 794 CURVE SMOOTH",
"135 794 OFFCURVE",
"84 598 OFFCURVE",
"84 441 CURVE SMOOTH",
"84 0 LINE",
"195 0 LINE",
"195 438 LINE SMOOTH",
"195 581 OFFCURVE",
"252 708 OFFCURVE",
"455 708 CURVE SMOOTH",
"532 708 OFFCURVE",
"597 690 OFFCURVE",
"641 668 CURVE",
"641 644 LINE",
"492 486 LINE",
"492 396 LINE",
"520 396 LINE SMOOTH",
"648 396 OFFCURVE",
"724 332 OFFCURVE",
"724 228 CURVE SMOOTH",
"724 143 OFFCURVE",
"673 77 OFFCURVE",
"571 77 CURVE SMOOTH",
"466 77 OFFCURVE",
"400 146 OFFCURVE",
"390 240 CURVE",
"282 240 LINE",
"287 129 OFFCURVE",
"370 -13 OFFCURVE",
"564 -13 CURVE SMOOTH"
);
}
);
width = 880;
},
{
layerId = "2C59C6D3-D4C2-4A05-8DF2-5125000072A2";
paths = (
{
closed = 1;
nodes = (
"758 -13 OFFCURVE",
"868 84 OFFCURVE",
"868 232 CURVE SMOOTH",
"868 357 OFFCURVE",
"789 429 OFFCURVE",
"673 449 CURVE",
"673 473 LINE",
"801 607 LINE",
"801 717 LINE",
"722 765 OFFCURVE",
"624 794 OFFCURVE",
"482 794 CURVE SMOOTH",
"211 794 OFFCURVE",
"75 679 OFFCURVE",
"74 432 CURVE SMOOTH",
"72 0 LINE",
"238 0 LINE",
"238 427 LINE SMOOTH",
"238 586 OFFCURVE",
"327 668 OFFCURVE",
"475 668 CURVE SMOOTH",
"553 668 OFFCURVE",
"604 653 OFFCURVE",
"642 632 CURVE",
"641 609 LINE",
"505 470 LINE",
"505 360 LINE",
"539 360 LINE SMOOTH",
"642 360 OFFCURVE",
"711 312 OFFCURVE",
"711 229 CURVE SMOOTH",
"711 165 OFFCURVE",
"670 113 OFFCURVE",
"588 113 CURVE SMOOTH",
"500 113 OFFCURVE",
"456 173 OFFCURVE",
"451 240 CURVE",
"298 240 LINE",
"298 110 OFFCURVE",
"392 -13 OFFCURVE",
"586 -13 CURVE SMOOTH"
);
}
);
width = 910;
}
);
leftKerningGroup = Germandbls;
rightKerningGroup = Germandbls;
unicode = 1E9E;
},
{
color = 6;
glyphname = T;
lastChange = "2022-02-18 13:14:15 +0000";
layers = (
{
anchors = (
{
name = bottom;
position = "{345, 0}";
},
{
name = center;
position = "{345, 416}";
},
{
name = top;
position = "{345, 780}";
}
);
hints = (
{
horizontal = 1;
origin = "{0, 7}";
target = up;
type = BottomGhost;
},
{
horizontal = 1;
origin = "{0, 4}";
target = "{0, 5}";
type = Stem;
},
{
origin = "{0, 7}";
target = "{0, 0}";
type = Stem;
}
);
layerId = "D6DAFCCC-80B4-447A-AB8D-F3640E986932";
paths = (
{
closed = 1;
nodes = (
"401 0 LINE",
"401 686 LINE",
"660 686 LINE",
"660 780 LINE",
"30 780 LINE",
"30 686 LINE",
"289 686 LINE",
"289 0 LINE"
);
}
);
width = 690;
},
{
anchors = (
{
name = bottom;
position = "{345, 0}";
},
{
name = center;
position = "{345, 410}";
},
{
name = top;
position = "{345, 780}";
}
);
layerId = "2C59C6D3-D4C2-4A05-8DF2-5125000072A2";
paths = (
{
closed = 1;
nodes = (
"429 0 LINE",
"429 648 LINE",
"660 648 LINE",
"660 780 LINE",
"30 780 LINE",
"30 648 LINE",
"261 648 LINE",
"261 0 LINE"
);
}
);
width = 690;
}
);
leftKerningGroup = T;
rightKerningGroup = T;
unicode = 0054;
},
{
color = 6;
glyphname = U;
lastChange = "2022-02-18 13:14:15 +0000";
layers = (
{
anchors = (
{
name = bottom;
position = "{390, 0}";
},
{
name = ogonek;
position = "{498, 0}";
},
{
name = top;
position = "{390, 720}";
},
{
name = topright;
position = "{698, 780}";
}
);
hints = (
{
horizontal = 1;
origin = "{0, 17}";
target = "{0, 8}";
type = Stem;
},
{
horizontal = 1;
origin = "{0, 13}";
target = down;
type = TopGhost;
},
{
origin = "{0, 14}";
target = "{0, 11}";
type = Stem;
},
{
origin = "{0, 5}";
target = "{0, 2}";
type = Stem;
}
);
layerId = "D6DAFCCC-80B4-447A-AB8D-F3640E986932";
paths = (
{
closed = 1;
nodes = (
"605 -14 OFFCURVE",
"698 105 OFFCURVE",
"698 323 CURVE SMOOTH",
"698 780 LINE",
"588 780 LINE",
"588 318 LINE SMOOTH",
"588 150 OFFCURVE",
"527 76 OFFCURVE",
"391 76 CURVE SMOOTH",
"255 76 OFFCURVE",
"194 150 OFFCURVE",
"194 318 CURVE SMOOTH",
"194 780 LINE",
"80 780 LINE",
"80 323 LINE SMOOTH",
"80 105 OFFCURVE",
"175 -14 OFFCURVE",
"389 -14 CURVE SMOOTH"
);
}
);
width = 780;
},
{
anchors = (
{
name = bottom;
position = "{401, 0}";
},
{
name = ogonek;
position = "{519, 0}";
},
{
name = top;
position = "{401, 780}";
},
{
name = topright;
position = "{740, 780}";
}
);
layerId = "2C59C6D3-D4C2-4A05-8DF2-5125000072A2";
paths = (
{
closed = 1;
nodes = (
"627 -15 OFFCURVE",
"734 105 OFFCURVE",
"734 323 CURVE SMOOTH",
"734 780 LINE",
"568 780 LINE",
"568 328 LINE SMOOTH",
"568 200 OFFCURVE",
"527 124 OFFCURVE",
"402 124 CURVE SMOOTH",
"278 124 OFFCURVE",
"236 200 OFFCURVE",
"236 328 CURVE SMOOTH",
"236 780 LINE",
"66 780 LINE",
"66 323 LINE SMOOTH",
"66 105 OFFCURVE",
"175 -15 OFFCURVE",
"400 -15 CURVE SMOOTH"
);
}
);
width = 800;
}
);
leftKerningGroup = U;
rightKerningGroup = U;
unicode = 0055;
},
{
color = 6;
glyphname = Uhorn;
lastChange = "2022-02-18 13:14:15 +0000";
layers = (
{
anchors = (
{
name = bottom;
position = "{390, 0}";
},
{
name = top;
position = "{390, 720}";
}
);
hints = (
{
horizontal = 1;
origin = "{0, 27}";
target = "{0, 18}";
type = Stem;
},
{
horizontal = 1;
origin = "{0, 23}";
target = down;
type = TopGhost;
},
{
origin = "{0, 24}";
target = "{0, 21}";
type = Stem;
},
{
origin = "{0, 15}";
target = "{0, 2}";
type = Stem;
},
{
origin = "{0, 8}";
target = "{0, 7}";
type = Stem;
},
{
horizontal = 1;
origin = "{0, 8}";
target = down;
type = TopGhost;
},
{
horizontal = 1;
origin = "{0, 12}";
target = down;
type = TopGhost;
}
);
layerId = "D6DAFCCC-80B4-447A-AB8D-F3640E986932";
paths = (
{
closed = 1;
nodes = (
"605 -14 OFFCURVE",
"698 105 OFFCURVE",
"698 323 CURVE SMOOTH",
"698 633 LINE",
"708 634 LINE SMOOTH",
"816 645 OFFCURVE",
"860 731 OFFCURVE",
"860 840 CURVE",
"776 840 LINE",
"776 773 OFFCURVE",
"757 708 OFFCURVE",
"713 690 CURVE",
"689 690 LINE",
"689 780 LINE",
"588 780 LINE",
"588 318 LINE SMOOTH",
"588 150 OFFCURVE",
"527 76 OFFCURVE",
"391 76 CURVE SMOOTH",
"255 76 OFFCURVE",
"194 150 OFFCURVE",
"194 318 CURVE SMOOTH",
"194 780 LINE",
"80 780 LINE",
"80 323 LINE SMOOTH",
"80 105 OFFCURVE",
"175 -14 OFFCURVE",
"389 -14 CURVE SMOOTH"
);
}
);
width = 840;
},
{
anchors = (
{
name = bottom;
position = "{410, 0}";
},
{
name = top;
position = "{410, 780}";
}
);
layerId = "2C59C6D3-D4C2-4A05-8DF2-5125000072A2";
paths = (
{
closed = 1;
nodes = (
"627 -15 OFFCURVE",
"734 105 OFFCURVE",
"734 323 CURVE SMOOTH",
"734 624 LINE",
"740 624 LINE SMOOTH",
"851 624 OFFCURVE",
"907 710 OFFCURVE",
"896 840 CURVE",
"775 840 LINE",
"777 786 OFFCURVE",
"770 744 OFFCURVE",
"738 724 CURVE",
"714 724 LINE",
"714 780 LINE",
"568 780 LINE",
"568 328 LINE SMOOTH",
"568 200 OFFCURVE",
"527 124 OFFCURVE",
"402 124 CURVE SMOOTH",
"278 124 OFFCURVE",
"236 200 OFFCURVE",
"236 328 CURVE SMOOTH",
"236 780 LINE",
"66 780 LINE",
"66 323 LINE SMOOTH",
"66 105 OFFCURVE",
"175 -15 OFFCURVE",
"400 -15 CURVE SMOOTH"
);
}
);
width = 860;
}
);
leftKerningGroup = U;
rightKerningGroup = U;
unicode = 01AF;
},
{
color = 6;
glyphname = V;
lastChange = "2022-02-18 13:14:15 +0000";
layers = (
{
hints = (
{
horizontal = 1;
origin = "{0, 9}";
target = "{0, 5}";
type = Stem;
},
{
horizontal = 1;
origin = "{0, 7}";
target = down;
type = TopGhost;
},
{
horizontal = 1;
origin = "{0, 9}";
target = up;
type = BottomGhost;
}
);
layerId = "D6DAFCCC-80B4-447A-AB8D-F3640E986932";
paths = (
{
closed = 1;
nodes = (
"454 0 LINE",
"704 774 LINE",
"704 780 LINE",
"594 780 LINE",
"377 96 LINE",
"353 96 LINE",
"134 780 LINE",
"16 780 LINE",
"16 774 LINE",
"266 0 LINE"
);
}
);
width = 720;
},
{
layerId = "2C59C6D3-D4C2-4A05-8DF2-5125000072A2";
paths = (
{
closed = 1;
nodes = (
"507 0 LINE",
"742 774 LINE",
"742 780 LINE",
"580 780 LINE",
"392 144 LINE",
"368 144 LINE",
"178 780 LINE",
"8 780 LINE",
"8 774 LINE",
"243 0 LINE"
);
}
);
width = 750;
}
);
leftKerningGroup = V;
rightKerningGroup = V;
unicode = 0056;
},
{
color = 6;
glyphname = W;
lastChange = "2022-02-18 13:14:15 +0000";
layers = (
{
anchors = (
{
name = bottom;
position = "{541, 0}";
},
{
name = top;
position = "{543, 780}";
}
);
hints = (
{
horizontal = 1;
origin = "{0, 17}";
target = "{0, 13}";
type = Stem;
},
{
horizontal = 1;
origin = "{0, 15}";
target = "{0, 1}";
type = Stem;
},
{
horizontal = 1;
origin = "{0, 14}";
target = down;
type = TopGhost;
},
{
horizontal = 1;
origin = "{0, 17}";
target = up;
type = BottomGhost;
}
);
layerId = "D6DAFCCC-80B4-447A-AB8D-F3640E986932";
paths = (
{
closed = 1;
nodes = (
"376 0 LINE",
"528 695 LINE",
"552 695 LINE",
"705 0 LINE",
"900 0 LINE",
"1047 774 LINE",
"1047 780 LINE",
"943 780 LINE",
"815 84 LINE",
"791 84 LINE",
"638 780 LINE",
"448 780 LINE",
"297 84 LINE",
"273 84 LINE",
"143 780 LINE",
"33 780 LINE",
"33 774 LINE",
"182 0 LINE"
);
}
);
width = 1080;
},
{
anchors = (
{
name = bottom;
position = "{555, 0}";
},
{
name = top;
position = "{560, 780}";
}
);
layerId = "2C59C6D3-D4C2-4A05-8DF2-5125000072A2";
paths = (
{
closed = 1;
nodes = (
"431 0 LINE",
"543 648 LINE",
"567 648 LINE",
"679 0 LINE",
"969 0 LINE",
"1082 774 LINE",
"1082 780 LINE",
"928 780 LINE",
"836 132 LINE",
"812 132 LINE",
"699 780 LINE",
"421 780 LINE",
"309 132 LINE",
"285 132 LINE",
"192 780 LINE",
"28 780 LINE",
"28 774 LINE",
"141 0 LINE"
);
}
);
width = 1110;
}
);
leftKerningGroup = W;
rightKerningGroup = W;
unicode = 0057;
},
{
color = 6;
glyphname = X;
lastChange = "2022-02-18 13:14:15 +0000";
layers = (
{
hints = (
{
horizontal = 1;
origin = "{0, 17}";
target = up;
type = BottomGhost;
},
{
horizontal = 1;
origin = "{0, 13}";
target = down;
type = TopGhost;
}
);
layerId = "D6DAFCCC-80B4-447A-AB8D-F3640E986932";
paths = (
{
closed = 1;
nodes = (
"142 0 LINE",
"343 344 LINE",
"363 344 LINE",
"566 0 LINE",
"692 0 LINE",
"692 6 LINE",
"438 417 LINE",
"654 774 LINE",
"654 780 LINE",
"538 780 LINE",
"367 492 LINE",
"347 492 LINE",
"174 780 LINE",
"56 780 LINE",
"56 774 LINE",
"272 417 LINE",
"18 6 LINE",
"18 0 LINE"
);
}
);
width = 710;
},
{
layerId = "2C59C6D3-D4C2-4A05-8DF2-5125000072A2";
paths = (
{
closed = 1;
nodes = (
"194 0 LINE",
"360 309 LINE",
"384 309 LINE",
"548 0 LINE",
"734 0 LINE",
"734 6 LINE",
"506 414 LINE",
"702 774 LINE",
"702 780 LINE",
"530 780 LINE",
"393 519 LINE",
"369 519 LINE",
"228 780 LINE",
"49 780 LINE",
"49 774 LINE",
"246 414 LINE",
"16 6 LINE",
"16 0 LINE"
);
}
);
width = 750;
}
);
leftKerningGroup = X;
rightKerningGroup = X;
unicode = 0058;
},
{
color = 6;
glyphname = Y;
lastChange = "2022-02-18 13:14:15 +0000";
layers = (
{
anchors = (
{
name = bottom;
position = "{320, 0}";
},
{
name = top;
position = "{322, 750}";
},
{
name = topleft;
position = "{14, 780}";
}
);
guideLines = (
{
position = "{342, 552}";
}
);
hints = (
{
horizontal = 1;
origin = "{0, 17}";
target = up;
type = BottomGhost;
},
{
horizontal = 1;
origin = "{0, 14}";
target = down;
type = TopGhost;
},
{
origin = "{0, 17}";
target = "{0, 0}";
type = Stem;
}
);
layerId = "D6DAFCCC-80B4-447A-AB8D-F3640E986932";
paths = (
{
closed = 1;
nodes = (
"376 0 LINE",
"376 334 LINE",
"628 774 LINE",
"628 780 LINE",
"515 780 LINE",
"387 552 LINE",
"370 522 OFFCURVE",
"357 492 OFFCURVE",
"340 450 CURVE",
"316 450 LINE",
"299 492 OFFCURVE",
"285 522 OFFCURVE",
"268 552 CURVE",
"138 780 LINE",
"12 780 LINE",
"12 774 LINE",
"264 336 LINE",
"264 0 LINE"
);
}
);
width = 640;
},
{
anchors = (
{
name = bottom;
position = "{340, 0}";
},
{
name = top;
position = "{339, 780}";
},
{
name = topleft;
position = "{18, 780}";
}
);
layerId = "2C59C6D3-D4C2-4A05-8DF2-5125000072A2";
paths = (
{
closed = 1;
nodes = (
"424 0 LINE",
"424 322 LINE",
"673 774 LINE",
"673 780 LINE",
"509 780 LINE",
"414 600 LINE SMOOTH",
"396 567 OFFCURVE",
"378 533 OFFCURVE",
"360 488 CURVE",
"340 488 LINE",
"322 533 OFFCURVE",
"304 567 OFFCURVE",
"286 600 CURVE SMOOTH",
"188 780 LINE",
"7 780 LINE",
"7 774 LINE",
"256 324 LINE",
"256 0 LINE"
);
}
);
width = 680;
}
);
leftKerningGroup = Y;
rightKerningGroup = Y;
unicode = 0059;
},
{
color = 6;
glyphname = Z;
lastChange = "2022-02-18 13:14:15 +0000";
layers = (
{
anchors = (
{
name = bottom;
position = "{353, 0}";
},
{
name = top;
position = "{369, 780}";
}
);
guideLines = (
{
position = "{266, 224}";
},
{
position = "{439, 556}";
}
);
hints = (
{
horizontal = 1;
origin = "{0, 17}";
target = "{0, 2}";
type = Stem;
},
{
horizontal = 1;
origin = "{0, 9}";
target = "{0, 10}";
type = Stem;
},
{
origin = "{0, 17}";
target = "{0, 2}";
type = Stem;
},
{
origin = "{0, 12}";
target = "{0, 7}";
type = Stem;
}
);
layerId = "D6DAFCCC-80B4-447A-AB8D-F3640E986932";
paths = (
{
closed = 1;
nodes = (
"658 0 LINE",
"658 94 LINE",
"176 94 LINE",
"176 118 LINE",
"216 154 OFFCURVE",
"247 191 OFFCURVE",
"277 227 CURVE SMOOTH",
"652 676 LINE",
"652 780 LINE",
"90 780 LINE",
"90 686 LINE",
"524 686 LINE",
"524 662 LINE",
"483 625 OFFCURVE",
"452 588 OFFCURVE",
"421 551 CURVE SMOOTH",
"48 104 LINE",
"48 0 LINE"
);
}
);
width = 710;
},
{
anchors = (
{
name = bottom;
position = "{354, 0}";
},
{
name = top;
position = "{367, 780}";
}
);
guideLines = (
{
position = "{328, 260}";
},
{
position = "{380, 520}";
}
);
layerId = "2C59C6D3-D4C2-4A05-8DF2-5125000072A2";
paths = (
{
closed = 1;
nodes = (
"674 0 LINE",
"674 132 LINE",
"243 132 LINE",
"243 156 LINE",
"279 191 OFFCURVE",
"310 227 OFFCURVE",
"340 262 CURVE SMOOTH",
"665 636 LINE",
"665 780 LINE",
"68 780 LINE",
"68 648 LINE",
"455 648 LINE",
"455 624 LINE",
"419 589 OFFCURVE",
"388 553 OFFCURVE",
"358 518 CURVE SMOOTH",
"34 144 LINE",
"34 0 LINE"
);
}
);
width = 710;
}
);
leftKerningGroup = Z;
rightKerningGroup = Z;
unicode = 005A;
},
{
color = 6;
export = 0;
glyphname = Hbar.H;
lastChange = "2022-02-18 13:14:15 +0000";
layers = (
{
anchors = (
{
name = bottom;
position = "{400, 0}";
},
{
name = center;
position = "{400, 600}";
},
{
name = top;
position = "{400, 780}";
},
{
name = topleft;
position = "{20, 780}";
}
);
hints = (
{
horizontal = 1;
origin = "{0, 11}";
target = up;
type = BottomGhost;
},
{
horizontal = 1;
origin = "{0, 1}";
target = "{0, 8}";
type = Stem;
},
{
horizontal = 1;
origin = "{0, 10}";
target = down;
type = TopGhost;
},
{
origin = "{0, 11}";
target = "{0, 0}";
type = Stem;
},
{
origin = "{0, 3}";
target = "{0, 4}";
type = Stem;
}
);
layerId = "D6DAFCCC-80B4-447A-AB8D-F3640E986932";
paths = (
{
closed = 1;
nodes = (
"202 0 LINE",
"202 343 LINE",
"598 343 LINE",
"598 0 LINE",
"710 0 LINE",
"710 780 LINE",
"598 780 LINE",
"598 437 LINE",
"202 437 LINE",
"202 780 LINE",
"90 780 LINE",
"90 0 LINE"
);
}
);
width = 800;
},
{
anchors = (
{
name = bottom;
position = "{410, 0}";
},
{
name = center;
position = "{410, 600}";
},
{
name = top;
position = "{410, 780}";
},
{
name = topleft;
position = "{17, 780}";
}
);
layerId = "2C59C6D3-D4C2-4A05-8DF2-5125000072A2";
paths = (
{
closed = 1;
nodes = (
"244 0 LINE",
"244 317 LINE",
"576 317 LINE",
"576 0 LINE",
"744 0 LINE",
"744 780 LINE",
"576 780 LINE",
"576 453 LINE",
"244 453 LINE",
"244 780 LINE",
"76 780 LINE",
"76 0 LINE"
);
}
);
width = 820;
}
);
leftKerningGroup = B;
rightKerningGroup = H;
},
{
color = 6;
glyphname = a;
lastChange = "2022-02-18 13:14:15 +0000";
layers = (
{
anchors = (
{
name = bottom;
position = "{319, 0}";
},
{
name = ogonek;
position = "{574, 0}";
},
{
name = top;
position = "{319, 600}";
}
);
hints = (
{
horizontal = 1;
origin = "{0, 18}";
target = "{1, 11}";
type = Stem;
},
{
horizontal = 1;
origin = "{0, 12}";
target = "{1, 5}";
type = Stem;
},
{
horizontal = 1;
origin = "{0, 4}";
target = up;
type = BottomGhost;
},
{
horizontal = 1;
origin = "{0, 7}";
target = down;
type = TopGhost;
},
{
origin = "{0, 15}";
target = "{1, 2}";
type = Stem;
},
{
origin = "{1, 8}";
target = "{0, 5}";
type = Stem;
}
);
layerId = "D6DAFCCC-80B4-447A-AB8D-F3640E986932";
paths = (
{
closed = 1;
nodes = (
"379 -15 OFFCURVE",
"433 30 OFFCURVE",
"454 78 CURVE",
"478 78 LINE",
"478 0 LINE",
"574 0 LINE",
"574 600 LINE",
"478 600 LINE",
"478 522 LINE",
"454 522 LINE",
"433 570 OFFCURVE",
"379 615 OFFCURVE",
"289 615 CURVE SMOOTH",
"132 615 OFFCURVE",
"45 491 OFFCURVE",
"45 300 CURVE SMOOTH",
"45 108 OFFCURVE",
"133 -15 OFFCURVE",
"287 -15 CURVE SMOOTH"
);
},
{
closed = 1;
nodes = (
"209 75 OFFCURVE",
"155 157 OFFCURVE",
"155 300 CURVE SMOOTH",
"155 443 OFFCURVE",
"209 525 OFFCURVE",
"306 525 CURVE SMOOTH",
"406 525 OFFCURVE",
"469 435 OFFCURVE",
"469 300 CURVE SMOOTH",
"469 165 OFFCURVE",
"406 75 OFFCURVE",
"306 75 CURVE SMOOTH"
);
}
);
width = 660;
},
{
anchors = (
{
name = bottom;
position = "{341, 0}";
},
{
name = ogonek;
position = "{616, 0}";
},
{
name = top;
position = "{341, 600}";
}
);
layerId = "2C59C6D3-D4C2-4A05-8DF2-5125000072A2";
paths = (
{
closed = 1;
nodes = (
"362 -12 OFFCURVE",
"414 27 OFFCURVE",
"442 78 CURVE",
"466 78 LINE",
"466 0 LINE",
"616 0 LINE",
"616 600 LINE",
"466 600 LINE",
"466 522 LINE",
"442 522 LINE",
"414 576 OFFCURVE",
"361 612 OFFCURVE",
"277 612 CURVE SMOOTH",
"113 612 OFFCURVE",
"34 486 OFFCURVE",
"34 301 CURVE SMOOTH",
"34 120 OFFCURVE",
"109 -12 OFFCURVE",
"278 -12 CURVE SMOOTH"
);
},
{
closed = 1;
nodes = (
"247 102 OFFCURVE",
"202 168 OFFCURVE",
"202 300 CURVE SMOOTH",
"202 432 OFFCURVE",
"247 498 OFFCURVE",
"320 498 CURVE SMOOTH",
"401 498 OFFCURVE",
"454 422 OFFCURVE",
"454 300 CURVE SMOOTH",
"454 178 OFFCURVE",
"401 102 OFFCURVE",
"320 102 CURVE SMOOTH"
);
}
);
width = 690;
}
);
leftKerningGroup = a;
rightKerningGroup = a;
unicode = 0061;
},
{
color = 6;
glyphname = ae;
lastChange = "2022-02-18 13:14:15 +0000";
layers = (
{
anchors = (
{
name = bottom;
position = "{480, 0}";
},
{
name = top;
position = "{480, 600}";
}
);
hints = (
{
horizontal = 1;
origin = "{0, 46}";
target = "{1, 10}";
type = Stem;
},
{
horizontal = 1;
origin = "{1, 5}";
target = "{0, 40}";
type = Stem;
},
{
horizontal = 1;
origin = "{0, 28}";
target = "{0, 35}";
type = Stem;
},
{
origin = "{0, 43}";
target = "{1, 2}";
type = Stem;
},
{
origin = "{1, 7}";
target = "{0, 16}";
type = Stem;
},
{
origin = "{2, 5}";
target = "{0, 17}";
type = Stem;
},
{
horizontal = 1;
origin = "{0, 10}";
target = down;
type = TopGhost;
},
{
horizontal = 1;
origin = "{0, 31}";
target = up;
type = BottomGhost;
}
);
layerId = "D6DAFCCC-80B4-447A-AB8D-F3640E986932";
paths = (
{
closed = 1;
nodes = (
"345 -15 OFFCURVE",
"414 40 OFFCURVE",
"449 99 CURVE",
"473 99 LINE",
"509 32 OFFCURVE",
"580 -15 OFFCURVE",
"682 -15 CURVE SMOOTH",
"812 -15 OFFCURVE",
"893 64 OFFCURVE",
"922 180 CURVE",
"821 180 LINE",
"802 113 OFFCURVE",
"759 71 OFFCURVE",
"684 71 CURVE SMOOTH",
"581 71 OFFCURVE",
"530 154 OFFCURVE",
"525 281 CURVE",
"935 281 LINE",
"935 310 LINE SMOOTH",
"935 488 OFFCURVE",
"858 615 OFFCURVE",
"693 615 CURVE SMOOTH",
"592 615 OFFCURVE",
"536 569 OFFCURVE",
"503 520 CURVE",
"479 520 LINE",
"450 567 OFFCURVE",
"389 615 OFFCURVE",
"286 615 CURVE SMOOTH",
"140 615 OFFCURVE",
"63 522 OFFCURVE",
"49 410 CURVE",
"155 410 LINE",
"160 468 OFFCURVE",
"201 529 OFFCURVE",
"283 529 CURVE SMOOTH",
"363 529 OFFCURVE",
"420 471 OFFCURVE",
"420 384 CURVE SMOOTH",
"420 362 LINE",
"312 362 LINE SMOOTH",
"132 362 OFFCURVE",
"34 289 OFFCURVE",
"34 165 CURVE SMOOTH",
"34 55 OFFCURVE",
"122 -15 OFFCURVE",
"242 -15 CURVE SMOOTH"
);
},
{
closed = 1;
nodes = (
"189 71 OFFCURVE",
"145 107 OFFCURVE",
"145 169 CURVE SMOOTH",
"145 230 OFFCURVE",
"190 281 OFFCURVE",
"313 281 CURVE SMOOTH",
"420 281 LINE",
"420 247 LINE SMOOTH",
"420 156 OFFCURVE",
"352 71 OFFCURVE",
"255 71 CURVE SMOOTH"
);
},
{
closed = 1;
nodes = (
"536 460 OFFCURVE",
"586 529 OFFCURVE",
"681 529 CURVE SMOOTH",
"769 529 OFFCURVE",
"819 467 OFFCURVE",
"826 362 CURVE",
"526 362 LINE"
);
}
);
width = 980;
},
{
anchors = (
{
name = bottom;
position = "{490, 0}";
},
{
name = top;
position = "{490, 600}";
}
);
background = {
paths = (
{
closed = 1;
nodes = (
"360 -15 OFFCURVE",
"425 39 OFFCURVE",
"460 90 CURVE",
"484 90 LINE",
"525 21 OFFCURVE",
"597 -15 OFFCURVE",
"685 -15 CURVE SMOOTH",
"822 -15 OFFCURVE",
"912 70 OFFCURVE",
"940 192 CURVE",
"797 192 LINE",
"784 142 OFFCURVE",
"754 100 OFFCURVE",
"687 100 CURVE SMOOTH",
"612 100 OFFCURVE",
"563 156 OFFCURVE",
"560 267 CURVE",
"950 267 LINE",
"950 298 LINE SMOOTH",
"950 502 OFFCURVE",
"861 615 OFFCURVE",
"697 615 CURVE SMOOTH",
"599 615 OFFCURVE",
"541 574 OFFCURVE",
"505 520 CURVE",
"481 520 LINE",
"445 573 OFFCURVE",
"389 615 OFFCURVE",
"287 615 CURVE SMOOTH",
"129 615 OFFCURVE",
"55 516 OFFCURVE",
"42 410 CURVE",
"181 410 LINE",
"187 451 OFFCURVE",
"213 501 OFFCURVE",
"291 501 CURVE SMOOTH",
"367 501 OFFCURVE",
"408 446 OFFCURVE",
"408 374 CURVE SMOOTH",
"408 360 LINE",
"298 360 LINE SMOOTH",
"124 360 OFFCURVE",
"28 294 OFFCURVE",
"28 175 CURVE SMOOTH",
"28 61 OFFCURVE",
"116 -15 OFFCURVE",
"248 -15 CURVE SMOOTH"
);
},
{
closed = 1;
nodes = (
"212 98 OFFCURVE",
"177 131 OFFCURVE",
"177 182 CURVE SMOOTH",
"177 267 OFFCURVE",
"271 267 OFFCURVE",
"307 267 CURVE SMOOTH",
"408 267 LINE",
"408 243 LINE SMOOTH",
"408 159 OFFCURVE",
"354 98 OFFCURVE",
"271 98 CURVE SMOOTH"
);
},
{
closed = 1;
nodes = (
"569 449 OFFCURVE",
"613 501 OFFCURVE",
"686 501 CURVE SMOOTH",
"759 501 OFFCURVE",
"798 448 OFFCURVE",
"800 360 CURVE",
"561 360 LINE"
);
}
);
};
layerId = "2C59C6D3-D4C2-4A05-8DF2-5125000072A2";
paths = (
{
closed = 1;
nodes = (
"367 -15 OFFCURVE",
"434 39 OFFCURVE",
"469 90 CURVE",
"493 90 LINE",
"535 21 OFFCURVE",
"609 -15 OFFCURVE",
"699 -15 CURVE SMOOTH",
"839 -15 OFFCURVE",
"931 70 OFFCURVE",
"960 192 CURVE",
"814 192 LINE",
"800 142 OFFCURVE",
"770 99 OFFCURVE",
"701 99 CURVE SMOOTH",
"625 99 OFFCURVE",
"575 156 OFFCURVE",
"572 263 CURVE",
"970 263 LINE",
"970 298 LINE SMOOTH",
"970 502 OFFCURVE",
"879 615 OFFCURVE",
"712 615 CURVE SMOOTH",
"611 615 OFFCURVE",
"552 574 OFFCURVE",
"515 520 CURVE",
"491 520 LINE",
"454 573 OFFCURVE",
"397 615 OFFCURVE",
"293 615 CURVE SMOOTH",
"131 615 OFFCURVE",
"56 516 OFFCURVE",
"42 410 CURVE",
"184 410 LINE",
"190 451 OFFCURVE",
"218 501 OFFCURVE",
"295 501 CURVE SMOOTH",
"375 501 OFFCURVE",
"416 448 OFFCURVE",
"416 378 CURVE SMOOTH",
"416 364 LINE",
"295 364 LINE SMOOTH",
"117 364 OFFCURVE",
"28 292 OFFCURVE",
"28 174 CURVE SMOOTH",
"28 53 OFFCURVE",
"121 -15 OFFCURVE",
"251 -15 CURVE SMOOTH"
);
},
{
closed = 1;
nodes = (
"216 99 OFFCURVE",
"180 130 OFFCURVE",
"180 180 CURVE SMOOTH",
"180 243 OFFCURVE",
"235 262 OFFCURVE",
"303 262 CURVE SMOOTH",
"416 262 LINE",
"416 239 LINE SMOOTH",
"416 157 OFFCURVE",
"361 99 OFFCURVE",
"276 99 CURVE SMOOTH"
);
},
{
closed = 1;
nodes = (
"581 449 OFFCURVE",
"626 501 OFFCURVE",
"700 501 CURVE SMOOTH",
"775 501 OFFCURVE",
"815 448 OFFCURVE",
"817 364 CURVE",
"573 364 LINE"
);
}
);
width = 1000;
}
);
leftKerningGroup = ae;
rightKerningGroup = ae;
unicode = 00E6;
},
{
color = 6;
glyphname = b;
lastChange = "2022-02-18 13:14:15 +0000";
layers = (
{
guideLines = (
{
angle = 90;
position = "{218, 522}";
}
);
hints = (
{
horizontal = 1;
origin = "{0, 18}";
target = "{1, 11}";
type = Stem;
},
{
horizontal = 1;
origin = "{0, 5}";
target = "{1, 5}";
type = Stem;
},
{
horizontal = 1;
origin = "{0, 12}";
target = up;
type = BottomGhost;
},
{
origin = "{0, 12}";
target = "{0, 9}";
type = Stem;
},
{
origin = "{1, 8}";
target = "{0, 2}";
type = Stem;
},
{
horizontal = 1;
origin = "{0, 11}";
target = down;
type = TopGhost;
}
);
layerId = "D6DAFCCC-80B4-447A-AB8D-F3640E986932";
paths = (
{
closed = 1;
nodes = (
"527 -15 OFFCURVE",
"615 108 OFFCURVE",
"615 300 CURVE SMOOTH",
"615 491 OFFCURVE",
"527 615 OFFCURVE",
"375 615 CURVE SMOOTH",
"294 615 OFFCURVE",
"244 580 OFFCURVE",
"218 528 CURVE",
"194 528 LINE",
"194 800 LINE",
"86 800 LINE",
"86 0 LINE",
"182 0 LINE",
"182 78 LINE",
"206 78 LINE",
"227 30 OFFCURVE",
"281 -15 OFFCURVE",
"373 -15 CURVE SMOOTH"
);
},
{
closed = 1;
nodes = (
"254 75 OFFCURVE",
"191 165 OFFCURVE",
"191 300 CURVE SMOOTH",
"191 435 OFFCURVE",
"254 525 OFFCURVE",
"354 525 CURVE SMOOTH",
"451 525 OFFCURVE",
"505 443 OFFCURVE",
"505 300 CURVE SMOOTH",
"505 157 OFFCURVE",
"451 75 OFFCURVE",
"354 75 CURVE SMOOTH"
);
}
);
width = 660;
},
{
layerId = "2C59C6D3-D4C2-4A05-8DF2-5125000072A2";
paths = (
{
closed = 1;
nodes = (
"580 -12 OFFCURVE",
"656 120 OFFCURVE",
"656 301 CURVE SMOOTH",
"656 486 OFFCURVE",
"576 612 OFFCURVE",
"416 612 CURVE SMOOTH",
"338 612 OFFCURVE",
"289 582 OFFCURVE",
"260 534 CURVE",
"236 534 LINE",
"236 800 LINE",
"74 800 LINE",
"74 0 LINE",
"224 0 LINE",
"224 78 LINE",
"248 78 LINE",
"276 27 OFFCURVE",
"327 -12 OFFCURVE",
"416 -12 CURVE SMOOTH"
);
},
{
closed = 1;
nodes = (
"289 102 OFFCURVE",
"236 178 OFFCURVE",
"236 300 CURVE SMOOTH",
"236 422 OFFCURVE",
"289 498 OFFCURVE",
"370 498 CURVE SMOOTH",
"443 498 OFFCURVE",
"488 432 OFFCURVE",
"488 300 CURVE SMOOTH",
"488 168 OFFCURVE",
"443 102 OFFCURVE",
"370 102 CURVE SMOOTH"
);
}
);
width = 690;
},
{
associatedMasterId = "2C59C6D3-D4C2-4A05-8DF2-5125000072A2";
layerId = "2283F5F0-86FA-4C64-8A48-31EA0C56CD06";
name = "19 Aug 21, 17:53";
paths = (
{
closed = 1;
nodes = (
"576 -15 OFFCURVE",
"656 111 OFFCURVE",
"656 299 CURVE SMOOTH",
"656 483 OFFCURVE",
"580 615 OFFCURVE",
"413 615 CURVE SMOOTH",
"326 615 OFFCURVE",
"274 579 OFFCURVE",
"254 522 CURVE",
"232 522 LINE",
"232 800 LINE",
"72 800 LINE",
"72 0 LINE",
"228 0 LINE",
"228 78 LINE",
"254 78 LINE",
"274 21 OFFCURVE",
"327 -15 OFFCURVE",
"414 -15 CURVE SMOOTH"
);
},
{
closed = 1;
nodes = (
"286 99 OFFCURVE",
"232 178 OFFCURVE",
"232 300 CURVE SMOOTH",
"232 422 OFFCURVE",
"286 501 OFFCURVE",
"368 501 CURVE SMOOTH",
"443 501 OFFCURVE",
"488 435 OFFCURVE",
"488 300 CURVE SMOOTH",
"488 165 OFFCURVE",
"443 99 OFFCURVE",
"368 99 CURVE SMOOTH"
);
}
);
width = 690;
},
{
associatedMasterId = "D6DAFCCC-80B4-447A-AB8D-F3640E986932";
hints = (
{
horizontal = 1;
place = "{-15, 90}";
type = Stem;
},
{
horizontal = 1;
place = "{615, 90}";
type = Stem;
},
{
horizontal = 1;
place = "{800, -20}";
target = down;
type = TopGhost;
},
{
horizontal = 1;
place = "{0, 21}";
target = up;
type = BottomGhost;
},
{
place = "{88, 106}";
type = Stem;
},
{
place = "{503, 112}";
type = Stem;
}
);
layerId = "8AD3EF83-1853-4104-B716-058465379A15";
name = "20 Aug 21, 08:32";
paths = (
{
closed = 1;
nodes = (
"520 -15 OFFCURVE",
"615 99 OFFCURVE",
"615 300 CURVE SMOOTH",
"615 492 OFFCURVE",
"527 615 OFFCURVE",
"374 615 CURVE SMOOTH",
"283 615 OFFCURVE",
"230 570 OFFCURVE",
"209 522 CURVE",
"194 522 LINE",
"194 800 LINE",
"88 800 LINE",
"88 0 LINE",
"185 0 LINE",
"185 78 LINE",
"209 78 LINE",
"230 30 OFFCURVE",
"283 -15 OFFCURVE",
"374 -15 CURVE SMOOTH"
);
},
{
closed = 1;
nodes = (
"255 75 OFFCURVE",
"192 165 OFFCURVE",
"192 300 CURVE SMOOTH",
"192 435 OFFCURVE",
"255 525 OFFCURVE",
"354 525 CURVE SMOOTH",
"450 525 OFFCURVE",
"504 443 OFFCURVE",
"504 300 CURVE SMOOTH",
"504 157 OFFCURVE",
"450 75 OFFCURVE",
"354 75 CURVE SMOOTH"
);
}
);
visible = 1;
width = 660;
}
);
leftKerningGroup = b;
rightKerningGroup = b;
unicode = 0062;
},
{
color = 6;
glyphname = c;
lastChange = "2022-02-18 13:14:15 +0000";
layers = (
{
anchors = (
{
name = bottom;
position = "{315, 0}";
},
{
name = top;
position = "{299, 600}";
}
);
hints = (
{
horizontal = 1;
origin = "{0, 25}";
target = "{0, 6}";
type = Stem;
},
{
horizontal = 1;
origin = "{0, 19}";
target = "{0, 12}";
type = Stem;
},
{
origin = "{0, 22}";
target = "{0, 9}";
type = Stem;
},
{
horizontal = 1;
origin = "{0, 3}";
target = down;
type = TopGhost;
},
{
horizontal = 1;
origin = "{0, 15}";
target = up;
type = BottomGhost;
}
);
layerId = "D6DAFCCC-80B4-447A-AB8D-F3640E986932";
paths = (
{
closed = 1;
nodes = (
"445 -15 OFFCURVE",
"532 65 OFFCURVE",
"554 210 CURVE",
"449 210 LINE",
"437 125 OFFCURVE",
"390 73 OFFCURVE",
"309 73 CURVE SMOOTH",
"204 73 OFFCURVE",
"155 160 OFFCURVE",
"155 300 CURVE SMOOTH",
"155 440 OFFCURVE",
"204 527 OFFCURVE",
"309 527 CURVE SMOOTH",
"390 527 OFFCURVE",
"437 475 OFFCURVE",
"449 390 CURVE",
"554 390 LINE",
"535 534 OFFCURVE",
"446 615 OFFCURVE",
"306 615 CURVE SMOOTH",
"135 615 OFFCURVE",
"45 492 OFFCURVE",
"45 300 CURVE SMOOTH",
"45 110 OFFCURVE",
"133 -15 OFFCURVE",
"306 -15 CURVE SMOOTH"
);
}
);
width = 590;
},
{
anchors = (
{
name = bottom;
position = "{322, 0}";
},
{
name = top;
position = "{323, 600}";
}
);
background = {
paths = (
{
closed = 1;
nodes = (
"488 -15 OFFCURVE",
"580 77 OFFCURVE",
"599 220 CURVE",
"439 220 LINE",
"430 143 OFFCURVE",
"391 99 OFFCURVE",
"326 99 CURVE SMOOTH",
"244 99 OFFCURVE",
"202 170 OFFCURVE",
"202 300 CURVE SMOOTH",
"202 429 OFFCURVE",
"244 501 OFFCURVE",
"327 501 CURVE SMOOTH",
"391 501 OFFCURVE",
"430 459 OFFCURVE",
"439 380 CURVE",
"600 380 LINE",
"582 525 OFFCURVE",
"489 615 OFFCURVE",
"326 615 CURVE SMOOTH",
"145 615 OFFCURVE",
"34 504 OFFCURVE",
"34 300 CURVE SMOOTH",
"34 107 OFFCURVE",
"134 -15 OFFCURVE",
"324 -15 CURVE SMOOTH"
);
}
);
};
layerId = "2C59C6D3-D4C2-4A05-8DF2-5125000072A2";
paths = (
{
closed = 1;
nodes = (
"478 -15 OFFCURVE",
"570 77 OFFCURVE",
"589 220 CURVE",
"429 220 LINE",
"420 143 OFFCURVE",
"381 99 OFFCURVE",
"321 99 CURVE SMOOTH",
"244 99 OFFCURVE",
"202 170 OFFCURVE",
"202 300 CURVE SMOOTH",
"202 429 OFFCURVE",
"244 501 OFFCURVE",
"322 501 CURVE SMOOTH",
"381 501 OFFCURVE",
"420 459 OFFCURVE",
"429 380 CURVE",
"589 380 LINE",
"572 525 OFFCURVE",
"479 615 OFFCURVE",
"321 615 CURVE SMOOTH",
"145 615 OFFCURVE",
"34 504 OFFCURVE",
"34 300 CURVE SMOOTH",
"34 107 OFFCURVE",
"134 -15 OFFCURVE",
"319 -15 CURVE SMOOTH"
);
}
);
width = 620;
},
{
anchors = (
{
name = bottom;
position = "{322, 0}";
},
{
name = top;
position = "{323, 600}";
}
);
associatedMasterId = "2C59C6D3-D4C2-4A05-8DF2-5125000072A2";
layerId = "6F89C4F9-38B1-4383-87AD-7D66DF5E306D";
name = "20 Aug 21, 10:06";
paths = (
{
closed = 1;
nodes = (
"488 -15 OFFCURVE",
"580 77 OFFCURVE",
"599 220 CURVE",
"439 220 LINE",
"430 143 OFFCURVE",
"391 99 OFFCURVE",
"326 99 CURVE SMOOTH",
"244 99 OFFCURVE",
"202 170 OFFCURVE",
"202 300 CURVE SMOOTH",
"202 429 OFFCURVE",
"244 501 OFFCURVE",
"327 501 CURVE SMOOTH",
"391 501 OFFCURVE",
"430 459 OFFCURVE",
"439 380 CURVE",
"600 380 LINE",
"582 525 OFFCURVE",
"489 615 OFFCURVE",
"326 615 CURVE SMOOTH",
"145 615 OFFCURVE",
"34 504 OFFCURVE",
"34 300 CURVE SMOOTH",
"34 107 OFFCURVE",
"134 -15 OFFCURVE",
"324 -15 CURVE SMOOTH"
);
}
);
width = 620;
}
);
leftKerningGroup = c;
rightKerningGroup = c;
unicode = 0063;
},
{
color = 6;
glyphname = d;
lastChange = "2022-02-18 13:14:15 +0000";
layers = (
{
anchors = (
{
name = bottom;
position = "{340, 0}";
},
{
name = center;
position = "{480, 700}";
},
{
name = top;
position = "{340, 800}";
},
{
name = topright;
position = "{572, 800}";
}
);
hints = (
{
horizontal = 1;
origin = "{0, 18}";
target = "{1, 11}";
type = Stem;
},
{
horizontal = 1;
origin = "{0, 12}";
target = "{1, 5}";
type = Stem;
},
{
horizontal = 1;
origin = "{0, 4}";
target = up;
type = BottomGhost;
},
{
origin = "{0, 15}";
target = "{1, 2}";
type = Stem;
},
{
origin = "{0, 8}";
target = "{0, 5}";
type = Stem;
},
{
horizontal = 1;
origin = "{0, 7}";
target = down;
type = TopGhost;
}
);
layerId = "D6DAFCCC-80B4-447A-AB8D-F3640E986932";
paths = (
{
closed = 1;
nodes = (
"377 -15 OFFCURVE",
"431 30 OFFCURVE",
"452 78 CURVE",
"476 78 LINE",
"476 0 LINE",
"572 0 LINE",
"572 800 LINE",
"464 800 LINE",
"464 528 LINE",
"440 528 LINE",
"414 580 OFFCURVE",
"364 615 OFFCURVE",
"283 615 CURVE SMOOTH",
"131 615 OFFCURVE",
"43 491 OFFCURVE",
"43 300 CURVE SMOOTH",
"43 108 OFFCURVE",
"131 -15 OFFCURVE",
"285 -15 CURVE SMOOTH"
);
},
{
closed = 1;
nodes = (
"207 75 OFFCURVE",
"153 157 OFFCURVE",
"153 300 CURVE SMOOTH",
"153 443 OFFCURVE",
"207 525 OFFCURVE",
"304 525 CURVE SMOOTH",
"404 525 OFFCURVE",
"467 435 OFFCURVE",
"467 300 CURVE SMOOTH",
"467 165 OFFCURVE",
"404 75 OFFCURVE",
"304 75 CURVE SMOOTH"
);
}
);
width = 660;
},
{
anchors = (
{
name = bottom;
position = "{341, 0}";
},
{
name = center;
position = "{514, 700}";
},
{
name = top;
position = "{341, 800}";
},
{
name = topright;
position = "{618, 800}";
}
);
background = {
paths = (
{
closed = 1;
nodes = (
"362 -12 OFFCURVE",
"414 27 OFFCURVE",
"442 78 CURVE",
"466 78 LINE",
"466 0 LINE",
"616 0 LINE",
"616 600 LINE",
"466 600 LINE",
"466 522 LINE",
"442 522 LINE",
"414 576 OFFCURVE",
"361 612 OFFCURVE",
"277 612 CURVE SMOOTH",
"113 612 OFFCURVE",
"34 486 OFFCURVE",
"34 301 CURVE SMOOTH",
"34 120 OFFCURVE",
"109 -12 OFFCURVE",
"278 -12 CURVE SMOOTH"
);
},
{
closed = 1;
nodes = (
"247 102 OFFCURVE",
"202 168 OFFCURVE",
"202 300 CURVE SMOOTH",
"202 432 OFFCURVE",
"247 498 OFFCURVE",
"320 498 CURVE SMOOTH",
"401 498 OFFCURVE",
"454 422 OFFCURVE",
"454 300 CURVE SMOOTH",
"454 178 OFFCURVE",
"401 102 OFFCURVE",
"320 102 CURVE SMOOTH"
);
}
);
};
guideLines = (
{
angle = 90;
position = "{430, 522}";
}
);
layerId = "2C59C6D3-D4C2-4A05-8DF2-5125000072A2";
paths = (
{
closed = 1;
nodes = (
"363 -12 OFFCURVE",
"414 27 OFFCURVE",
"442 78 CURVE",
"466 78 LINE",
"466 0 LINE",
"616 0 LINE",
"616 800 LINE",
"454 800 LINE",
"454 534 LINE",
"430 534 LINE",
"401 582 OFFCURVE",
"352 612 OFFCURVE",
"274 612 CURVE SMOOTH",
"114 612 OFFCURVE",
"34 486 OFFCURVE",
"34 301 CURVE SMOOTH",
"34 120 OFFCURVE",
"110 -12 OFFCURVE",
"274 -12 CURVE SMOOTH"
);
},
{
closed = 1;
nodes = (
"247 102 OFFCURVE",
"202 168 OFFCURVE",
"202 300 CURVE SMOOTH",
"202 432 OFFCURVE",
"247 498 OFFCURVE",
"320 498 CURVE SMOOTH",
"401 498 OFFCURVE",
"454 422 OFFCURVE",
"454 300 CURVE SMOOTH",
"454 178 OFFCURVE",
"401 102 OFFCURVE",
"320 102 CURVE SMOOTH"
);
}
);
width = 690;
},
{
anchors = (
{
name = bottom;
position = "{341, 0}";
},
{
name = center;
position = "{500, 700}";
},
{
name = top;
position = "{341, 800}";
},
{
name = topright;
position = "{618, 800}";
}
);
associatedMasterId = "2C59C6D3-D4C2-4A05-8DF2-5125000072A2";
layerId = "BD399711-ED4B-4E7C-A9DA-84EC3D1A2D60";
name = "19 Aug 21, 17:19";
paths = (
{
closed = 1;
nodes = (
"363 -15 OFFCURVE",
"416 21 OFFCURVE",
"436 78 CURVE",
"462 78 LINE",
"462 0 LINE",
"618 0 LINE",
"618 800 LINE",
"458 800 LINE",
"458 522 LINE",
"436 522 LINE",
"416 579 OFFCURVE",
"364 615 OFFCURVE",
"277 615 CURVE SMOOTH",
"110 615 OFFCURVE",
"34 483 OFFCURVE",
"34 299 CURVE SMOOTH",
"34 111 OFFCURVE",
"114 -15 OFFCURVE",
"276 -15 CURVE SMOOTH"
);
},
{
closed = 1;
nodes = (
"247 99 OFFCURVE",
"202 165 OFFCURVE",
"202 300 CURVE SMOOTH",
"202 435 OFFCURVE",
"247 501 OFFCURVE",
"322 501 CURVE SMOOTH",
"404 501 OFFCURVE",
"458 422 OFFCURVE",
"458 300 CURVE SMOOTH",
"458 178 OFFCURVE",
"404 99 OFFCURVE",
"322 99 CURVE SMOOTH"
);
}
);
width = 690;
}
);
leftKerningGroup = c;
rightKerningGroup = d;
unicode = 0064;
},
{
color = 6;
glyphname = eth;
lastChange = "2022-02-18 13:14:15 +0000";
layers = (
{
background = {
hints = (
{
horizontal = 1;
place = "{-13, 89}";
type = Stem;
},
{
horizontal = 1;
place = "{421, 82}";
type = Stem;
},
{
horizontal = 1;
place = "{788, -20}";
target = down;
type = TopGhost;
},
{
horizontal = 1;
place = "{692, 108}";
type = Stem;
},
{
place = "{68, 104}";
type = Stem;
},
{
place = "{463, 112}";
type = Stem;
},
{
horizontal = 1;
place = "{758, 460}";
type = Stem;
},
{
horizontal = 1;
place = "{860, 568}";
type = Stem;
},
{
place = "{585, 276}";
type = Stem;
},
{
place = "{204, 381}";
type = Stem;
}
);
paths = (
{
closed = 1;
nodes = (
"495 -15 OFFCURVE",
"586 108 OFFCURVE",
"585 337 CURVE SMOOTH",
"584 512 OFFCURVE",
"528 646 OFFCURVE",
"437 751 CURVE",
"437 775 LINE",
"474 765 OFFCURVE",
"506 771 OFFCURVE",
"537 781 CURVE",
"517 841 LINE",
"397 802 LINE",
"376 823 OFFCURVE",
"355 842 OFFCURVE",
"333 860 CURVE",
"208 860 LINE",
"208 854 LINE",
"242 827 OFFCURVE",
"274 800 OFFCURVE",
"308 772 CURVE",
"308 748 LINE",
"253 756 OFFCURVE",
"205 741 OFFCURVE",
"156 725 CURVE",
"176 666 LINE",
"350 721 LINE",
"405 659 OFFCURVE",
"444 595 OFFCURVE",
"466 528 CURVE",
"442 528 LINE",
"416 580 OFFCURVE",
"366 615 OFFCURVE",
"285 615 CURVE SMOOTH",
"133 615 OFFCURVE",
"45 491 OFFCURVE",
"45 299 CURVE SMOOTH",
"45 107 OFFCURVE",
"133 -15 OFFCURVE",
"314 -15 CURVE SMOOTH"
);
},
{
closed = 1;
nodes = (
"155 443 OFFCURVE",
"210 525 OFFCURVE",
"309 525 CURVE SMOOTH",
"411 525 OFFCURVE",
"475 439 OFFCURVE",
"475 292 CURVE SMOOTH",
"475 163 OFFCURVE",
"426 73 OFFCURVE",
"314 73 CURVE SMOOTH",
"204 73 OFFCURVE",
"155 161 OFFCURVE",
"155 298 CURVE SMOOTH"
);
}
);
};
guideLines = (
{
angle = 180;
position = "{283, 800}";
},
{
angle = 197.8138;
position = "{531, 841}";
},
{
angle = 106.8584;
position = "{541, 808}";
},
{
position = "{285, 570}";
}
);
hints = (
{
horizontal = 1;
origin = "{0, 38}";
target = "{1, 11}";
type = Stem;
},
{
horizontal = 1;
origin = "{1, 5}";
target = "{0, 32}";
type = Stem;
},
{
origin = "{0, 35}";
target = "{1, 2}";
type = Stem;
},
{
origin = "{1, 8}";
target = "{0, 2}";
type = Stem;
},
{
origin = "{0, 20}";
target = "{0, 5}";
type = Stem;
},
{
horizontal = 1;
origin = "{0, 14}";
target = down;
type = TopGhost;
},
{
horizontal = 1;
origin = "{0, 28}";
target = down;
type = TopGhost;
}
);
layerId = "D6DAFCCC-80B4-447A-AB8D-F3640E986932";
paths = (
{
closed = 1;
nodes = (
"489 -15 OFFCURVE",
"585 103 OFFCURVE",
"585 312 CURVE SMOOTH",
"585 472 OFFCURVE",
"528 601 OFFCURVE",
"437 696 CURVE",
"437 720 LINE",
"474 710 OFFCURVE",
"506 716 OFFCURVE",
"537 726 CURVE",
"517 786 LINE",
"395 746 LINE",
"375 766 OFFCURVE",
"354 784 OFFCURVE",
"333 800 CURVE",
"208 800 LINE",
"208 794 LINE",
"242 769 OFFCURVE",
"274 746 OFFCURVE",
"308 718 CURVE",
"308 694 LINE",
"253 702 OFFCURVE",
"205 687 OFFCURVE",
"156 671 CURVE",
"176 612 LINE",
"352 668 LINE",
"406 612 OFFCURVE",
"444 552 OFFCURVE",
"466 491 CURVE",
"442 491 LINE",
"416 540 OFFCURVE",
"366 576 OFFCURVE",
"283 576 CURVE SMOOTH",
"133 576 OFFCURVE",
"45 457 OFFCURVE",
"45 282 CURVE SMOOTH",
"45 106 OFFCURVE",
"133 -15 OFFCURVE",
"312 -15 CURVE SMOOTH"
);
},
{
closed = 1;
nodes = (
"204 73 OFFCURVE",
"155 159 OFFCURVE",
"155 282 CURVE SMOOTH",
"155 413 OFFCURVE",
"210 488 OFFCURVE",
"309 488 CURVE SMOOTH",
"411 488 OFFCURVE",
"475 408 OFFCURVE",
"475 276 CURVE SMOOTH",
"475 161 OFFCURVE",
"426 73 OFFCURVE",
"314 73 CURVE SMOOTH"
);
}
);
width = 630;
},
{
background = {
paths = (
{
closed = 1;
nodes = (
"529 -15 OFFCURVE",
"626 108 OFFCURVE",
"626 308 CURVE SMOOTH",
"626 508 OFFCURVE",
"532 659 OFFCURVE",
"372 800 CURVE",
"193 800 LINE",
"193 794 LINE",
"302 706 OFFCURVE",
"405 604 OFFCURVE",
"454 502 CURVE",
"430 502 LINE",
"398 548 OFFCURVE",
"349 576 OFFCURVE",
"274 576 CURVE SMOOTH",
"114 576 OFFCURVE",
"34 457 OFFCURVE",
"34 282 CURVE SMOOTH",
"34 101 OFFCURVE",
"131 -15 OFFCURVE",
"330 -15 CURVE SMOOTH"
);
},
{
closed = 1;
nodes = (
"242 93 OFFCURVE",
"202 156 OFFCURVE",
"202 282 CURVE SMOOTH",
"202 414 OFFCURVE",
"247 462 OFFCURVE",
"320 462 CURVE SMOOTH",
"401 462 OFFCURVE",
"458 393 OFFCURVE",
"458 282 CURVE SMOOTH",
"458 156 OFFCURVE",
"418 93 OFFCURVE",
"330 93 CURVE SMOOTH"
);
},
{
closed = 1;
nodes = (
"186 665 LINE",
"206 606 LINE",
"567 721 LINE",
"547 781 LINE"
);
}
);
};
guideLines = (
{
angle = 108.7258;
position = "{196, 636}";
},
{
angle = -71.565;
position = "{557, 751}";
}
);
layerId = "2C59C6D3-D4C2-4A05-8DF2-5125000072A2";
paths = (
{
closed = 1;
nodes = (
"529 -15 OFFCURVE",
"626 108 OFFCURVE",
"626 308 CURVE SMOOTH",
"626 458 OFFCURVE",
"573 581 OFFCURVE",
"472 686 CURVE",
"472 710 LINE",
"508 702 OFFCURVE",
"537 712 OFFCURVE",
"567 721 CURVE",
"546 787 LINE",
"422 747 LINE",
"404 765 OFFCURVE",
"386 782 OFFCURVE",
"366 800 CURVE",
"193 800 LINE",
"193 794 LINE",
"230 764 OFFCURVE",
"265 733 OFFCURVE",
"305 707 CURVE",
"305 683 LINE",
"261 689 OFFCURVE",
"224 677 OFFCURVE",
"186 665 CURVE",
"208 600 LINE",
"353 646 LINE",
"396 599 OFFCURVE",
"431 550 OFFCURVE",
"454 502 CURVE",
"430 502 LINE",
"398 548 OFFCURVE",
"349 576 OFFCURVE",
"274 576 CURVE SMOOTH",
"114 576 OFFCURVE",
"34 457 OFFCURVE",
"34 282 CURVE SMOOTH",
"34 101 OFFCURVE",
"131 -15 OFFCURVE",
"330 -15 CURVE SMOOTH"
);
},
{
closed = 1;
nodes = (
"242 93 OFFCURVE",
"202 156 OFFCURVE",
"202 282 CURVE SMOOTH",
"202 414 OFFCURVE",
"247 462 OFFCURVE",
"320 462 CURVE SMOOTH",
"401 462 OFFCURVE",
"458 393 OFFCURVE",
"458 282 CURVE SMOOTH",
"458 156 OFFCURVE",
"418 93 OFFCURVE",
"330 93 CURVE SMOOTH"
);
}
);
width = 660;
},
{
associatedMasterId = "2C59C6D3-D4C2-4A05-8DF2-5125000072A2";
layerId = "FC8EE4C2-36CE-429A-928D-8E048E733293";
name = "20 Apr 21, 10:31";
paths = (
{
closed = 1;
nodes = (
"505 -15 OFFCURVE",
"602 135 OFFCURVE",
"602 338 CURVE SMOOTH",
"602 508 OFFCURVE",
"530 659 OFFCURVE",
"408 800 CURVE",
"229 800 LINE",
"229 792 LINE",
"336 680 OFFCURVE",
"432 546 OFFCURVE",
"448 427 CURVE",
"425 422 LINE",
"395 467 OFFCURVE",
"349 511 OFFCURVE",
"262 511 CURVE SMOOTH",
"128 511 OFFCURVE",
"32 412 OFFCURVE",
"32 253 CURVE SMOOTH",
"32 86 OFFCURVE",
"137 -15 OFFCURVE",
"304 -15 CURVE SMOOTH"
);
},
{
closed = 1;
nodes = (
"233 94 OFFCURVE",
"188 152 OFFCURVE",
"188 251 CURVE SMOOTH",
"188 351 OFFCURVE",
"234 409 OFFCURVE",
"308 409 CURVE SMOOTH",
"386 409 OFFCURVE",
"432 342 OFFCURVE",
"432 254 CURVE SMOOTH",
"432 169 OFFCURVE",
"391 94 OFFCURVE",
"308 94 CURVE SMOOTH"
);
},
{
closed = 1;
nodes = (
"583 668 LINE",
"583 767 LINE",
"214 667 LINE",
"214 570 LINE"
);
}
);
width = 636;
},
{
associatedMasterId = "D6DAFCCC-80B4-447A-AB8D-F3640E986932";
hints = (
{
horizontal = 1;
origin = "{0, 20}";
target = "{1, 11}";
type = Stem;
},
{
horizontal = 1;
origin = "{1, 5}";
target = "{0, 14}";
type = Stem;
},
{
horizontal = 1;
origin = "{0, 6}";
target = down;
type = TopGhost;
},
{
horizontal = 1;
place = "{692, 108}";
type = Stem;
},
{
origin = "{0, 17}";
target = "{1, 2}";
type = Stem;
},
{
origin = "{1, 8}";
target = "{0, 2}";
type = Stem;
}
);
layerId = "28DD207F-3C1D-497C-AA7C-2C078F455D55";
name = "27 Aug 21, 11:03";
paths = (
{
closed = 1;
nodes = (
"473 -15 OFFCURVE",
"571 133 OFFCURVE",
"571 343 CURVE SMOOTH",
"571 525 OFFCURVE",
"495 667 OFFCURVE",
"380 800 CURVE",
"255 800 LINE",
"255 792 LINE",
"366 668 OFFCURVE",
"455 540 OFFCURVE",
"469 406 CURVE",
"449 403 LINE",
"419 457 OFFCURVE",
"372 509 OFFCURVE",
"275 509 CURVE SMOOTH",
"142 509 OFFCURVE",
"45 411 OFFCURVE",
"45 250 CURVE SMOOTH",
"45 83 OFFCURVE",
"148 -15 OFFCURVE",
"294 -15 CURVE SMOOTH"
);
},
{
closed = 1;
nodes = (
"206 75 OFFCURVE",
"151 140 OFFCURVE",
"151 250 CURVE SMOOTH",
"151 362 OFFCURVE",
"208 423 OFFCURVE",
"297 423 CURVE SMOOTH",
"391 423 OFFCURVE",
"445 353 OFFCURVE",
"445 253 CURVE SMOOTH",
"445 158 OFFCURVE",
"397 75 OFFCURVE",
"296 75 CURVE SMOOTH"
);
},
{
closed = 1;
nodes = (
"571 672 LINE",
"571 757 LINE",
"219 659 LINE",
"219 575 LINE"
);
}
);
width = 620;
},
{
associatedMasterId = "D6DAFCCC-80B4-447A-AB8D-F3640E986932";
background = {
hints = (
{
horizontal = 1;
place = "{-13, 89}";
type = Stem;
},
{
horizontal = 1;
place = "{421, 82}";
type = Stem;
},
{
horizontal = 1;
place = "{788, -20}";
target = down;
type = TopGhost;
},
{
horizontal = 1;
place = "{692, 108}";
type = Stem;
},
{
place = "{68, 104}";
type = Stem;
},
{
place = "{463, 112}";
type = Stem;
},
{
horizontal = 1;
origin = "{0, 20}";
target = "{1, 11}";
type = Stem;
},
{
horizontal = 1;
origin = "{0, 14}";
target = "{1, 5}";
type = Stem;
},
{
origin = "{0, 2}";
target = "{1, 2}";
type = Stem;
},
{
origin = "{1, 9}";
target = "{0, 2}";
type = Stem;
}
);
paths = (
{
closed = 1;
nodes = (
"495 -15 OFFCURVE",
"585 111 OFFCURVE",
"585 337 CURVE SMOOTH",
"585 528 OFFCURVE",
"512 689 OFFCURVE",
"431 737 CURVE",
"431 761 LINE",
"470 760 OFFCURVE",
"504 770 OFFCURVE",
"537 781 CURVE",
"517 841 LINE",
"393 801 LINE",
"374 822 OFFCURVE",
"354 841 OFFCURVE",
"333 860 CURVE",
"208 860 LINE",
"208 854 LINE",
"240 826 OFFCURVE",
"269 798 OFFCURVE",
"302 782 CURVE",
"302 758 LINE",
"273 758 OFFCURVE",
"251 755 OFFCURVE",
"216 744 CURVE SMOOTH",
"156 725 LINE",
"176 666 LINE",
"342 719 LINE",
"406 657 OFFCURVE",
"445 594 OFFCURVE",
"466 528 CURVE",
"442 528 LINE",
"416 580 OFFCURVE",
"366 615 OFFCURVE",
"285 615 CURVE SMOOTH",
"133 615 OFFCURVE",
"45 491 OFFCURVE",
"45 299 CURVE SMOOTH",
"45 107 OFFCURVE",
"133 -15 OFFCURVE",
"313 -15 CURVE SMOOTH"
);
},
{
closed = 1;
nodes = (
"155 443 OFFCURVE",
"210 525 OFFCURVE",
"309 525 CURVE SMOOTH",
"411 525 OFFCURVE",
"475 439 OFFCURVE",
"475 292 CURVE SMOOTH",
"475 163 OFFCURVE",
"426 73 OFFCURVE",
"314 73 CURVE SMOOTH",
"204 73 OFFCURVE",
"155 161 OFFCURVE",
"155 298 CURVE SMOOTH"
);
}
);
};
guideLines = (
{
angle = 180;
position = "{283, 860}";
},
{
angle = 197.8138;
position = "{531, 841}";
},
{
angle = 106.8584;
position = "{541, 808}";
}
);
layerId = "96AF9EFD-5E97-40EE-BA8E-2F72F59DA8B4";
name = "27 Aug 21, 11:36";
paths = (
{
closed = 1;
nodes = (
"495 -15 OFFCURVE",
"586 108 OFFCURVE",
"585 337 CURVE SMOOTH",
"584 579 OFFCURVE",
"478 741 OFFCURVE",
"333 860 CURVE",
"208 860 LINE",
"208 854 LINE",
"339 750 OFFCURVE",
"429 643 OFFCURVE",
"466 528 CURVE",
"442 528 LINE",
"416 580 OFFCURVE",
"366 615 OFFCURVE",
"285 615 CURVE SMOOTH",
"133 615 OFFCURVE",
"45 491 OFFCURVE",
"45 299 CURVE SMOOTH",
"45 107 OFFCURVE",
"133 -15 OFFCURVE",
"314 -15 CURVE SMOOTH"
);
},
{
closed = 1;
nodes = (
"204 73 OFFCURVE",
"155 161 OFFCURVE",
"155 298 CURVE SMOOTH",
"155 443 OFFCURVE",
"210 525 OFFCURVE",
"309 525 CURVE SMOOTH",
"411 525 OFFCURVE",
"475 439 OFFCURVE",
"475 292 CURVE SMOOTH",
"475 163 OFFCURVE",
"426 73 OFFCURVE",
"314 73 CURVE SMOOTH"
);
},
{
closed = 1;
nodes = (
"156 725 LINE",
"176 666 LINE",
"537 781 LINE",
"517 841 LINE"
);
}
);
width = 630;
},
{
associatedMasterId = "D6DAFCCC-80B4-447A-AB8D-F3640E986932";
background = {
hints = (
{
horizontal = 1;
place = "{-13, 89}";
type = Stem;
},
{
horizontal = 1;
place = "{421, 82}";
type = Stem;
},
{
horizontal = 1;
place = "{788, -20}";
target = down;
type = TopGhost;
},
{
horizontal = 1;
place = "{692, 108}";
type = Stem;
},
{
place = "{68, 104}";
type = Stem;
},
{
place = "{463, 112}";
type = Stem;
},
{
horizontal = 1;
origin = "{0, 20}";
target = "{1, 11}";
type = Stem;
},
{
horizontal = 1;
origin = "{0, 14}";
target = "{1, 5}";
type = Stem;
},
{
origin = "{0, 2}";
target = "{1, 2}";
type = Stem;
},
{
origin = "{1, 9}";
target = "{0, 2}";
type = Stem;
}
);
paths = (
{
closed = 1;
nodes = (
"495 -15 OFFCURVE",
"585 111 OFFCURVE",
"585 337 CURVE SMOOTH",
"585 528 OFFCURVE",
"512 689 OFFCURVE",
"431 737 CURVE",
"431 761 LINE",
"470 760 OFFCURVE",
"504 770 OFFCURVE",
"537 781 CURVE",
"517 841 LINE",
"393 801 LINE",
"374 822 OFFCURVE",
"354 841 OFFCURVE",
"333 860 CURVE",
"208 860 LINE",
"208 854 LINE",
"240 826 OFFCURVE",
"269 798 OFFCURVE",
"302 782 CURVE",
"302 758 LINE",
"273 758 OFFCURVE",
"251 755 OFFCURVE",
"216 744 CURVE SMOOTH",
"156 725 LINE",
"176 666 LINE",
"342 719 LINE",
"406 657 OFFCURVE",
"445 594 OFFCURVE",
"466 528 CURVE",
"442 528 LINE",
"416 580 OFFCURVE",
"366 615 OFFCURVE",
"285 615 CURVE SMOOTH",
"133 615 OFFCURVE",
"45 491 OFFCURVE",
"45 299 CURVE SMOOTH",
"45 107 OFFCURVE",
"133 -15 OFFCURVE",
"313 -15 CURVE SMOOTH"
);
},
{
closed = 1;
nodes = (
"155 443 OFFCURVE",
"210 525 OFFCURVE",
"309 525 CURVE SMOOTH",
"411 525 OFFCURVE",
"475 439 OFFCURVE",
"475 292 CURVE SMOOTH",
"475 163 OFFCURVE",
"426 73 OFFCURVE",
"314 73 CURVE SMOOTH",
"204 73 OFFCURVE",
"155 161 OFFCURVE",
"155 298 CURVE SMOOTH"
);
}
);
};
guideLines = (
{
angle = 180;
position = "{283, 800}";
},
{
angle = 197.8138;
position = "{531, 841}";
},
{
angle = 106.8584;
position = "{541, 808}";
}
);
layerId = "39687E85-9560-4CA2-813C-4D9CF948F698";
name = "30 Aug 21, 08:01";
paths = (
{
closed = 1;
nodes = (
"495 -15 OFFCURVE",
"586 108 OFFCURVE",
"585 337 CURVE SMOOTH",
"584 512 OFFCURVE",
"528 646 OFFCURVE",
"437 751 CURVE",
"437 775 LINE",
"474 765 OFFCURVE",
"506 771 OFFCURVE",
"537 781 CURVE",
"517 841 LINE",
"397 802 LINE",
"376 823 OFFCURVE",
"355 842 OFFCURVE",
"333 860 CURVE",
"208 860 LINE",
"208 854 LINE",
"242 827 OFFCURVE",
"274 800 OFFCURVE",
"308 772 CURVE",
"308 748 LINE",
"253 756 OFFCURVE",
"205 741 OFFCURVE",
"156 725 CURVE",
"176 666 LINE",
"350 721 LINE",
"405 659 OFFCURVE",
"444 595 OFFCURVE",
"466 528 CURVE",
"442 528 LINE",
"416 580 OFFCURVE",
"366 615 OFFCURVE",
"285 615 CURVE SMOOTH",
"133 615 OFFCURVE",
"45 491 OFFCURVE",
"45 299 CURVE SMOOTH",
"45 107 OFFCURVE",
"133 -15 OFFCURVE",
"314 -15 CURVE SMOOTH"
);
},
{
closed = 1;
nodes = (
"155 443 OFFCURVE",
"210 525 OFFCURVE",
"309 525 CURVE SMOOTH",
"411 525 OFFCURVE",
"475 439 OFFCURVE",
"475 292 CURVE SMOOTH",
"475 163 OFFCURVE",
"426 73 OFFCURVE",
"314 73 CURVE SMOOTH",
"204 73 OFFCURVE",
"155 161 OFFCURVE",
"155 298 CURVE SMOOTH"
);
}
);
width = 630;
},
{
associatedMasterId = "2C59C6D3-D4C2-4A05-8DF2-5125000072A2";
layerId = "B3FBF685-EB8B-4736-B385-0E6BDBDA77A0";
name = "30 Aug 21, 09:15";
paths = (
{
closed = 1;
nodes = (
"583 668 LINE",
"583 767 LINE",
"214 667 LINE",
"214 570 LINE"
);
},
{
closed = 1;
nodes = (
"505 -15 OFFCURVE",
"602 135 OFFCURVE",
"602 338 CURVE SMOOTH",
"602 508 OFFCURVE",
"530 659 OFFCURVE",
"408 800 CURVE",
"229 800 LINE",
"229 794 LINE",
"336 682 OFFCURVE",
"432 546 OFFCURVE",
"449 420 CURVE",
"425 420 LINE",
"395 467 OFFCURVE",
"349 511 OFFCURVE",
"262 511 CURVE SMOOTH",
"128 511 OFFCURVE",
"32 412 OFFCURVE",
"32 253 CURVE SMOOTH",
"32 86 OFFCURVE",
"137 -15 OFFCURVE",
"304 -15 CURVE SMOOTH"
);
},
{
closed = 1;
nodes = (
"233 94 OFFCURVE",
"188 152 OFFCURVE",
"188 251 CURVE SMOOTH",
"188 351 OFFCURVE",
"234 409 OFFCURVE",
"308 409 CURVE SMOOTH",
"386 409 OFFCURVE",
"432 342 OFFCURVE",
"432 254 CURVE SMOOTH",
"432 169 OFFCURVE",
"391 94 OFFCURVE",
"308 94 CURVE SMOOTH"
);
}
);
width = 640;
},
{
associatedMasterId = "2C59C6D3-D4C2-4A05-8DF2-5125000072A2";
background = {
paths = (
{
closed = 1;
nodes = (
"529 -15 OFFCURVE",
"626 108 OFFCURVE",
"626 308 CURVE SMOOTH",
"626 508 OFFCURVE",
"532 659 OFFCURVE",
"372 800 CURVE",
"193 800 LINE",
"193 794 LINE",
"302 706 OFFCURVE",
"405 604 OFFCURVE",
"454 502 CURVE",
"430 502 LINE",
"398 548 OFFCURVE",
"349 576 OFFCURVE",
"274 576 CURVE SMOOTH",
"114 576 OFFCURVE",
"34 457 OFFCURVE",
"34 282 CURVE SMOOTH",
"34 101 OFFCURVE",
"131 -15 OFFCURVE",
"330 -15 CURVE SMOOTH"
);
},
{
closed = 1;
nodes = (
"242 93 OFFCURVE",
"202 156 OFFCURVE",
"202 282 CURVE SMOOTH",
"202 414 OFFCURVE",
"247 462 OFFCURVE",
"320 462 CURVE SMOOTH",
"401 462 OFFCURVE",
"458 393 OFFCURVE",
"458 282 CURVE SMOOTH",
"458 156 OFFCURVE",
"418 93 OFFCURVE",
"330 93 CURVE SMOOTH"
);
},
{
closed = 1;
nodes = (
"186 665 LINE",
"206 606 LINE",
"567 721 LINE",
"547 781 LINE"
);
}
);
};
layerId = "F1A9A18A-E519-44E7-A080-ADBEC384BBD9";
name = "30 Aug 21, 09:22";
paths = (
{
closed = 1;
nodes = (
"529 -15 OFFCURVE",
"626 108 OFFCURVE",
"626 308 CURVE SMOOTH",
"626 508 OFFCURVE",
"532 659 OFFCURVE",
"372 800 CURVE",
"193 800 LINE",
"193 794 LINE",
"302 706 OFFCURVE",
"405 604 OFFCURVE",
"454 502 CURVE",
"430 502 LINE",
"398 548 OFFCURVE",
"349 576 OFFCURVE",
"274 576 CURVE SMOOTH",
"114 576 OFFCURVE",
"34 457 OFFCURVE",
"34 282 CURVE SMOOTH",
"34 101 OFFCURVE",
"131 -15 OFFCURVE",
"330 -15 CURVE SMOOTH"
);
},
{
closed = 1;
nodes = (
"242 93 OFFCURVE",
"202 156 OFFCURVE",
"202 282 CURVE SMOOTH",
"202 414 OFFCURVE",
"247 462 OFFCURVE",
"320 462 CURVE SMOOTH",
"401 462 OFFCURVE",
"458 393 OFFCURVE",
"458 282 CURVE SMOOTH",
"458 156 OFFCURVE",
"418 93 OFFCURVE",
"330 93 CURVE SMOOTH"
);
},
{
closed = 1;
nodes = (
"186 665 LINE",
"206 606 LINE",
"567 721 LINE",
"547 781 LINE"
);
}
);
width = 660;
}
);
leftKerningGroup = c;
rightKerningGroup = eth;
unicode = 00F0;
},
{
color = 6;
glyphname = e;
lastChange = "2022-02-18 13:14:15 +0000";
layers = (
{
anchors = (
{
name = bottom;
position = "{315, 0}";
},
{
name = ogonek;
position = "{511, 10}";
},
{
name = top;
position = "{315, 600}";
}
);
hints = (
{
horizontal = 1;
origin = "{0, 20}";
target = "{0, 6}";
type = Stem;
},
{
horizontal = 1;
origin = "{0, 9}";
target = "{1, 6}";
type = Stem;
},
{
horizontal = 1;
origin = "{0, 14}";
target = "{1, 2}";
type = Stem;
},
{
origin = "{0, 17}";
target = "{1, 6}";
type = Stem;
},
{
origin = "{1, 5}";
target = "{0, 10}";
type = Stem;
},
{
horizontal = 1;
origin = "{0, 3}";
target = down;
type = TopGhost;
}
);
layerId = "D6DAFCCC-80B4-447A-AB8D-F3640E986932";
paths = (
{
closed = 1;
nodes = (
"458 -15 OFFCURVE",
"533 70 OFFCURVE",
"559 192 CURVE",
"457 192 LINE",
"437 116 OFFCURVE",
"391 71 OFFCURVE",
"315 71 CURVE SMOOTH",
"210 71 OFFCURVE",
"156 155 OFFCURVE",
"150 272 CURVE",
"565 272 LINE",
"565 303 LINE SMOOTH",
"565 506 OFFCURVE",
"477 615 OFFCURVE",
"313 615 CURVE SMOOTH",
"137 615 OFFCURVE",
"45 487 OFFCURVE",
"45 300 CURVE SMOOTH",
"45 111 OFFCURVE",
"138 -15 OFFCURVE",
"314 -15 CURVE SMOOTH"
);
},
{
closed = 1;
nodes = (
"163 463 OFFCURVE",
"217 529 OFFCURVE",
"312 529 CURVE SMOOTH",
"401 529 OFFCURVE",
"456 466 OFFCURVE",
"460 350 CURVE",
"151 350 LINE"
);
}
);
width = 610;
},
{
anchors = (
{
name = bottom;
position = "{325, 0}";
},
{
name = ogonek;
position = "{532, 0}";
},
{
name = top;
position = "{325, 600}";
}
);
layerId = "2C59C6D3-D4C2-4A05-8DF2-5125000072A2";
paths = (
{
closed = 1;
nodes = (
"493 -15 OFFCURVE",
"574 82 OFFCURVE",
"592 192 CURVE",
"438 192 LINE",
"426 142 OFFCURVE",
"388 99 OFFCURVE",
"325 99 CURVE SMOOTH",
"246 99 OFFCURVE",
"199 161 OFFCURVE",
"192 262 CURVE",
"600 262 LINE",
"600 296 LINE SMOOTH",
"600 505 OFFCURVE",
"501 615 OFFCURVE",
"323 615 CURVE SMOOTH",
"136 615 OFFCURVE",
"34 496 OFFCURVE",
"34 301 CURVE SMOOTH",
"34 106 OFFCURVE",
"135 -15 OFFCURVE",
"325 -15 CURVE SMOOTH"
);
},
{
closed = 1;
nodes = (
"202 460 OFFCURVE",
"249 507 OFFCURVE",
"322 507 CURVE SMOOTH",
"397 507 OFFCURVE",
"436 455 OFFCURVE",
"442 364 CURVE",
"192 364 LINE"
);
}
);
width = 630;
}
);
leftKerningGroup = c;
rightKerningGroup = e;
unicode = 0065;
},
{
color = 6;
glyphname = schwa;
lastChange = "2022-02-18 13:14:15 +0000";
layers = (
{
hints = (
{
horizontal = 1;
origin = "{0, 20}";
target = "{1, 6}";
type = Stem;
},
{
horizontal = 1;
origin = "{1, 2}";
target = "{0, 16}";
type = Stem;
},
{
horizontal = 1;
origin = "{0, 5}";
target = "{0, 12}";
type = Stem;
},
{
origin = "{0, 17}";
target = "{1, 2}";
type = Stem;
},
{
origin = "{1, 3}";
target = "{0, 2}";
type = Stem;
},
{
horizontal = 1;
origin = "{0, 9}";
target = up;
type = BottomGhost;
}
);
layerId = "D6DAFCCC-80B4-447A-AB8D-F3640E986932";
paths = (
{
closed = 1;
nodes = (
"473 -15 OFFCURVE",
"565 113 OFFCURVE",
"565 300 CURVE SMOOTH",
"565 489 OFFCURVE",
"472 615 OFFCURVE",
"296 615 CURVE SMOOTH",
"152 615 OFFCURVE",
"77 530 OFFCURVE",
"51 408 CURVE",
"153 408 LINE",
"173 484 OFFCURVE",
"219 529 OFFCURVE",
"295 529 CURVE SMOOTH",
"400 529 OFFCURVE",
"454 445 OFFCURVE",
"460 328 CURVE",
"45 328 LINE",
"45 297 LINE SMOOTH",
"45 94 OFFCURVE",
"133 -15 OFFCURVE",
"297 -15 CURVE SMOOTH"
);
},
{
closed = 1;
nodes = (
"209 71 OFFCURVE",
"154 134 OFFCURVE",
"150 250 CURVE",
"459 250 LINE",
"447 137 OFFCURVE",
"393 71 OFFCURVE",
"298 71 CURVE SMOOTH"
);
}
);
width = 610;
},
{
layerId = "2C59C6D3-D4C2-4A05-8DF2-5125000072A2";
paths = (
{
closed = 1;
nodes = (
"498 -15 OFFCURVE",
"600 104 OFFCURVE",
"600 299 CURVE SMOOTH",
"600 494 OFFCURVE",
"499 615 OFFCURVE",
"309 615 CURVE SMOOTH",
"141 615 OFFCURVE",
"60 518 OFFCURVE",
"42 408 CURVE",
"196 408 LINE",
"208 458 OFFCURVE",
"246 501 OFFCURVE",
"309 501 CURVE SMOOTH",
"388 501 OFFCURVE",
"435 439 OFFCURVE",
"442 338 CURVE",
"34 338 LINE",
"34 304 LINE SMOOTH",
"34 95 OFFCURVE",
"133 -15 OFFCURVE",
"311 -15 CURVE SMOOTH"
);
},
{
closed = 1;
nodes = (
"237 93 OFFCURVE",
"198 145 OFFCURVE",
"192 241 CURVE",
"442 241 LINE",
"432 140 OFFCURVE",
"385 93 OFFCURVE",
"312 93 CURVE SMOOTH"
);
}
);
width = 630;
}
);
leftKerningGroup = c;
rightKerningGroup = b;
unicode = 0259;
},
{
color = 6;
glyphname = f;
lastChange = "2022-02-18 13:14:15 +0000";
layers = (
{
background = {
paths = (
{
closed = 1;
nodes = (
"223 0 LINE",
"223 516 LINE",
"320 516 LINE",
"320 600 LINE",
"223 600 LINE",
"223 626 LINE SMOOTH",
"223 683 OFFCURVE",
"223 716 OFFCURVE",
"291 716 CURVE SMOOTH",
"302 716 OFFCURVE",
"315 715 OFFCURVE",
"320 714 CURVE",
"320 800 LINE",
"310 801 OFFCURVE",
"298 802 OFFCURVE",
"284 802 CURVE SMOOTH",
"118 802 OFFCURVE",
"118 680 OFFCURVE",
"118 620 CURVE SMOOTH",
"118 600 LINE",
"30 600 LINE",
"30 516 LINE",
"118 516 LINE",
"118 0 LINE"
);
}
);
};
hints = (
{
horizontal = 1;
origin = "{0, 23}";
target = up;
type = BottomGhost;
},
{
horizontal = 1;
origin = "{0, 20}";
target = "{0, 21}";
type = Stem;
},
{
horizontal = 1;
origin = "{0, 8}";
target = "{0, 15}";
type = Stem;
},
{
origin = "{0, 23}";
target = "{0, 0}";
type = Stem;
}
);
layerId = "D6DAFCCC-80B4-447A-AB8D-F3640E986932";
paths = (
{
closed = 1;
nodes = (
"222 0 LINE",
"222 516 LINE",
"320 516 LINE",
"320 600 LINE",
"222 600 LINE",
"222 638 LINE SMOOTH",
"222 685 OFFCURVE",
"231 716 OFFCURVE",
"290 716 CURVE SMOOTH",
"301 716 OFFCURVE",
"313 715 OFFCURVE",
"320 713 CURVE",
"320 799 LINE",
"309 801 OFFCURVE",
"297 802 OFFCURVE",
"282 802 CURVE SMOOTH",
"158 802 OFFCURVE",
"118 728 OFFCURVE",
"118 639 CURVE SMOOTH",
"118 600 LINE",
"30 600 LINE",
"30 516 LINE",
"118 516 LINE",
"118 0 LINE"
);
}
);
width = 350;
},
{
layerId = "2C59C6D3-D4C2-4A05-8DF2-5125000072A2";
paths = (
{
closed = 1;
nodes = (
"272 0 LINE",
"272 486 LINE",
"370 486 LINE",
"370 600 LINE",
"272 600 LINE",
"272 630 LINE SMOOTH",
"272 674 OFFCURVE",
"289 692 OFFCURVE",
"335 692 CURVE SMOOTH",
"346 692 OFFCURVE",
"360 691 OFFCURVE",
"370 689 CURVE",
"370 799 LINE",
"351 801 OFFCURVE",
"332 802 OFFCURVE",
"313 802 CURVE SMOOTH",
"164 802 OFFCURVE",
"114 739 OFFCURVE",
"114 636 CURVE SMOOTH",
"114 600 LINE",
"30 600 LINE",
"30 486 LINE",
"114 486 LINE",
"114 0 LINE"
);
}
);
width = 400;
},
{
associatedMasterId = "D6DAFCCC-80B4-447A-AB8D-F3640E986932";
background = {
paths = (
{
closed = 1;
nodes = (
"223 0 LINE",
"223 516 LINE",
"320 516 LINE",
"320 600 LINE",
"223 600 LINE",
"223 626 LINE SMOOTH",
"223 683 OFFCURVE",
"223 716 OFFCURVE",
"291 716 CURVE SMOOTH",
"302 716 OFFCURVE",
"315 715 OFFCURVE",
"320 714 CURVE",
"320 800 LINE",
"310 801 OFFCURVE",
"298 802 OFFCURVE",
"284 802 CURVE SMOOTH",
"118 802 OFFCURVE",
"118 680 OFFCURVE",
"118 620 CURVE SMOOTH",
"118 600 LINE",
"30 600 LINE",
"30 516 LINE",
"118 516 LINE",
"118 0 LINE"
);
}
);
};
hints = (
{
horizontal = 1;
origin = "{0, 23}";
target = up;
type = BottomGhost;
},
{
horizontal = 1;
origin = "{0, 20}";
target = "{0, 21}";
type = Stem;
},
{
horizontal = 1;
origin = "{0, 15}";
target = "{0, 8}";
type = Stem;
},
{
origin = "{0, 23}";
target = "{0, 0}";
type = Stem;
}
);
layerId = "FADFCF2D-CE4E-4B26-B025-BE75BEA812B4";
name = "20 Aug 21, 08:42";
paths = (
{
closed = 1;
nodes = (
"223 0 LINE",
"223 516 LINE",
"320 516 LINE",
"320 600 LINE",
"223 600 LINE",
"223 626 LINE SMOOTH",
"223 683 OFFCURVE",
"223 716 OFFCURVE",
"291 716 CURVE SMOOTH",
"302 716 OFFCURVE",
"315 715 OFFCURVE",
"320 714 CURVE",
"320 800 LINE",
"310 801 OFFCURVE",
"298 802 OFFCURVE",
"284 802 CURVE SMOOTH",
"118 802 OFFCURVE",
"118 680 OFFCURVE",
"118 620 CURVE SMOOTH",
"118 600 LINE",
"30 600 LINE",
"30 516 LINE",
"118 516 LINE",
"118 0 LINE"
);
}
);
width = 350;
},
{
associatedMasterId = "2C59C6D3-D4C2-4A05-8DF2-5125000072A2";
layerId = "D4FFFC2B-C5C7-40D4-A330-5422FED22086";
name = "20 Aug 21, 09:36";
paths = (
{
closed = 1;
nodes = (
"272 0 LINE",
"272 486 LINE",
"370 486 LINE",
"370 600 LINE",
"272 600 LINE",
"272 618 LINE SMOOTH",
"272 661 OFFCURVE",
"272 692 OFFCURVE",
"336 692 CURVE SMOOTH",
"348 692 OFFCURVE",
"363 691 OFFCURVE",
"370 690 CURVE",
"370 800 LINE",
"361 801 OFFCURVE",
"331 802 OFFCURVE",
"313 802 CURVE SMOOTH",
"114 802 OFFCURVE",
"114 685 OFFCURVE",
"114 612 CURVE SMOOTH",
"114 600 LINE",
"30 600 LINE",
"30 486 LINE",
"114 486 LINE",
"114 0 LINE"
);
}
);
visible = 1;
width = 400;
}
);
leftKerningGroup = f;
rightKerningGroup = f;
unicode = 0066;
},
{
color = 6;
glyphname = g;
lastChange = "2022-02-18 13:14:15 +0000";
layers = (
{
anchors = (
{
name = bottom;
position = "{324, -200}";
},
{
name = top;
position = "{324, 600}";
}
);
background = {
paths = (
{
closed = 1;
nodes = (
"472 -214 OFFCURVE",
"562 -121 OFFCURVE",
"562 48 CURVE SMOOTH",
"562 600 LINE",
"472 600 LINE",
"472 500 LINE",
"452 500 LINE",
"409 573 OFFCURVE",
"354 615 OFFCURVE",
"271 615 CURVE SMOOTH",
"131 615 OFFCURVE",
"45 498 OFFCURVE",
"45 314 CURVE SMOOTH",
"45 128 OFFCURVE",
"134 13 OFFCURVE",
"269 13 CURVE SMOOTH",
"357 13 OFFCURVE",
"415 65 OFFCURVE",
"444 120 CURVE",
"465 120 LINE",
"465 55 LINE SMOOTH",
"465 -70 OFFCURVE",
"406 -130 OFFCURVE",
"310 -130 CURVE SMOOTH",
"229 -130 OFFCURVE",
"190 -94 OFFCURVE",
"177 -50 CURVE",
"72 -50 LINE",
"87 -123 OFFCURVE",
"144 -214 OFFCURVE",
"308 -214 CURVE SMOOTH"
);
},
{
closed = 1;
nodes = (
"204 103 OFFCURVE",
"153 179 OFFCURVE",
"153 314 CURVE SMOOTH",
"153 448 OFFCURVE",
"204 525 OFFCURVE",
"298 525 CURVE SMOOTH",
"396 525 OFFCURVE",
"461 439 OFFCURVE",
"461 314 CURVE SMOOTH",
"461 190 OFFCURVE",
"397 103 OFFCURVE",
"299 103 CURVE SMOOTH"
);
}
);
};
guideLines = (
{
position = "{462, 522}";
},
{
angle = 90;
position = "{448, 510}";
},
{
angle = 180;
position = "{455, 106}";
}
);
hints = (
{
horizontal = 1;
origin = "{0, 30}";
target = "{0, 23}";
type = Stem;
},
{
horizontal = 1;
origin = "{0, 15}";
target = "{1, 11}";
type = Stem;
},
{
horizontal = 1;
origin = "{0, 9}";
target = "{1, 5}";
type = Stem;
},
{
horizontal = 1;
origin = "{0, 4}";
target = down;
type = TopGhost;
},
{
origin = "{0, 12}";
target = "{1, 2}";
type = Stem;
},
{
origin = "{0, 20}";
target = "{0, 2}";
type = Stem;
},
{
origin = "{1, 8}";
target = "{0, 2}";
type = Stem;
},
{
horizontal = 1;
origin = "{0, 27}";
target = down;
type = TopGhost;
}
);
layerId = "D6DAFCCC-80B4-447A-AB8D-F3640E986932";
paths = (
{
closed = 1;
nodes = (
"475 -214 OFFCURVE",
"564 -127 OFFCURVE",
"564 33 CURVE SMOOTH",
"564 600 LINE",
"468 600 LINE",
"468 522 LINE",
"444 522 LINE",
"421 571 OFFCURVE",
"375 615 OFFCURVE",
"283 615 CURVE SMOOTH",
"134 615 OFFCURVE",
"45 500 OFFCURVE",
"45 316 CURVE SMOOTH",
"45 128 OFFCURVE",
"137 13 OFFCURVE",
"285 13 CURVE SMOOTH",
"373 13 OFFCURVE",
"422 53 OFFCURVE",
"444 106 CURVE",
"468 106 LINE",
"468 39 LINE SMOOTH",
"468 -80 OFFCURVE",
"413 -130 OFFCURVE",
"317 -130 CURVE SMOOTH",
"228 -130 OFFCURVE",
"188 -88 OFFCURVE",
"180 -42 CURVE",
"72 -42 LINE",
"83 -119 OFFCURVE",
"141 -214 OFFCURVE",
"312 -214 CURVE SMOOTH"
);
},
{
closed = 1;
nodes = (
"205 103 OFFCURVE",
"153 179 OFFCURVE",
"153 314 CURVE SMOOTH",
"153 448 OFFCURVE",
"205 525 OFFCURVE",
"299 525 CURVE SMOOTH",
"399 525 OFFCURVE",
"459 439 OFFCURVE",
"459 314 CURVE SMOOTH",
"459 191 OFFCURVE",
"400 103 OFFCURVE",
"298 103 CURVE SMOOTH"
);
}
);
width = 650;
},
{
anchors = (
{
name = bottom;
position = "{338, -200}";
},
{
name = top;
position = "{338, 600}";
}
);
guideLines = (
{
position = "{141, -24}";
},
{
position = "{141, 30}";
}
);
layerId = "2C59C6D3-D4C2-4A05-8DF2-5125000072A2";
paths = (
{
closed = 1;
nodes = (
"517 -215 OFFCURVE",
"606 -120 OFFCURVE",
"606 45 CURVE SMOOTH",
"606 600 LINE",
"456 600 LINE",
"456 528 LINE",
"432 528 LINE",
"408 581 OFFCURVE",
"360 615 OFFCURVE",
"277 615 CURVE SMOOTH",
"114 615 OFFCURVE",
"34 491 OFFCURVE",
"34 317 CURVE SMOOTH",
"34 135 OFFCURVE",
"118 18 OFFCURVE",
"274 18 CURVE SMOOTH",
"357 18 OFFCURVE",
"407 52 OFFCURVE",
"426 110 CURVE",
"450 110 LINE",
"450 39 LINE SMOOTH",
"450 -50 OFFCURVE",
"409 -101 OFFCURVE",
"326 -101 CURVE SMOOTH",
"253 -101 OFFCURVE",
"226 -63 OFFCURVE",
"220 -24 CURVE",
"62 -24 LINE",
"68 -87 OFFCURVE",
"104 -215 OFFCURVE",
"328 -215 CURVE SMOOTH"
);
},
{
closed = 1;
nodes = (
"245 132 OFFCURVE",
"198 191 OFFCURVE",
"198 317 CURVE SMOOTH",
"198 440 OFFCURVE",
"245 501 OFFCURVE",
"318 501 CURVE SMOOTH",
"397 501 OFFCURVE",
"444 430 OFFCURVE",
"444 317 CURVE SMOOTH",
"444 204 OFFCURVE",
"397 132 OFFCURVE",
"318 132 CURVE SMOOTH"
);
}
);
width = 680;
}
);
leftKerningGroup = g;
rightKerningGroup = g;
unicode = 0067;
},
{
color = 6;
glyphname = h;
lastChange = "2022-02-18 13:14:15 +0000";
layers = (
{
anchors = (
{
name = bottom;
position = "{330, 0}";
},
{
name = center;
position = "{180, 700}";
},
{
name = top;
position = "{141, 800}";
}
);
guideLines = (
{
angle = 90;
position = "{218, 510}";
}
);
hints = (
{
horizontal = 1;
origin = "{0, 20}";
target = up;
type = BottomGhost;
},
{
horizontal = 1;
origin = "{0, 13}";
target = "{0, 4}";
type = Stem;
},
{
origin = "{0, 20}";
target = "{0, 0}";
type = Stem;
},
{
origin = "{0, 8}";
target = "{0, 9}";
type = Stem;
},
{
horizontal = 1;
origin = "{0, 19}";
target = down;
type = TopGhost;
}
);
layerId = "D6DAFCCC-80B4-447A-AB8D-F3640E986932";
paths = (
{
closed = 1;
nodes = (
"194 0 LINE",
"194 323 LINE SMOOTH",
"194 436 OFFCURVE",
"251 523 OFFCURVE",
"349 523 CURVE SMOOTH",
"428 523 OFFCURVE",
"464 466 OFFCURVE",
"464 362 CURVE SMOOTH",
"464 0 LINE",
"572 0 LINE",
"572 385 LINE SMOOTH",
"572 519 OFFCURVE",
"511 615 OFFCURVE",
"374 615 CURVE SMOOTH",
"297 615 OFFCURVE",
"247 582 OFFCURVE",
"218 522 CURVE",
"194 522 LINE",
"194 800 LINE",
"86 800 LINE",
"86 0 LINE"
);
}
);
width = 650;
},
{
anchors = (
{
name = bottom;
position = "{344, 0}";
},
{
name = center;
position = "{192, 700}";
},
{
name = top;
position = "{154, 800}";
}
);
background = {
paths = (
{
closed = 1;
nodes = (
"236 0 LINE",
"236 324 LINE SMOOTH",
"236 414 OFFCURVE",
"280 483 OFFCURVE",
"358 483 CURVE SMOOTH",
"424 483 OFFCURVE",
"452 436 OFFCURVE",
"452 354 CURVE SMOOTH",
"452 0 LINE",
"614 0 LINE",
"614 381 LINE SMOOTH",
"614 525 OFFCURVE",
"547 615 OFFCURVE",
"414 615 CURVE SMOOTH",
"317 615 OFFCURVE",
"275 570 OFFCURVE",
"248 510 CURVE",
"224 510 LINE",
"231 549 OFFCURVE",
"236 579 OFFCURVE",
"236 630 CURVE SMOOTH",
"236 800 LINE",
"74 800 LINE",
"74 0 LINE"
);
}
);
};
guideLines = (
{
angle = 90;
position = "{260, 510}";
}
);
layerId = "2C59C6D3-D4C2-4A05-8DF2-5125000072A2";
paths = (
{
closed = 1;
nodes = (
"236 0 LINE",
"236 324 LINE SMOOTH",
"236 414 OFFCURVE",
"280 483 OFFCURVE",
"358 483 CURVE SMOOTH",
"424 483 OFFCURVE",
"452 436 OFFCURVE",
"452 354 CURVE SMOOTH",
"452 0 LINE",
"614 0 LINE",
"614 381 LINE SMOOTH",
"614 525 OFFCURVE",
"547 615 OFFCURVE",
"414 615 CURVE SMOOTH",
"330 615 OFFCURVE",
"287 578 OFFCURVE",
"260 528 CURVE",
"236 528 LINE",
"236 800 LINE",
"74 800 LINE",
"74 0 LINE"
);
}
);
width = 680;
},
{
anchors = (
{
name = bottom;
position = "{330, 0}";
},
{
name = center;
position = "{180, 700}";
},
{
name = top;
position = "{141, 800}";
}
);
associatedMasterId = "D6DAFCCC-80B4-447A-AB8D-F3640E986932";
hints = (
{
horizontal = 1;
origin = "{0, 20}";
target = up;
type = BottomGhost;
},
{
horizontal = 1;
place = "{614, -105}";
type = Stem;
},
{
horizontal = 1;
origin = "{0, 19}";
target = down;
type = TopGhost;
},
{
origin = "{0, 20}";
target = "{0, 17}";
type = Stem;
},
{
place = "{462, 108}";
type = Stem;
}
);
layerId = "0D51802E-5981-44BC-85E1-C1687E81D38A";
name = "20 Aug 21, 08:57";
paths = (
{
closed = 1;
nodes = (
"196 0 LINE",
"196 323 LINE SMOOTH",
"196 436 OFFCURVE",
"251 522 OFFCURVE",
"349 522 CURVE SMOOTH",
"428 522 OFFCURVE",
"462 466 OFFCURVE",
"462 362 CURVE SMOOTH",
"462 0 LINE",
"570 0 LINE",
"570 385 LINE SMOOTH",
"570 519 OFFCURVE",
"512 614 OFFCURVE",
"372 614 CURVE SMOOTH",
"285 614 OFFCURVE",
"228 577 OFFCURVE",
"208 509 CURVE",
"194 509 LINE",
"194 800 LINE",
"88 800 LINE",
"88 0 LINE"
);
}
);
width = 650;
}
);
leftKerningGroup = b;
rightKerningGroup = h;
unicode = 0068;
},
{
color = 6;
glyphname = idotless;
lastChange = "2022-02-18 13:14:15 +0000";
layers = (
{
anchors = (
{
name = bottom;
position = "{140, 0}";
},
{
name = ogonek;
position = "{194, 0}";
},
{
name = top;
position = "{140, 600}";
}
);
hints = (
{
horizontal = 1;
origin = "{0, 3}";
target = up;
type = BottomGhost;
},
{
horizontal = 1;
origin = "{0, 2}";
target = down;
type = TopGhost;
},
{
origin = "{0, 3}";
target = "{0, 0}";
type = Stem;
}
);
layerId = "D6DAFCCC-80B4-447A-AB8D-F3640E986932";
paths = (
{
closed = 1;
nodes = (
"194 0 LINE",
"194 600 LINE",
"86 600 LINE",
"86 0 LINE"
);
}
);
width = 280;
},
{
anchors = (
{
name = bottom;
position = "{155, 0}";
},
{
name = ogonek;
position = "{236, 0}";
},
{
name = top;
position = "{155, 600}";
}
);
layerId = "2C59C6D3-D4C2-4A05-8DF2-5125000072A2";
paths = (
{
closed = 1;
nodes = (
"236 0 LINE",
"236 600 LINE",
"74 600 LINE",
"74 0 LINE"
);
}
);
width = 310;
}
);
leftKerningGroup = m;
rightKerningGroup = u;
unicode = 0131;
},
{
color = 6;
glyphname = jdotless;
lastChange = "2022-02-18 13:14:15 +0000";
layers = (
{
anchors = (
{
name = bottom;
position = "{140, -200}";
},
{
name = top;
position = "{140, 600}";
}
);
hints = (
{
horizontal = 1;
origin = "{0, 5}";
target = down;
type = TopGhost;
},
{
origin = "{0, 6}";
target = "{0, 3}";
type = Stem;
},
{
horizontal = 1;
origin = "{0, 10}";
target = up;
type = BottomGhost;
}
);
layerId = "D6DAFCCC-80B4-447A-AB8D-F3640E986932";
paths = (
{
closed = 1;
nodes = (
"139 -200 LINE",
"167 -164 OFFCURVE",
"194 -123 OFFCURVE",
"194 -21 CURVE SMOOTH",
"194 600 LINE",
"86 600 LINE",
"86 -7 LINE SMOOTH",
"86 -103 OFFCURVE",
"59 -155 OFFCURVE",
"26 -194 CURVE",
"26 -200 LINE"
);
}
);
width = 280;
},
{
anchors = (
{
name = bottom;
position = "{154, -200}";
},
{
name = top;
position = "{155, 600}";
}
);
layerId = "2C59C6D3-D4C2-4A05-8DF2-5125000072A2";
paths = (
{
closed = 1;
nodes = (
"179 -200 LINE",
"212 -160 OFFCURVE",
"236 -116 OFFCURVE",
"236 -21 CURVE SMOOTH",
"236 600 LINE",
"74 600 LINE",
"74 -4 LINE SMOOTH",
"74 -92 OFFCURVE",
"52 -149 OFFCURVE",
"12 -194 CURVE",
"12 -200 LINE"
);
}
);
width = 310;
}
);
leftKerningGroup = i;
rightKerningGroup = i;
unicode = 0237;
},
{
color = 6;
glyphname = k;
lastChange = "2022-02-18 13:14:15 +0000";
layers = (
{
anchors = (
{
name = bottom;
position = "{312, 0}";
},
{
name = top;
position = "{141, 800}";
}
);
background = {
paths = (
{
closed = 1;
nodes = (
"194 0 LINE",
"194 260 LINE",
"246 260 LINE",
"450 0 LINE",
"586 0 LINE",
"586 1 LINE",
"330 318 LINE",
"558 599 LINE",
"558 600 LINE",
"436 600 LINE",
"246 360 LINE",
"194 360 LINE",
"194 800 LINE",
"88 800 LINE",
"88 0 LINE"
);
}
);
};
hints = (
{
horizontal = 1;
origin = "{0, 14}";
target = up;
type = BottomGhost;
},
{
horizontal = 1;
origin = "{0, 1}";
target = "{0, 11}";
type = Stem;
},
{
horizontal = 1;
origin = "{0, 9}";
target = down;
type = TopGhost;
},
{
origin = "{0, 14}";
target = "{0, 0}";
type = Stem;
},
{
horizontal = 1;
origin = "{0, 13}";
target = down;
type = TopGhost;
}
);
layerId = "D6DAFCCC-80B4-447A-AB8D-F3640E986932";
paths = (
{
closed = 1;
nodes = (
"194 0 LINE",
"194 265 LINE",
"242 265 LINE",
"450 0 LINE",
"582 0 LINE",
"582 6 LINE",
"330 318 LINE",
"558 594 LINE",
"558 600 LINE",
"438 600 LINE",
"242 355 LINE",
"194 355 LINE",
"194 800 LINE",
"88 800 LINE",
"88 0 LINE"
);
}
);
width = 600;
},
{
anchors = (
{
name = bottom;
position = "{343, 0}";
},
{
name = top;
position = "{154, 800}";
}
);
background = {
paths = (
{
closed = 1;
nodes = (
"231 0 LINE",
"231 244 LINE",
"286 244 LINE",
"459 0 LINE",
"651 0 LINE",
"651 1 LINE",
"417 320 LINE",
"627 599 LINE",
"627 600 LINE",
"452 600 LINE",
"286 376 LINE",
"231 376 LINE",
"231 800 LINE",
"73 800 LINE",
"73 0 LINE"
);
}
);
};
layerId = "2C59C6D3-D4C2-4A05-8DF2-5125000072A2";
paths = (
{
closed = 1;
nodes = (
"236 0 LINE",
"236 250 LINE",
"284 250 LINE",
"459 0 LINE",
"648 0 LINE",
"648 6 LINE",
"419 320 LINE",
"624 594 LINE",
"624 600 LINE",
"452 600 LINE",
"284 370 LINE",
"236 370 LINE",
"236 800 LINE",
"74 800 LINE",
"74 0 LINE"
);
}
);
width = 660;
},
{
anchors = (
{
name = bottom;
position = "{343, 0}";
},
{
name = top;
position = "{154, 800}";
}
);
associatedMasterId = "2C59C6D3-D4C2-4A05-8DF2-5125000072A2";
background = {
paths = (
{
closed = 1;
nodes = (
"231 0 LINE",
"231 244 LINE",
"286 244 LINE",
"459 0 LINE",
"651 0 LINE",
"651 1 LINE",
"417 320 LINE",
"627 599 LINE",
"627 600 LINE",
"452 600 LINE",
"286 376 LINE",
"231 376 LINE",
"231 800 LINE",
"73 800 LINE",
"73 0 LINE"
);
}
);
};
layerId = "07F3B45F-7DCF-4116-BADC-C28C8289BF1D";
name = "20 Aug 21, 09:53";
paths = (
{
closed = 1;
nodes = (
"231 0 LINE",
"231 244 LINE",
"286 244 LINE",
"459 0 LINE",
"651 0 LINE",
"651 1 LINE",
"417 320 LINE",
"627 599 LINE",
"627 600 LINE",
"452 600 LINE",
"286 376 LINE",
"231 376 LINE",
"231 800 LINE",
"73 800 LINE",
"73 0 LINE"
);
}
);
width = 660;
}
);
leftKerningGroup = b;
rightKerningGroup = k;
unicode = 006B;
},
{
color = 6;
glyphname = kgreenlandic;
lastChange = "2022-02-18 13:14:15 +0000";
layers = (
{
hints = (
{
horizontal = 1;
origin = "{0, 14}";
target = up;
type = BottomGhost;
},
{
horizontal = 1;
origin = "{0, 1}";
target = "{0, 11}";
type = Stem;
},
{
horizontal = 1;
origin = "{0, 13}";
target = down;
type = TopGhost;
},
{
origin = "{0, 14}";
target = "{0, 0}";
type = Stem;
}
);
layerId = "D6DAFCCC-80B4-447A-AB8D-F3640E986932";
paths = (
{
closed = 1;
nodes = (
"194 0 LINE",
"194 265 LINE",
"242 265 LINE",
"450 0 LINE",
"582 0 LINE",
"582 6 LINE",
"330 318 LINE",
"558 594 LINE",
"558 600 LINE",
"438 600 LINE",
"242 355 LINE",
"194 355 LINE",
"194 600 LINE",
"88 600 LINE",
"88 0 LINE"
);
}
);
width = 600;
},
{
layerId = "2C59C6D3-D4C2-4A05-8DF2-5125000072A2";
paths = (
{
closed = 1;
nodes = (
"236 0 LINE",
"236 250 LINE",
"284 250 LINE",
"459 0 LINE",
"648 0 LINE",
"648 6 LINE",
"419 320 LINE",
"624 594 LINE",
"624 600 LINE",
"452 600 LINE",
"284 370 LINE",
"236 370 LINE",
"236 600 LINE",
"74 600 LINE",
"74 0 LINE"
);
}
);
width = 660;
}
);
leftKerningGroup = m;
rightKerningGroup = k;
unicode = 0138;
},
{
color = 6;
glyphname = l;
lastChange = "2022-02-18 13:14:15 +0000";
layers = (
{
anchors = (
{
name = bottom;
position = "{178, 0}";
},
{
name = center;
position = "{309, 330}";
},
{
name = slash;
position = "{135, 360}";
},
{
name = top;
position = "{135, 800}";
},
{
name = topright;
position = "{189, 800}";
}
);
guideLines = (
{
angle = 90;
position = "{189, 498}";
}
);
hints = (
{
horizontal = 1;
origin = "{0, 10}";
target = up;
type = BottomGhost;
},
{
origin = "{0, 7}";
target = "{0, 4}";
type = Stem;
},
{
horizontal = 1;
origin = "{0, 6}";
target = down;
type = TopGhost;
}
);
layerId = "D6DAFCCC-80B4-447A-AB8D-F3640E986932";
paths = (
{
closed = 1;
nodes = (
"249 0 LINE",
"249 6 LINE",
"216 42 OFFCURVE",
"189 86 OFFCURVE",
"189 193 CURVE SMOOTH",
"189 800 LINE",
"81 800 LINE",
"81 179 LINE SMOOTH",
"81 77 OFFCURVE",
"100 36 OFFCURVE",
"130 0 CURVE"
);
}
);
width = 280;
},
{
anchors = (
{
name = bottom;
position = "{198, 0}";
},
{
name = center;
position = "{350, 330}";
},
{
name = slash;
position = "{153, 360}";
},
{
name = top;
position = "{158, 800}";
},
{
name = topright;
position = "{234, 800}";
}
);
guideLines = (
{
angle = 90;
position = "{234, 498}";
}
);
layerId = "2C59C6D3-D4C2-4A05-8DF2-5125000072A2";
paths = (
{
closed = 1;
nodes = (
"296 0 LINE",
"296 6 LINE",
"259 45 OFFCURVE",
"234 95 OFFCURVE",
"234 196 CURVE SMOOTH",
"234 800 LINE",
"72 800 LINE",
"72 179 LINE SMOOTH",
"72 91 OFFCURVE",
"86 42 OFFCURVE",
"123 0 CURVE"
);
}
);
width = 314;
}
);
leftKerningGroup = b;
rightKerningGroup = d;
unicode = 006C;
},
{
color = 6;
glyphname = m;
lastChange = "2022-02-18 13:14:15 +0000";
layers = (
{
hints = (
{
horizontal = 1;
origin = "{0, 36}";
target = up;
type = BottomGhost;
},
{
horizontal = 1;
origin = "{0, 29}";
target = "{0, 4}";
type = Stem;
},
{
horizontal = 1;
origin = "{0, 35}";
target = down;
type = TopGhost;
},
{
origin = "{0, 36}";
target = "{0, 0}";
type = Stem;
},
{
origin = "{0, 8}";
target = "{0, 9}";
type = Stem;
},
{
origin = "{0, 17}";
target = "{0, 18}";
type = Stem;
}
);
layerId = "D6DAFCCC-80B4-447A-AB8D-F3640E986932";
paths = (
{
closed = 1;
nodes = (
"194 0 LINE",
"194 323 LINE SMOOTH",
"194 436 OFFCURVE",
"245 523 OFFCURVE",
"335 523 CURVE SMOOTH",
"408 523 OFFCURVE",
"440 466 OFFCURVE",
"440 362 CURVE SMOOTH",
"440 0 LINE",
"548 0 LINE",
"548 323 LINE SMOOTH",
"548 436 OFFCURVE",
"599 523 OFFCURVE",
"689 523 CURVE SMOOTH",
"762 523 OFFCURVE",
"794 466 OFFCURVE",
"794 362 CURVE SMOOTH",
"794 0 LINE",
"902 0 LINE",
"902 385 LINE SMOOTH",
"902 519 OFFCURVE",
"846 615 OFFCURVE",
"714 615 CURVE SMOOTH",
"628 615 OFFCURVE",
"572 577 OFFCURVE",
"550 509 CURVE",
"526 509 LINE",
"500 574 OFFCURVE",
"446 615 OFFCURVE",
"360 615 CURVE SMOOTH",
"278 615 OFFCURVE",
"224 577 OFFCURVE",
"206 509 CURVE",
"182 509 LINE",
"182 600 LINE",
"86 600 LINE",
"86 0 LINE"
);
}
);
width = 980;
},
{
layerId = "2C59C6D3-D4C2-4A05-8DF2-5125000072A2";
paths = (
{
closed = 1;
nodes = (
"236 0 LINE",
"236 324 LINE SMOOTH",
"236 413 OFFCURVE",
"276 483 OFFCURVE",
"348 483 CURVE SMOOTH",
"408 483 OFFCURVE",
"433 435 OFFCURVE",
"433 354 CURVE SMOOTH",
"433 0 LINE",
"595 0 LINE",
"595 324 LINE SMOOTH",
"595 413 OFFCURVE",
"634 483 OFFCURVE",
"707 483 CURVE SMOOTH",
"767 483 OFFCURVE",
"792 435 OFFCURVE",
"792 354 CURVE SMOOTH",
"792 0 LINE",
"954 0 LINE",
"954 381 LINE SMOOTH",
"954 525 OFFCURVE",
"890 615 OFFCURVE",
"761 615 CURVE SMOOTH",
"672 615 OFFCURVE",
"624 570 OFFCURVE",
"600 510 CURVE",
"576 510 LINE",
"547 577 OFFCURVE",
"492 615 OFFCURVE",
"409 615 CURVE SMOOTH",
"316 615 OFFCURVE",
"270 567 OFFCURVE",
"248 510 CURVE",
"224 510 LINE",
"224 600 LINE",
"74 600 LINE",
"74 0 LINE"
);
}
);
width = 1020;
}
);
leftKerningGroup = m;
rightKerningGroup = h;
unicode = 006D;
},
{
color = 6;
glyphname = n;
lastChange = "2022-02-18 13:14:15 +0000";
layers = (
{
anchors = (
{
name = bottom;
position = "{330, 0}";
},
{
name = top;
position = "{330, 600}";
}
);
hints = (
{
horizontal = 1;
origin = "{0, 20}";
target = up;
type = BottomGhost;
},
{
horizontal = 1;
origin = "{0, 13}";
target = "{0, 4}";
type = Stem;
},
{
horizontal = 1;
origin = "{0, 19}";
target = down;
type = TopGhost;
},
{
origin = "{0, 20}";
target = "{0, 0}";
type = Stem;
},
{
origin = "{0, 8}";
target = "{0, 9}";
type = Stem;
}
);
layerId = "D6DAFCCC-80B4-447A-AB8D-F3640E986932";
paths = (
{
closed = 1;
nodes = (
"194 0 LINE",
"194 323 LINE SMOOTH",
"194 436 OFFCURVE",
"251 523 OFFCURVE",
"349 523 CURVE SMOOTH",
"428 523 OFFCURVE",
"464 466 OFFCURVE",
"464 362 CURVE SMOOTH",
"464 0 LINE",
"572 0 LINE",
"572 385 LINE SMOOTH",
"572 519 OFFCURVE",
"512 615 OFFCURVE",
"372 615 CURVE SMOOTH",
"285 615 OFFCURVE",
"228 577 OFFCURVE",
"206 510 CURVE",
"182 510 LINE",
"182 600 LINE",
"86 600 LINE",
"86 0 LINE"
);
}
);
width = 650;
},
{
anchors = (
{
name = bottom;
position = "{344, 0}";
},
{
name = top;
position = "{344, 600}";
}
);
background = {
paths = (
{
closed = 1;
nodes = (
"236 0 LINE",
"236 324 LINE SMOOTH",
"236 414 OFFCURVE",
"278 483 OFFCURVE",
"358 483 CURVE SMOOTH",
"424 483 OFFCURVE",
"452 436 OFFCURVE",
"452 354 CURVE SMOOTH",
"452 0 LINE",
"614 0 LINE",
"614 381 LINE SMOOTH",
"614 525 OFFCURVE",
"547 615 OFFCURVE",
"414 615 CURVE SMOOTH",
"317 615 OFFCURVE",
"262 570 OFFCURVE",
"242 510 CURVE",
"218 510 LINE",
"218 600 LINE",
"74 600 LINE",
"74 0 LINE"
);
}
);
};
layerId = "2C59C6D3-D4C2-4A05-8DF2-5125000072A2";
paths = (
{
closed = 1;
nodes = (
"236 0 LINE",
"236 324 LINE SMOOTH",
"236 414 OFFCURVE",
"280 483 OFFCURVE",
"358 483 CURVE SMOOTH",
"424 483 OFFCURVE",
"452 436 OFFCURVE",
"452 354 CURVE SMOOTH",
"452 0 LINE",
"614 0 LINE",
"614 381 LINE SMOOTH",
"614 525 OFFCURVE",
"547 615 OFFCURVE",
"414 615 CURVE SMOOTH",
"317 615 OFFCURVE",
"272 570 OFFCURVE",
"248 510 CURVE",
"224 510 LINE",
"224 600 LINE",
"74 600 LINE",
"74 0 LINE"
);
}
);
width = 680;
}
);
leftKerningGroup = m;
rightKerningGroup = h;
unicode = 006E;
},
{
color = 6;
glyphname = eng;
lastChange = "2022-02-18 13:14:15 +0000";
layers = (
{
anchors = (
{
name = bottom;
position = "{350, 0}";
},
{
name = top;
position = "{350, 600}";
}
);
hints = (
{
horizontal = 1;
origin = "{0, 14}";
target = up;
type = BottomGhost;
},
{
horizontal = 1;
origin = "{0, 7}";
target = "{0, 19}";
type = Stem;
},
{
horizontal = 1;
origin = "{0, 13}";
target = down;
type = TopGhost;
},
{
origin = "{0, 14}";
target = "{0, 15}";
type = Stem;
},
{
origin = "{0, 23}";
target = "{0, 3}";
type = Stem;
},
{
horizontal = 1;
origin = "{0, 0}";
target = up;
type = BottomGhost;
}
);
layerId = "D6DAFCCC-80B4-447A-AB8D-F3640E986932";
paths = (
{
closed = 1;
nodes = (
"517 -200 LINE",
"545 -164 OFFCURVE",
"572 -123 OFFCURVE",
"572 -21 CURVE SMOOTH",
"572 385 LINE SMOOTH",
"572 519 OFFCURVE",
"512 615 OFFCURVE",
"372 615 CURVE SMOOTH",
"285 615 OFFCURVE",
"228 577 OFFCURVE",
"206 510 CURVE",
"182 510 LINE",
"182 600 LINE",
"86 600 LINE",
"86 0 LINE",
"194 0 LINE",
"194 323 LINE SMOOTH",
"194 436 OFFCURVE",
"251 523 OFFCURVE",
"349 523 CURVE SMOOTH",
"428 523 OFFCURVE",
"464 466 OFFCURVE",
"464 362 CURVE SMOOTH",
"464 -7 LINE SMOOTH",
"464 -103 OFFCURVE",
"437 -155 OFFCURVE",
"404 -194 CURVE",
"404 -200 LINE"
);
}
);
width = 650;
},
{
anchors = (
{
name = bottom;
position = "{340, 0}";
},
{
name = top;
position = "{340, 600}";
}
);
layerId = "2C59C6D3-D4C2-4A05-8DF2-5125000072A2";
paths = (
{
closed = 1;
nodes = (
"557 -200 LINE",
"590 -160 OFFCURVE",
"614 -116 OFFCURVE",
"614 -21 CURVE SMOOTH",
"614 381 LINE SMOOTH",
"614 525 OFFCURVE",
"547 615 OFFCURVE",
"414 615 CURVE SMOOTH",
"317 615 OFFCURVE",
"272 570 OFFCURVE",
"248 510 CURVE",
"224 510 LINE",
"224 600 LINE",
"74 600 LINE",
"74 0 LINE",
"236 0 LINE",
"236 324 LINE SMOOTH",
"236 414 OFFCURVE",
"280 483 OFFCURVE",
"358 483 CURVE SMOOTH",
"424 483 OFFCURVE",
"452 436 OFFCURVE",
"452 354 CURVE SMOOTH",
"452 -4 LINE SMOOTH",
"452 -92 OFFCURVE",
"430 -149 OFFCURVE",
"390 -194 CURVE",
"390 -200 LINE"
);
}
);
width = 680;
}
);
leftKerningGroup = m;
rightKerningGroup = h;
unicode = 014B;
},
{
color = 6;
glyphname = o;
lastChange = "2022-02-18 13:14:15 +0000";
layers = (
{
anchors = (
{
name = bottom;
position = "{315, 0}";
},
{
name = center;
position = "{315, 300}";
},
{
name = ogonek;
position = "{404, 0}";
},
{
name = top;
position = "{315, 600}";
},
{
name = topright;
position = "{585, 600}";
}
);
hints = (
{
horizontal = 1;
origin = "{0, 11}";
target = "{1, 11}";
type = Stem;
},
{
horizontal = 1;
origin = "{0, 5}";
target = "{1, 5}";
type = Stem;
},
{
origin = "{0, 8}";
target = "{1, 2}";
type = Stem;
},
{
origin = "{1, 8}";
target = "{0, 2}";
type = Stem;
}
);
layerId = "D6DAFCCC-80B4-447A-AB8D-F3640E986932";
paths = (
{
closed = 1;
nodes = (
"498 -15 OFFCURVE",
"585 108 OFFCURVE",
"585 300 CURVE SMOOTH",
"585 492 OFFCURVE",
"498 615 OFFCURVE",
"315 615 CURVE SMOOTH",
"132 615 OFFCURVE",
"45 492 OFFCURVE",
"45 300 CURVE SMOOTH",
"45 108 OFFCURVE",
"132 -15 OFFCURVE",
"315 -15 CURVE SMOOTH"
);
},
{
closed = 1;
nodes = (
"204 73 OFFCURVE",
"155 160 OFFCURVE",
"155 300 CURVE SMOOTH",
"155 440 OFFCURVE",
"204 527 OFFCURVE",
"315 527 CURVE SMOOTH",
"426 527 OFFCURVE",
"475 440 OFFCURVE",
"475 300 CURVE SMOOTH",
"475 160 OFFCURVE",
"426 73 OFFCURVE",
"315 73 CURVE SMOOTH"
);
}
);
width = 630;
},
{
anchors = (
{
name = bottom;
position = "{330, 0}";
},
{
name = center;
position = "{330, 300}";
},
{
name = ogonek;
position = "{430, 0}";
},
{
name = top;
position = "{330, 600}";
},
{
name = topright;
position = "{640, 600}";
}
);
layerId = "2C59C6D3-D4C2-4A05-8DF2-5125000072A2";
paths = (
{
closed = 1;
nodes = (
"529 -15 OFFCURVE",
"626 108 OFFCURVE",
"626 300 CURVE SMOOTH",
"626 492 OFFCURVE",
"529 615 OFFCURVE",
"330 615 CURVE SMOOTH",
"131 615 OFFCURVE",
"34 492 OFFCURVE",
"34 300 CURVE SMOOTH",
"34 108 OFFCURVE",
"131 -15 OFFCURVE",
"330 -15 CURVE SMOOTH"
);
},
{
closed = 1;
nodes = (
"242 93 OFFCURVE",
"202 162 OFFCURVE",
"202 300 CURVE SMOOTH",
"202 438 OFFCURVE",
"242 507 OFFCURVE",
"330 507 CURVE SMOOTH",
"418 507 OFFCURVE",
"458 438 OFFCURVE",
"458 300 CURVE SMOOTH",
"458 162 OFFCURVE",
"418 93 OFFCURVE",
"330 93 CURVE SMOOTH"
);
}
);
width = 660;
}
);
leftKerningGroup = c;
rightKerningGroup = b;
unicode = 006F;
},
{
color = 6;
glyphname = ohorn;
lastChange = "2022-02-18 13:14:15 +0000";
layers = (
{
anchors = (
{
name = bottom;
position = "{327, 0}";
},
{
name = center;
position = "{315, 300}";
},
{
name = ogonek;
position = "{567, 10}";
},
{
name = top;
position = "{315, 600}";
}
);
hints = (
{
horizontal = 1;
origin = "{0, 22}";
target = "{1, 11}";
type = Stem;
},
{
horizontal = 1;
origin = "{0, 16}";
target = "{1, 5}";
type = Stem;
},
{
origin = "{0, 19}";
target = "{1, 2}";
type = Stem;
},
{
origin = "{1, 8}";
target = "{0, 2}";
type = Stem;
},
{
origin = "{0, 9}";
target = "{0, 8}";
type = Stem;
},
{
horizontal = 1;
origin = "{0, 13}";
target = down;
type = TopGhost;
},
{
horizontal = 1;
origin = "{0, 9}";
target = down;
type = TopGhost;
}
);
layerId = "D6DAFCCC-80B4-447A-AB8D-F3640E986932";
paths = (
{
closed = 1;
nodes = (
"498 -15 OFFCURVE",
"585 108 OFFCURVE",
"585 300 CURVE SMOOTH",
"585 361 OFFCURVE",
"576 414 OFFCURVE",
"559 459 CURVE",
"641 483 OFFCURVE",
"672 567 OFFCURVE",
"672 660 CURVE",
"588 660 LINE",
"588 598 OFFCURVE",
"578 544 OFFCURVE",
"547 522 CURVE",
"523 522 LINE",
"478 582 OFFCURVE",
"409 615 OFFCURVE",
"315 615 CURVE SMOOTH",
"132 615 OFFCURVE",
"45 492 OFFCURVE",
"45 300 CURVE SMOOTH",
"45 108 OFFCURVE",
"132 -15 OFFCURVE",
"315 -15 CURVE SMOOTH"
);
},
{
closed = 1;
nodes = (
"204 73 OFFCURVE",
"155 160 OFFCURVE",
"155 300 CURVE SMOOTH",
"155 440 OFFCURVE",
"204 527 OFFCURVE",
"315 527 CURVE SMOOTH",
"426 527 OFFCURVE",
"475 440 OFFCURVE",
"475 300 CURVE SMOOTH",
"475 160 OFFCURVE",
"426 73 OFFCURVE",
"315 73 CURVE SMOOTH"
);
}
);
width = 650;
},
{
anchors = (
{
name = bottom;
position = "{342, 0}";
},
{
name = center;
position = "{330, 300}";
},
{
name = ogonek;
position = "{594, 10}";
},
{
name = top;
position = "{330, 600}";
}
);
layerId = "2C59C6D3-D4C2-4A05-8DF2-5125000072A2";
paths = (
{
closed = 1;
nodes = (
"529 -15 OFFCURVE",
"626 108 OFFCURVE",
"626 300 CURVE SMOOTH",
"626 358 OFFCURVE",
"617 410 OFFCURVE",
"599 453 CURVE",
"674 479 OFFCURVE",
"712 553 OFFCURVE",
"712 660 CURVE",
"591 660 LINE",
"589 606 OFFCURVE",
"581 565 OFFCURVE",
"560 540 CURVE",
"536 540 LINE",
"491 589 OFFCURVE",
"421 615 OFFCURVE",
"330 615 CURVE SMOOTH",
"131 615 OFFCURVE",
"34 492 OFFCURVE",
"34 300 CURVE SMOOTH",
"34 108 OFFCURVE",
"131 -15 OFFCURVE",
"330 -15 CURVE SMOOTH"
);
},
{
closed = 1;
nodes = (
"242 93 OFFCURVE",
"202 162 OFFCURVE",
"202 300 CURVE SMOOTH",
"202 438 OFFCURVE",
"242 507 OFFCURVE",
"330 507 CURVE SMOOTH",
"418 507 OFFCURVE",
"458 438 OFFCURVE",
"458 300 CURVE SMOOTH",
"458 162 OFFCURVE",
"418 93 OFFCURVE",
"330 93 CURVE SMOOTH"
);
}
);
width = 680;
}
);
leftKerningGroup = c;
rightKerningGroup = ohorn;
unicode = 01A1;
},
{
color = 6;
glyphname = oslash;
lastChange = "2022-02-18 13:14:15 +0000";
layers = (
{
anchors = (
{
name = _center;
position = "{315, 300}";
},
{
name = bottom;
position = "{315, 0}";
},
{
name = center;
position = "{315, 300}";
},
{
name = ogonek;
position = "{567, 10}";
},
{
name = top;
position = "{315, 600}";
},
{
name = topright;
position = "{610, 600}";
}
);
hints = (
{
horizontal = 1;
origin = "{0, 3}";
target = "{1, 13}";
type = Stem;
},
{
horizontal = 1;
origin = "{0, 15}";
target = "{2, 5}";
type = Stem;
},
{
origin = "{0, 18}";
target = "{2, 2}";
type = Stem;
},
{
origin = "{1, 10}";
target = "{0, 6}";
type = Stem;
}
);
layerId = "D6DAFCCC-80B4-447A-AB8D-F3640E986932";
paths = (
{
closed = 1;
nodes = (
"142 40 LINE",
"185 4 OFFCURVE",
"243 -15 OFFCURVE",
"315 -15 CURVE SMOOTH",
"498 -15 OFFCURVE",
"585 108 OFFCURVE",
"585 300 CURVE SMOOTH",
"585 385 OFFCURVE",
"568 456 OFFCURVE",
"534 509 CURVE",
"596 584 LINE",
"545 629 LINE",
"488 560 LINE",
"445 596 OFFCURVE",
"387 615 OFFCURVE",
"315 615 CURVE SMOOTH",
"132 615 OFFCURVE",
"45 492 OFFCURVE",
"45 300 CURVE SMOOTH",
"45 215 OFFCURVE",
"62 144 OFFCURVE",
"96 91 CURVE",
"34 16 LINE",
"85 -29 LINE"
);
},
{
closed = 1;
nodes = (
"268 73 OFFCURVE",
"232 88 OFFCURVE",
"207 117 CURVE",
"410 360 LINE SMOOTH",
"429 382 OFFCURVE",
"441 403 OFFCURVE",
"445 420 CURVE",
"469 420 LINE",
"476 394 OFFCURVE",
"481 365 OFFCURVE",
"481 318 CURVE SMOOTH",
"481 160 OFFCURVE",
"426 73 OFFCURVE",
"315 73 CURVE SMOOTH"
);
},
{
closed = 1;
nodes = (
"154 206 OFFCURVE",
"149 235 OFFCURVE",
"149 282 CURVE SMOOTH",
"149 440 OFFCURVE",
"204 527 OFFCURVE",
"315 527 CURVE SMOOTH",
"362 527 OFFCURVE",
"398 512 OFFCURVE",
"423 483 CURVE",
"220 240 LINE SMOOTH",
"201 218 OFFCURVE",
"189 197 OFFCURVE",
"185 180 CURVE",
"161 180 LINE"
);
}
);
width = 630;
},
{
anchors = (
{
name = _center;
position = "{330, 300}";
},
{
name = bottom;
position = "{330, 0}";
},
{
name = center;
position = "{330, 300}";
},
{
name = ogonek;
position = "{594, 10}";
},
{
name = top;
position = "{330, 600}";
},
{
name = topright;
position = "{640, 600}";
}
);
layerId = "2C59C6D3-D4C2-4A05-8DF2-5125000072A2";
paths = (
{
closed = 1;
nodes = (
"152 32 LINE",
"197 2 OFFCURVE",
"257 -15 OFFCURVE",
"330 -15 CURVE SMOOTH",
"529 -15 OFFCURVE",
"626 108 OFFCURVE",
"626 300 CURVE SMOOTH",
"626 388 OFFCURVE",
"606 461 OFFCURVE",
"565 515 CURVE",
"617 576 LINE",
"553 631 LINE",
"502 572 LINE",
"457 600 OFFCURVE",
"400 615 OFFCURVE",
"330 615 CURVE SMOOTH",
"131 615 OFFCURVE",
"34 492 OFFCURVE",
"34 300 CURVE SMOOTH",
"34 215 OFFCURVE",
"53 144 OFFCURVE",
"91 91 CURVE",
"43 35 LINE",
"107 -20 LINE"
);
},
{
closed = 1;
nodes = (
"290 93 OFFCURVE",
"263 107 OFFCURVE",
"243 135 CURVE",
"384 300 LINE SMOOTH",
"412 332 OFFCURVE",
"429 355 OFFCURVE",
"440 381 CURVE",
"464 381 LINE",
"468 363 OFFCURVE",
"470 341 OFFCURVE",
"470 312 CURVE SMOOTH",
"470 163 OFFCURVE",
"418 93 OFFCURVE",
"330 93 CURVE SMOOTH"
);
},
{
closed = 1;
nodes = (
"192 243 OFFCURVE",
"190 261 OFFCURVE",
"190 289 CURVE SMOOTH",
"190 437 OFFCURVE",
"242 507 OFFCURVE",
"330 507 CURVE SMOOTH",
"367 507 OFFCURVE",
"395 495 OFFCURVE",
"416 471 CURVE",
"270 300 LINE SMOOTH",
"248 274 OFFCURVE",
"230 251 OFFCURVE",
"219 225 CURVE",
"195 225 LINE"
);
}
);
width = 660;
}
);
leftKerningGroup = c;
rightKerningGroup = b;
unicode = 00F8;
},
{
color = 6;
glyphname = oe;
lastChange = "2022-02-18 13:14:15 +0000";
layers = (
{
background = {
paths = (
{
closed = 1;
nodes = (
"355 -15 OFFCURVE",
"424 40 OFFCURVE",
"459 99 CURVE",
"483 99 LINE",
"519 32 OFFCURVE",
"590 -15 OFFCURVE",
"692 -15 CURVE SMOOTH",
"822 -15 OFFCURVE",
"903 64 OFFCURVE",
"932 180 CURVE",
"831 180 LINE",
"812 113 OFFCURVE",
"769 71 OFFCURVE",
"694 71 CURVE SMOOTH",
"591 71 OFFCURVE",
"540 154 OFFCURVE",
"535 281 CURVE",
"945 281 LINE",
"945 310 LINE SMOOTH",
"945 488 OFFCURVE",
"868 615 OFFCURVE",
"703 615 CURVE SMOOTH",
"602 615 OFFCURVE",
"546 569 OFFCURVE",
"513 520 CURVE",
"489 520 LINE",
"460 567 OFFCURVE",
"399 615 OFFCURVE",
"296 615 CURVE SMOOTH",
"150 615 OFFCURVE",
"73 522 OFFCURVE",
"59 410 CURVE",
"165 410 LINE",
"170 468 OFFCURVE",
"211 529 OFFCURVE",
"293 529 CURVE SMOOTH",
"373 529 OFFCURVE",
"430 471 OFFCURVE",
"430 384 CURVE SMOOTH",
"430 362 LINE",
"322 362 LINE SMOOTH",
"142 362 OFFCURVE",
"44 289 OFFCURVE",
"44 165 CURVE SMOOTH",
"44 55 OFFCURVE",
"132 -15 OFFCURVE",
"252 -15 CURVE SMOOTH"
);
},
{
closed = 1;
nodes = (
"199 71 OFFCURVE",
"155 107 OFFCURVE",
"155 169 CURVE SMOOTH",
"155 230 OFFCURVE",
"200 281 OFFCURVE",
"323 281 CURVE SMOOTH",
"430 281 LINE",
"430 247 LINE SMOOTH",
"430 156 OFFCURVE",
"362 71 OFFCURVE",
"265 71 CURVE SMOOTH"
);
},
{
closed = 1;
nodes = (
"546 460 OFFCURVE",
"596 529 OFFCURVE",
"691 529 CURVE SMOOTH",
"779 529 OFFCURVE",
"829 467 OFFCURVE",
"836 362 CURVE",
"536 362 LINE"
);
}
);
};
hints = (
{
horizontal = 1;
origin = "{0, 34}";
target = "{1, 11}";
type = Stem;
},
{
horizontal = 1;
origin = "{0, 16}";
target = "{2, 6}";
type = Stem;
},
{
horizontal = 1;
origin = "{0, 28}";
target = "{1, 5}";
type = Stem;
},
{
origin = "{0, 31}";
target = "{1, 2}";
type = Stem;
},
{
origin = "{1, 8}";
target = "{0, 16}";
type = Stem;
},
{
origin = "{2, 5}";
target = "{0, 17}";
type = Stem;
},
{
horizontal = 1;
origin = "{0, 10}";
target = down;
type = TopGhost;
}
);
layerId = "D6DAFCCC-80B4-447A-AB8D-F3640E986932";
paths = (
{
closed = 1;
nodes = (
"382 -15 OFFCURVE",
"439 32 OFFCURVE",
"477 92 CURVE",
"501 92 LINE",
"535 36 OFFCURVE",
"597 -15 OFFCURVE",
"701 -15 CURVE SMOOTH",
"832 -15 OFFCURVE",
"910 69 OFFCURVE",
"938 180 CURVE",
"843 180 LINE",
"824 116 OFFCURVE",
"781 73 OFFCURVE",
"703 73 CURVE SMOOTH",
"600 73 OFFCURVE",
"546 148 OFFCURVE",
"542 285 CURVE",
"945 285 LINE",
"945 314 LINE SMOOTH",
"945 518 OFFCURVE",
"854 615 OFFCURVE",
"699 615 CURVE SMOOTH",
"599 615 OFFCURVE",
"542 574 OFFCURVE",
"501 520 CURVE",
"477 520 LINE",
"438 573 OFFCURVE",
"382 615 OFFCURVE",
"292 615 CURVE SMOOTH",
"130 615 OFFCURVE",
"45 490 OFFCURVE",
"45 301 CURVE SMOOTH",
"45 109 OFFCURVE",
"131 -15 OFFCURVE",
"289 -15 CURVE SMOOTH"
);
},
{
closed = 1;
nodes = (
"203 73 OFFCURVE",
"155 160 OFFCURVE",
"155 300 CURVE SMOOTH",
"155 440 OFFCURVE",
"203 527 OFFCURVE",
"299 527 CURVE SMOOTH",
"394 527 OFFCURVE",
"441 439 OFFCURVE",
"441 300 CURVE SMOOTH",
"441 161 OFFCURVE",
"394 73 OFFCURVE",
"299 73 CURVE SMOOTH"
);
},
{
closed = 1;
nodes = (
"551 459 OFFCURVE",
"600 527 OFFCURVE",
"697 527 CURVE SMOOTH",
"787 527 OFFCURVE",
"833 472 OFFCURVE",
"839 362 CURVE",
"542 362 LINE"
);
}
);
width = 980;
},
{
layerId = "2C59C6D3-D4C2-4A05-8DF2-5125000072A2";
paths = (
{
closed = 1;
nodes = (
"413 -15 OFFCURVE",
"471 24 OFFCURVE",
"509 84 CURVE",
"527 84 LINE",
"563 24 OFFCURVE",
"627 -15 OFFCURVE",
"725 -15 CURVE SMOOTH",
"864 -15 OFFCURVE",
"949 67 OFFCURVE",
"980 180 CURVE",
"842 180 LINE",
"827 135 OFFCURVE",
"791 97 OFFCURVE",
"729 97 CURVE SMOOTH",
"651 97 OFFCURVE",
"601 161 OFFCURVE",
"596 263 CURVE",
"990 263 LINE",
"990 298 LINE SMOOTH",
"990 426 OFFCURVE",
"955 615 OFFCURVE",
"725 615 CURVE SMOOTH",
"629 615 OFFCURVE",
"571 582 OFFCURVE",
"529 522 CURVE",
"510 522 LINE",
"468 582 OFFCURVE",
"409 615 OFFCURVE",
"315 615 CURVE SMOOTH",
"129 615 OFFCURVE",
"34 486 OFFCURVE",
"34 301 CURVE SMOOTH",
"34 114 OFFCURVE",
"130 -15 OFFCURVE",
"313 -15 CURVE SMOOTH"
);
},
{
closed = 1;
nodes = (
"234 93 OFFCURVE",
"194 163 OFFCURVE",
"194 300 CURVE SMOOTH",
"194 437 OFFCURVE",
"234 507 OFFCURVE",
"319 507 CURVE SMOOTH",
"403 507 OFFCURVE",
"444 438 OFFCURVE",
"444 300 CURVE SMOOTH",
"444 162 OFFCURVE",
"403 93 OFFCURVE",
"319 93 CURVE SMOOTH"
);
},
{
closed = 1;
nodes = (
"604 453 OFFCURVE",
"647 507 OFFCURVE",
"721 507 CURVE SMOOTH",
"793 507 OFFCURVE",
"834 457 OFFCURVE",
"840 359 CURVE",
"596 359 LINE"
);
}
);
width = 1020;
}
);
leftKerningGroup = c;
rightKerningGroup = e;
unicode = 0153;
},
{
color = 6;
glyphname = p;
lastChange = "2022-02-18 13:14:15 +0000";
layers = (
{
hints = (
{
horizontal = 1;
origin = "{0, 5}";
target = "{1, 11}";
type = Stem;
},
{
horizontal = 1;
origin = "{0, 11}";
target = "{1, 5}";
type = Stem;
},
{
horizontal = 1;
origin = "{0, 17}";
target = down;
type = TopGhost;
},
{
origin = "{0, 18}";
target = "{0, 0}";
type = Stem;
},
{
origin = "{1, 8}";
target = "{0, 8}";
type = Stem;
}
);
layerId = "D6DAFCCC-80B4-447A-AB8D-F3640E986932";
paths = (
{
closed = 1;
nodes = (
"194 -200 LINE",
"194 72 LINE",
"218 72 LINE",
"244 20 OFFCURVE",
"294 -15 OFFCURVE",
"375 -15 CURVE SMOOTH",
"527 -15 OFFCURVE",
"615 109 OFFCURVE",
"615 300 CURVE SMOOTH",
"615 492 OFFCURVE",
"527 615 OFFCURVE",
"373 615 CURVE SMOOTH",
"281 615 OFFCURVE",
"227 570 OFFCURVE",
"206 522 CURVE",
"182 522 LINE",
"182 600 LINE",
"86 600 LINE",
"86 -200 LINE"
);
},
{
closed = 1;
nodes = (
"254 75 OFFCURVE",
"191 165 OFFCURVE",
"191 300 CURVE SMOOTH",
"191 435 OFFCURVE",
"254 525 OFFCURVE",
"354 525 CURVE SMOOTH",
"451 525 OFFCURVE",
"505 443 OFFCURVE",
"505 300 CURVE SMOOTH",
"505 157 OFFCURVE",
"451 75 OFFCURVE",
"354 75 CURVE SMOOTH"
);
}
);
width = 660;
},
{
layerId = "2C59C6D3-D4C2-4A05-8DF2-5125000072A2";
paths = (
{
closed = 1;
nodes = (
"236 -200 LINE",
"236 66 LINE",
"260 66 LINE",
"289 18 OFFCURVE",
"338 -12 OFFCURVE",
"416 -12 CURVE SMOOTH",
"576 -12 OFFCURVE",
"656 114 OFFCURVE",
"656 299 CURVE SMOOTH",
"656 480 OFFCURVE",
"580 612 OFFCURVE",
"416 612 CURVE SMOOTH",
"327 612 OFFCURVE",
"276 573 OFFCURVE",
"248 522 CURVE",
"224 522 LINE",
"224 600 LINE",
"74 600 LINE",
"74 -200 LINE"
);
},
{
closed = 1;
nodes = (
"289 102 OFFCURVE",
"236 178 OFFCURVE",
"236 300 CURVE SMOOTH",
"236 422 OFFCURVE",
"289 498 OFFCURVE",
"370 498 CURVE SMOOTH",
"443 498 OFFCURVE",
"488 432 OFFCURVE",
"488 300 CURVE SMOOTH",
"488 168 OFFCURVE",
"443 102 OFFCURVE",
"370 102 CURVE SMOOTH"
);
}
);
width = 690;
},
{
associatedMasterId = "2C59C6D3-D4C2-4A05-8DF2-5125000072A2";
layerId = "3657D9C5-EECC-4CC5-9E9C-F45343152B7F";
name = "20 Aug 21, 09:32";
paths = (
{
closed = 1;
nodes = (
"232 -200 LINE",
"232 78 LINE",
"254 78 LINE",
"274 21 OFFCURVE",
"326 -15 OFFCURVE",
"413 -15 CURVE SMOOTH",
"580 -15 OFFCURVE",
"656 117 OFFCURVE",
"656 301 CURVE SMOOTH",
"656 489 OFFCURVE",
"576 615 OFFCURVE",
"414 615 CURVE SMOOTH",
"327 615 OFFCURVE",
"274 579 OFFCURVE",
"254 522 CURVE",
"228 522 LINE",
"228 600 LINE",
"72 600 LINE",
"72 -200 LINE"
);
},
{
closed = 1;
nodes = (
"286 99 OFFCURVE",
"232 178 OFFCURVE",
"232 300 CURVE SMOOTH",
"232 422 OFFCURVE",
"286 501 OFFCURVE",
"368 501 CURVE SMOOTH",
"443 501 OFFCURVE",
"488 435 OFFCURVE",
"488 300 CURVE SMOOTH",
"488 165 OFFCURVE",
"443 99 OFFCURVE",
"368 99 CURVE SMOOTH"
);
}
);
width = 690;
}
);
leftKerningGroup = p;
rightKerningGroup = b;
unicode = 0070;
},
{
color = 6;
glyphname = thorn;
lastChange = "2022-02-18 13:14:15 +0000";
layers = (
{
hints = (
{
horizontal = 1;
origin = "{0, 5}";
target = "{1, 11}";
type = Stem;
},
{
horizontal = 1;
origin = "{0, 11}";
target = "{1, 5}";
type = Stem;
},
{
origin = "{0, 18}";
target = "{0, 0}";
type = Stem;
},
{
origin = "{1, 8}";
target = "{0, 8}";
type = Stem;
},
{
horizontal = 1;
origin = "{0, 17}";
target = down;
type = TopGhost;
},
{
horizontal = 1;
origin = "{0, 18}";
target = up;
type = BottomGhost;
}
);
layerId = "D6DAFCCC-80B4-447A-AB8D-F3640E986932";
paths = (
{
closed = 1;
nodes = (
"194 -200 LINE",
"194 72 LINE",
"218 72 LINE",
"244 20 OFFCURVE",
"294 -15 OFFCURVE",
"375 -15 CURVE SMOOTH",
"527 -15 OFFCURVE",
"615 109 OFFCURVE",
"615 300 CURVE SMOOTH",
"615 493 OFFCURVE",
"526 615 OFFCURVE",
"375 615 CURVE SMOOTH",
"294 615 OFFCURVE",
"244 580 OFFCURVE",
"218 528 CURVE",
"194 528 LINE",
"194 800 LINE",
"86 800 LINE",
"86 -200 LINE"
);
},
{
closed = 1;
nodes = (
"254 75 OFFCURVE",
"191 165 OFFCURVE",
"191 300 CURVE SMOOTH",
"191 435 OFFCURVE",
"254 525 OFFCURVE",
"354 525 CURVE SMOOTH",
"451 525 OFFCURVE",
"505 443 OFFCURVE",
"505 300 CURVE SMOOTH",
"505 157 OFFCURVE",
"451 75 OFFCURVE",
"354 75 CURVE SMOOTH"
);
}
);
width = 660;
},
{
layerId = "2C59C6D3-D4C2-4A05-8DF2-5125000072A2";
paths = (
{
closed = 1;
nodes = (
"236 -200 LINE",
"236 66 LINE",
"260 66 LINE",
"289 18 OFFCURVE",
"338 -12 OFFCURVE",
"416 -12 CURVE SMOOTH",
"576 -12 OFFCURVE",
"656 114 OFFCURVE",
"656 299 CURVE SMOOTH",
"656 480 OFFCURVE",
"580 612 OFFCURVE",
"416 612 CURVE SMOOTH",
"338 612 OFFCURVE",
"289 582 OFFCURVE",
"260 534 CURVE",
"236 534 LINE",
"236 800 LINE",
"74 800 LINE",
"74 -200 LINE"
);
},
{
closed = 1;
nodes = (
"289 102 OFFCURVE",
"236 178 OFFCURVE",
"236 300 CURVE SMOOTH",
"236 422 OFFCURVE",
"289 498 OFFCURVE",
"370 498 CURVE SMOOTH",
"443 498 OFFCURVE",
"488 432 OFFCURVE",
"488 300 CURVE SMOOTH",
"488 168 OFFCURVE",
"443 102 OFFCURVE",
"370 102 CURVE SMOOTH"
);
}
);
width = 690;
},
{
associatedMasterId = "D6DAFCCC-80B4-447A-AB8D-F3640E986932";
hints = (
{
horizontal = 1;
origin = "{0, 18}";
target = up;
type = BottomGhost;
},
{
horizontal = 1;
origin = "{0, 5}";
target = "{1, 11}";
type = Stem;
},
{
horizontal = 1;
origin = "{0, 11}";
target = "{1, 5}";
type = Stem;
},
{
horizontal = 1;
origin = "{0, 17}";
target = down;
type = TopGhost;
},
{
origin = "{0, 18}";
target = "{0, 0}";
type = Stem;
},
{
origin = "{1, 8}";
target = "{0, 8}";
type = Stem;
}
);
layerId = "E97EB99E-EE06-4E39-B833-1EA519D180BE";
name = "23 Aug 21, 14:50";
paths = (
{
closed = 1;
nodes = (
"194 -200 LINE",
"194 90 LINE",
"206 90 LINE",
"235 41 OFFCURVE",
"292 -15 OFFCURVE",
"388 -15 CURVE SMOOTH",
"524 -15 OFFCURVE",
"615 97 OFFCURVE",
"615 300 CURVE SMOOTH",
"615 503 OFFCURVE",
"524 615 OFFCURVE",
"388 615 CURVE SMOOTH",
"292 615 OFFCURVE",
"235 559 OFFCURVE",
"206 510 CURVE",
"194 510 LINE",
"194 800 LINE",
"88 800 LINE",
"88 -200 LINE"
);
},
{
closed = 1;
nodes = (
"260 75 OFFCURVE",
"192 161 OFFCURVE",
"192 300 CURVE SMOOTH",
"192 439 OFFCURVE",
"260 525 OFFCURVE",
"355 525 CURVE SMOOTH",
"444 525 OFFCURVE",
"503 452 OFFCURVE",
"503 300 CURVE SMOOTH",
"503 148 OFFCURVE",
"444 75 OFFCURVE",
"355 75 CURVE SMOOTH"
);
}
);
width = 660;
}
);
leftKerningGroup = b;
rightKerningGroup = b;
unicode = 00FE;
},
{
color = 6;
glyphname = q;
lastChange = "2022-02-18 13:14:15 +0000";
layers = (
{
hints = (
{
horizontal = 1;
origin = "{0, 13}";
target = "{1, 11}";
type = Stem;
},
{
horizontal = 1;
origin = "{0, 7}";
target = "{1, 5}";
type = Stem;
},
{
horizontal = 1;
origin = "{0, 2}";
target = down;
type = TopGhost;
},
{
origin = "{0, 10}";
target = "{1, 2}";
type = Stem;
},
{
origin = "{0, 18}";
target = "{0, 0}";
type = Stem;
},
{
horizontal = 1;
origin = "{0, 18}";
target = up;
type = BottomGhost;
}
);
layerId = "D6DAFCCC-80B4-447A-AB8D-F3640E986932";
paths = (
{
closed = 1;
nodes = (
"574 -200 LINE",
"574 600 LINE",
"478 600 LINE",
"478 522 LINE",
"454 522 LINE",
"433 570 OFFCURVE",
"379 615 OFFCURVE",
"287 615 CURVE SMOOTH",
"133 615 OFFCURVE",
"45 492 OFFCURVE",
"45 300 CURVE SMOOTH",
"45 109 OFFCURVE",
"133 -15 OFFCURVE",
"285 -15 CURVE SMOOTH",
"366 -15 OFFCURVE",
"416 20 OFFCURVE",
"442 72 CURVE",
"466 72 LINE",
"466 -200 LINE"
);
},
{
closed = 1;
nodes = (
"209 75 OFFCURVE",
"155 157 OFFCURVE",
"155 300 CURVE SMOOTH",
"155 443 OFFCURVE",
"209 525 OFFCURVE",
"306 525 CURVE SMOOTH",
"406 525 OFFCURVE",
"469 435 OFFCURVE",
"469 300 CURVE SMOOTH",
"469 165 OFFCURVE",
"406 75 OFFCURVE",
"306 75 CURVE SMOOTH"
);
}
);
width = 660;
},
{
layerId = "2C59C6D3-D4C2-4A05-8DF2-5125000072A2";
paths = (
{
closed = 1;
nodes = (
"618 -200 LINE",
"618 600 LINE",
"468 600 LINE",
"468 522 LINE",
"444 522 LINE",
"416 573 OFFCURVE",
"365 612 OFFCURVE",
"276 612 CURVE SMOOTH",
"112 612 OFFCURVE",
"36 480 OFFCURVE",
"36 299 CURVE SMOOTH",
"36 114 OFFCURVE",
"116 -12 OFFCURVE",
"276 -12 CURVE SMOOTH",
"354 -12 OFFCURVE",
"403 18 OFFCURVE",
"432 66 CURVE",
"456 66 LINE",
"456 -200 LINE"
);
},
{
closed = 1;
nodes = (
"249 102 OFFCURVE",
"204 168 OFFCURVE",
"204 300 CURVE SMOOTH",
"204 432 OFFCURVE",
"249 498 OFFCURVE",
"322 498 CURVE SMOOTH",
"403 498 OFFCURVE",
"456 422 OFFCURVE",
"456 300 CURVE SMOOTH",
"456 178 OFFCURVE",
"403 102 OFFCURVE",
"322 102 CURVE SMOOTH"
);
}
);
width = 690;
},
{
associatedMasterId = "2C59C6D3-D4C2-4A05-8DF2-5125000072A2";
layerId = "62F8CC21-C918-4333-98B0-57394382EB36";
name = "20 Aug 21, 09:32";
paths = (
{
closed = 1;
nodes = (
"618 -200 LINE",
"618 600 LINE",
"462 600 LINE",
"462 522 LINE",
"436 522 LINE",
"416 579 OFFCURVE",
"363 615 OFFCURVE",
"276 615 CURVE SMOOTH",
"114 615 OFFCURVE",
"34 489 OFFCURVE",
"34 301 CURVE SMOOTH",
"34 117 OFFCURVE",
"110 -15 OFFCURVE",
"277 -15 CURVE SMOOTH",
"364 -15 OFFCURVE",
"416 21 OFFCURVE",
"436 78 CURVE",
"458 78 LINE",
"458 -200 LINE"
);
},
{
closed = 1;
nodes = (
"247 99 OFFCURVE",
"202 165 OFFCURVE",
"202 300 CURVE SMOOTH",
"202 435 OFFCURVE",
"247 501 OFFCURVE",
"322 501 CURVE SMOOTH",
"404 501 OFFCURVE",
"458 422 OFFCURVE",
"458 300 CURVE SMOOTH",
"458 178 OFFCURVE",
"404 99 OFFCURVE",
"322 99 CURVE SMOOTH"
);
}
);
width = 690;
}
);
leftKerningGroup = c;
rightKerningGroup = q;
unicode = 0071;
},
{
color = 6;
glyphname = r;
lastChange = "2022-02-18 13:14:15 +0000";
layers = (
{
anchors = (
{
name = bottom;
position = "{142, 0}";
},
{
name = top;
position = "{239, 600}";
}
);
hints = (
{
horizontal = 1;
origin = "{0, 14}";
target = up;
type = BottomGhost;
},
{
horizontal = 1;
origin = "{0, 7}";
target = "{0, 4}";
type = Stem;
},
{
horizontal = 1;
origin = "{0, 13}";
target = down;
type = TopGhost;
},
{
origin = "{0, 14}";
target = "{0, 0}";
type = Stem;
}
);
layerId = "D6DAFCCC-80B4-447A-AB8D-F3640E986932";
paths = (
{
closed = 1;
nodes = (
"196 0 LINE",
"196 312 LINE SMOOTH",
"196 444 OFFCURVE",
"240 504 OFFCURVE",
"360 504 CURVE SMOOTH",
"390 504 LINE",
"390 606 LINE",
"370 606 LINE SMOOTH",
"250 606 OFFCURVE",
"220 548 OFFCURVE",
"208 498 CURVE",
"184 498 LINE",
"184 600 LINE",
"88 600 LINE",
"88 0 LINE"
);
}
);
width = 420;
},
{
anchors = (
{
name = bottom;
position = "{154, 0}";
},
{
name = top;
position = "{269, 600}";
}
);
layerId = "2C59C6D3-D4C2-4A05-8DF2-5125000072A2";
paths = (
{
closed = 1;
nodes = (
"234 0 LINE",
"234 288 LINE SMOOTH",
"234 402 OFFCURVE",
"282 460 OFFCURVE",
"396 460 CURVE SMOOTH",
"440 460 LINE",
"440 606 LINE",
"408 606 LINE SMOOTH",
"294 606 OFFCURVE",
"256 550 OFFCURVE",
"244 490 CURVE",
"220 490 LINE",
"220 600 LINE",
"72 600 LINE",
"72 0 LINE"
);
}
);
width = 470;
}
);
leftKerningGroup = m;
rightKerningGroup = r;
unicode = 0072;
},
{
color = 6;
glyphname = s;
lastChange = "2022-02-18 13:14:15 +0000";
layers = (
{
anchors = (
{
name = bottom;
position = "{285, 0}";
},
{
name = top;
position = "{265, 600}";
}
);
guideLines = (
{
angle = 159.487;
position = "{283, 253}";
},
{
angle = 159.487;
position = "{283, 353}";
},
{
angle = 71.487;
position = "{283, 303}";
},
{
angle = 71.487;
position = "{223, 303}";
},
{
angle = 71.487;
position = "{343, 303}";
}
);
hints = (
{
horizontal = 1;
origin = "{0, 39}";
target = "{0, 32}";
type = Stem;
},
{
horizontal = 1;
origin = "{0, 19}";
target = "{0, 12}";
type = Stem;
},
{
origin = "{0, 22}";
target = "{0, 9}";
type = Stem;
},
{
origin = "{0, 29}";
target = "{0, 2}";
type = Stem;
},
{
horizontal = 1;
origin = "{0, 15}";
target = up;
type = BottomGhost;
},
{
horizontal = 1;
origin = "{0, 36}";
target = down;
type = TopGhost;
}
);
layerId = "D6DAFCCC-80B4-447A-AB8D-F3640E986932";
paths = (
{
closed = 1;
nodes = (
"423 -15 OFFCURVE",
"500 57 OFFCURVE",
"500 160 CURVE SMOOTH",
"500 260 OFFCURVE",
"429 299 OFFCURVE",
"333 335 CURVE SMOOTH",
"262 359 LINE SMOOTH",
"198 383 OFFCURVE",
"166 410 OFFCURVE",
"166 455 CURVE SMOOTH",
"166 502 OFFCURVE",
"200 531 OFFCURVE",
"263 531 CURVE SMOOTH",
"342 531 OFFCURVE",
"372 482 OFFCURVE",
"378 432 CURVE",
"480 432 LINE",
"472 536 OFFCURVE",
"406 615 OFFCURVE",
"268 615 CURVE SMOOTH",
"140 615 OFFCURVE",
"62 548 OFFCURVE",
"62 446 CURVE SMOOTH",
"62 346 OFFCURVE",
"137 306 OFFCURVE",
"233 270 CURVE SMOOTH",
"304 245 LINE SMOOTH",
"367 222 OFFCURVE",
"396 194 OFFCURVE",
"396 151 CURVE SMOOTH",
"396 102 OFFCURVE",
"356 69 OFFCURVE",
"285 69 CURVE SMOOTH",
"188 69 OFFCURVE",
"146 132 OFFCURVE",
"140 192 CURVE",
"34 192 LINE",
"40 85 OFFCURVE",
"116 -15 OFFCURVE",
"282 -15 CURVE SMOOTH"
);
}
);
width = 540;
},
{
anchors = (
{
name = bottom;
position = "{295, 0}";
},
{
name = top;
position = "{277, 600}";
}
);
background = {
paths = (
{
closed = 1;
nodes = (
"459 -15 OFFCURVE",
"546 56 OFFCURVE",
"546 168 CURVE SMOOTH",
"546 393 OFFCURVE",
"199 334 OFFCURVE",
"199 453 CURVE SMOOTH",
"199 484 OFFCURVE",
"224 507 OFFCURVE",
"276 507 CURVE SMOOTH",
"333 507 OFFCURVE",
"365 479 OFFCURVE",
"372 435 CURVE",
"521 435 LINE",
"513 531 OFFCURVE",
"443 615 OFFCURVE",
"282 615 CURVE SMOOTH",
"133 615 OFFCURVE",
"49 544 OFFCURVE",
"49 438 CURVE SMOOTH",
"49 223 OFFCURVE",
"396 278 OFFCURVE",
"396 153 CURVE SMOOTH",
"396 116 OFFCURVE",
"364 93 OFFCURVE",
"300 93 CURVE SMOOTH",
"219 93 OFFCURVE",
"178 135 OFFCURVE",
"168 191 CURVE",
"20 191 LINE",
"28 95 OFFCURVE",
"98 -15 OFFCURVE",
"298 -15 CURVE SMOOTH"
);
}
);
};
guideLines = (
{
angle = 161.487;
position = "{298, 236}";
},
{
angle = 161.487;
position = "{298, 374}";
},
{
angle = 71.487;
position = "{298, 305}";
},
{
angle = 71.487;
position = "{238, 305}";
},
{
angle = 71.487;
position = "{358, 305}";
}
);
layerId = "2C59C6D3-D4C2-4A05-8DF2-5125000072A2";
paths = (
{
closed = 1;
nodes = (
"459 -15 OFFCURVE",
"546 59 OFFCURVE",
"546 171 CURVE SMOOTH",
"546 281 OFFCURVE",
"459 321 OFFCURVE",
"355 354 CURVE SMOOTH",
"283 377 LINE SMOOTH",
"225 396 OFFCURVE",
"198 416 OFFCURVE",
"198 451 CURVE SMOOTH",
"198 485 OFFCURVE",
"224 507 OFFCURVE",
"276 507 CURVE SMOOTH",
"333 507 OFFCURVE",
"367 480 OFFCURVE",
"374 432 CURVE",
"522 432 LINE",
"514 531 OFFCURVE",
"443 615 OFFCURVE",
"282 615 CURVE SMOOTH",
"133 615 OFFCURVE",
"48 543 OFFCURVE",
"48 436 CURVE SMOOTH",
"48 328 OFFCURVE",
"136 288 OFFCURVE",
"241 253 CURVE SMOOTH",
"313 229 LINE SMOOTH",
"371 210 OFFCURVE",
"396 190 OFFCURVE",
"396 158 CURVE SMOOTH",
"396 123 OFFCURVE",
"370 99 OFFCURVE",
"306 99 CURVE SMOOTH",
"228 99 OFFCURVE",
"184 139 OFFCURVE",
"174 192 CURVE",
"20 192 LINE",
"28 95 OFFCURVE",
"98 -15 OFFCURVE",
"298 -15 CURVE SMOOTH"
);
}
);
width = 570;
},
{
anchors = (
{
name = bottom;
position = "{295, 0}";
},
{
name = top;
position = "{277, 600}";
}
);
associatedMasterId = "2C59C6D3-D4C2-4A05-8DF2-5125000072A2";
guideLines = (
{
angle = 161.487;
position = "{298, 236}";
},
{
angle = 161.487;
position = "{298, 374}";
},
{
angle = 71.487;
position = "{298, 305}";
},
{
angle = 71.487;
position = "{238, 305}";
},
{
angle = 71.487;
position = "{358, 305}";
}
);
layerId = "274DDD14-BEF8-4D3E-BB3F-0BCF75DDC972";
name = "19 Aug 21, 14:32";
paths = (
{
closed = 1;
nodes = (
"459 -15 OFFCURVE",
"546 56 OFFCURVE",
"546 168 CURVE SMOOTH",
"546 393 OFFCURVE",
"199 334 OFFCURVE",
"199 453 CURVE SMOOTH",
"199 484 OFFCURVE",
"224 507 OFFCURVE",
"276 507 CURVE SMOOTH",
"333 507 OFFCURVE",
"365 479 OFFCURVE",
"372 435 CURVE",
"521 435 LINE",
"513 531 OFFCURVE",
"443 615 OFFCURVE",
"282 615 CURVE SMOOTH",
"133 615 OFFCURVE",
"49 544 OFFCURVE",
"49 438 CURVE SMOOTH",
"49 223 OFFCURVE",
"396 278 OFFCURVE",
"396 153 CURVE SMOOTH",
"396 116 OFFCURVE",
"364 93 OFFCURVE",
"300 93 CURVE SMOOTH",
"219 93 OFFCURVE",
"178 135 OFFCURVE",
"168 191 CURVE",
"20 191 LINE",
"28 95 OFFCURVE",
"98 -15 OFFCURVE",
"298 -15 CURVE SMOOTH"
);
}
);
width = 570;
},
{
anchors = (
{
name = bottom;
position = "{285, 0}";
},
{
name = top;
position = "{265, 600}";
}
);
associatedMasterId = "D6DAFCCC-80B4-447A-AB8D-F3640E986932";
guideLines = (
{
angle = 159.487;
position = "{283, 253}";
},
{
angle = 159.487;
position = "{283, 353}";
},
{
angle = 71.487;
position = "{283, 303}";
},
{
angle = 71.487;
position = "{223, 303}";
},
{
angle = 71.487;
position = "{343, 303}";
}
);
hints = (
{
horizontal = 1;
place = "{-15, 86}";
type = Stem;
},
{
horizontal = 1;
place = "{615, 86}";
type = Stem;
},
{
place = "{61, 102}";
type = Stem;
},
{
place = "{398, 102}";
type = Stem;
}
);
layerId = "3E929F3C-B421-4C84-A845-74A173780489";
name = "19 Aug 21, 14:36";
paths = (
{
closed = 1;
nodes = (
"423 -15 OFFCURVE",
"500 57 OFFCURVE",
"500 160 CURVE SMOOTH",
"500 374 OFFCURVE",
"166 312 OFFCURVE",
"166 455 CURVE SMOOTH",
"166 502 OFFCURVE",
"200 531 OFFCURVE",
"263 531 CURVE SMOOTH",
"342 531 OFFCURVE",
"372 482 OFFCURVE",
"378 432 CURVE",
"480 432 LINE",
"472 536 OFFCURVE",
"406 615 OFFCURVE",
"268 615 CURVE SMOOTH",
"140 615 OFFCURVE",
"62 548 OFFCURVE",
"62 446 CURVE SMOOTH",
"62 234 OFFCURVE",
"396 291 OFFCURVE",
"396 151 CURVE SMOOTH",
"396 102 OFFCURVE",
"356 69 OFFCURVE",
"285 69 CURVE SMOOTH",
"188 69 OFFCURVE",
"146 132 OFFCURVE",
"140 192 CURVE",
"34 192 LINE",
"40 85 OFFCURVE",
"116 -15 OFFCURVE",
"282 -15 CURVE SMOOTH"
);
}
);
visible = 1;
width = 540;
}
);
leftKerningGroup = s;
rightKerningGroup = s;
unicode = 0073;
},
{
color = 6;
glyphname = germandbls;
lastChange = "2022-02-18 13:14:15 +0000";
layers = (
{
background = {
paths = (
{
closed = 1;
nodes = (
"600 -12 OFFCURVE",
"688 67 OFFCURVE",
"688 184 CURVE SMOOTH",
"688 325 OFFCURVE",
"562 388 OFFCURVE",
"438 416 CURVE",
"438 432 LINE",
"564 474 OFFCURVE",
"631 532 OFFCURVE",
"631 628 CURVE SMOOTH",
"631 721 OFFCURVE",
"568 806 OFFCURVE",
"368 806 CURVE SMOOTH",
"88 806 OFFCURVE",
"88 639 OFFCURVE",
"88 570 CURVE SMOOTH",
"88 0 LINE",
"196 0 LINE",
"196 576 LINE SMOOTH",
"196 627 OFFCURVE",
"196 718 OFFCURVE",
"372 718 CURVE SMOOTH",
"477 718 OFFCURVE",
"522 686 OFFCURVE",
"522 626 CURVE SMOOTH",
"522 552 OFFCURVE",
"454 510 OFFCURVE",
"324 474 CURVE",
"324 360 LINE",
"452 335 OFFCURVE",
"580 290 OFFCURVE",
"580 179 CURVE SMOOTH",
"580 112 OFFCURVE",
"533 79 OFFCURVE",
"451 79 CURVE SMOOTH",
"393 79 OFFCURVE",
"339 95 OFFCURVE",
"299 112 CURVE",
"299 14 LINE",
"352 -4 OFFCURVE",
"409 -12 OFFCURVE",
"455 -12 CURVE SMOOTH"
);
}
);
};
guideLines = (
{
position = "{350, 456}";
},
{
position = "{335, 366}";
},
{
angle = 90;
position = "{207, 112}";
},
{
angle = 175.7636;
position = "{140, 552}";
}
);
hints = (
{
horizontal = 1;
origin = "{0, 41}";
target = up;
type = BottomGhost;
},
{
horizontal = 1;
origin = "{0, 4}";
target = "{0, 37}";
type = Stem;
},
{
horizontal = 1;
origin = "{0, 24}";
target = "{0, 17}";
type = Stem;
},
{
origin = "{0, 41}";
target = "{0, 0}";
type = Stem;
},
{
origin = "{0, 11}";
target = "{0, 30}";
type = Stem;
},
{
origin = "{0, 7}";
target = "{0, 34}";
type = Stem;
},
{
origin = "{0, 14}";
target = "{0, 27}";
type = Stem;
}
);
layerId = "D6DAFCCC-80B4-447A-AB8D-F3640E986932";
paths = (
{
closed = 1;
nodes = (
"194 0 LINE",
"194 548 LINE SMOOTH",
"194 659 OFFCURVE",
"258 718 OFFCURVE",
"370 718 CURVE SMOOTH",
"464 718 OFFCURVE",
"511 676 OFFCURVE",
"511 611 CURVE SMOOTH",
"511 531 OFFCURVE",
"439 492 OFFCURVE",
"326 456 CURVE",
"326 366 LINE",
"459 335 OFFCURVE",
"566 301 OFFCURVE",
"566 194 CURVE SMOOTH",
"566 124 OFFCURVE",
"521 78 OFFCURVE",
"425 78 CURVE SMOOTH",
"365 78 OFFCURVE",
"311 94 OFFCURVE",
"266 112 CURVE",
"266 14 LINE",
"321 -4 OFFCURVE",
"376 -12 OFFCURVE",
"425 -12 CURVE SMOOTH",
"587 -12 OFFCURVE",
"674 77 OFFCURVE",
"674 200 CURVE SMOOTH",
"674 329 OFFCURVE",
"577 387 OFFCURVE",
"452 414 CURVE",
"452 438 LINE",
"553 482 OFFCURVE",
"620 523 OFFCURVE",
"620 620 CURVE SMOOTH",
"620 705 OFFCURVE",
"569 806 OFFCURVE",
"377 806 CURVE SMOOTH",
"166 806 OFFCURVE",
"86 685 OFFCURVE",
"86 556 CURVE SMOOTH",
"86 0 LINE"
);
}
);
width = 710;
},
{
background = {
paths = (
{
closed = 1;
nodes = (
"640 -13 OFFCURVE",
"732 62 OFFCURVE",
"732 184 CURVE SMOOTH",
"732 317 OFFCURVE",
"624 380 OFFCURVE",
"480 416 CURVE",
"480 440 LINE",
"625 484 OFFCURVE",
"690 541 OFFCURVE",
"690 627 CURVE SMOOTH",
"690 719 OFFCURVE",
"618 806 OFFCURVE",
"391 806 CURVE SMOOTH",
"72 806 OFFCURVE",
"72 632 OFFCURVE",
"72 556 CURVE SMOOTH",
"72 0 LINE",
"234 0 LINE",
"234 543 LINE SMOOTH",
"234 594 OFFCURVE",
"234 688 OFFCURVE",
"389 688 CURVE SMOOTH",
"486 688 OFFCURVE",
"529 653 OFFCURVE",
"529 598 CURVE SMOOTH",
"529 532 OFFCURVE",
"471 489 OFFCURVE",
"360 460 CURVE",
"360 334 LINE",
"477 308 OFFCURVE",
"573 264 OFFCURVE",
"573 183 CURVE SMOOTH",
"573 131 OFFCURVE",
"530 103 OFFCURVE",
"462 103 CURVE SMOOTH",
"415 103 OFFCURVE",
"368 115 OFFCURVE",
"322 130 CURVE",
"322 11 LINE",
"361 -2 OFFCURVE",
"417 -13 OFFCURVE",
"479 -13 CURVE SMOOTH"
);
}
);
};
guideLines = (
{
angle = 90;
position = "{360, 71}";
},
{
angle = 175.7636;
position = "{140, 552}";
}
);
layerId = "2C59C6D3-D4C2-4A05-8DF2-5125000072A2";
paths = (
{
closed = 1;
nodes = (
"234 0 LINE",
"234 523 LINE SMOOTH",
"234 626 OFFCURVE",
"274 686 OFFCURVE",
"391 686 CURVE SMOOTH",
"479 686 OFFCURVE",
"523 653 OFFCURVE",
"523 597 CURVE SMOOTH",
"523 532 OFFCURVE",
"465 489 OFFCURVE",
"354 460 CURVE",
"354 334 LINE",
"475 320 OFFCURVE",
"558 277 OFFCURVE",
"558 193 CURVE SMOOTH",
"558 132 OFFCURVE",
"515 103 OFFCURVE",
"446 103 CURVE SMOOTH",
"399 103 OFFCURVE",
"352 115 OFFCURVE",
"306 130 CURVE",
"306 11 LINE",
"345 -2 OFFCURVE",
"401 -13 OFFCURVE",
"463 -13 CURVE SMOOTH",
"622 -13 OFFCURVE",
"720 68 OFFCURVE",
"720 196 CURVE SMOOTH",
"720 323 OFFCURVE",
"626 392 OFFCURVE",
"498 416 CURVE",
"498 440 LINE",
"619 472 OFFCURVE",
"684 522 OFFCURVE",
"684 615 CURVE SMOOTH",
"684 700 OFFCURVE",
"629 806 OFFCURVE",
"398 806 CURVE SMOOTH",
"157 806 OFFCURVE",
"72 690 OFFCURVE",
"72 536 CURVE SMOOTH",
"72 0 LINE"
);
}
);
width = 750;
},
{
associatedMasterId = "D6DAFCCC-80B4-447A-AB8D-F3640E986932";
background = {
paths = (
{
closed = 1;
nodes = (
"600 -12 OFFCURVE",
"688 67 OFFCURVE",
"688 184 CURVE SMOOTH",
"688 325 OFFCURVE",
"562 388 OFFCURVE",
"438 416 CURVE",
"438 432 LINE",
"564 474 OFFCURVE",
"631 532 OFFCURVE",
"631 628 CURVE SMOOTH",
"631 721 OFFCURVE",
"568 806 OFFCURVE",
"368 806 CURVE SMOOTH",
"88 806 OFFCURVE",
"88 639 OFFCURVE",
"88 570 CURVE SMOOTH",
"88 0 LINE",
"196 0 LINE",
"196 576 LINE SMOOTH",
"196 627 OFFCURVE",
"196 718 OFFCURVE",
"372 718 CURVE SMOOTH",
"477 718 OFFCURVE",
"522 686 OFFCURVE",
"522 626 CURVE SMOOTH",
"522 552 OFFCURVE",
"454 510 OFFCURVE",
"324 474 CURVE",
"324 360 LINE",
"452 335 OFFCURVE",
"580 290 OFFCURVE",
"580 179 CURVE SMOOTH",
"580 112 OFFCURVE",
"533 79 OFFCURVE",
"451 79 CURVE SMOOTH",
"393 79 OFFCURVE",
"339 95 OFFCURVE",
"299 112 CURVE",
"299 14 LINE",
"352 -4 OFFCURVE",
"409 -12 OFFCURVE",
"455 -12 CURVE SMOOTH"
);
}
);
};
hints = (
{
horizontal = 1;
origin = "{0, 41}";
target = "{0, 34}";
type = Stem;
},
{
horizontal = 1;
origin = "{0, 12}";
target = "{0, 21}";
type = Stem;
},
{
horizontal = 1;
origin = "{0, 16}";
target = up;
type = BottomGhost;
},
{
origin = "{0, 16}";
target = "{0, 17}";
type = Stem;
},
{
origin = "{0, 31}";
target = "{0, 2}";
type = Stem;
}
);
layerId = "0550B554-9863-4220-A5C9-2BF281C0A5FE";
name = "20 Aug 21, 15:39";
paths = (
{
closed = 1;
nodes = (
"600 -12 OFFCURVE",
"688 67 OFFCURVE",
"688 184 CURVE SMOOTH",
"688 325 OFFCURVE",
"562 388 OFFCURVE",
"438 416 CURVE",
"438 432 LINE",
"564 474 OFFCURVE",
"631 532 OFFCURVE",
"631 628 CURVE SMOOTH",
"631 721 OFFCURVE",
"568 806 OFFCURVE",
"368 806 CURVE SMOOTH",
"88 806 OFFCURVE",
"88 639 OFFCURVE",
"88 570 CURVE SMOOTH",
"88 0 LINE",
"196 0 LINE",
"196 576 LINE SMOOTH",
"196 627 OFFCURVE",
"196 718 OFFCURVE",
"372 718 CURVE SMOOTH",
"477 718 OFFCURVE",
"522 686 OFFCURVE",
"522 626 CURVE SMOOTH",
"522 552 OFFCURVE",
"454 510 OFFCURVE",
"324 474 CURVE",
"324 360 LINE",
"452 335 OFFCURVE",
"580 290 OFFCURVE",
"580 179 CURVE SMOOTH",
"580 112 OFFCURVE",
"533 79 OFFCURVE",
"451 79 CURVE SMOOTH",
"393 79 OFFCURVE",
"339 95 OFFCURVE",
"299 112 CURVE",
"299 14 LINE",
"352 -4 OFFCURVE",
"409 -12 OFFCURVE",
"455 -12 CURVE SMOOTH"
);
}
);
width = 710;
},
{
associatedMasterId = "2C59C6D3-D4C2-4A05-8DF2-5125000072A2";
guideLines = (
{
angle = 90;
position = "{322, 71}";
}
);
layerId = "EE1BA045-8E6F-4468-B71F-3CEB29B4CF97";
name = "23 Aug 21, 14:34";
paths = (
{
closed = 1;
nodes = (
"648 -13 OFFCURVE",
"742 62 OFFCURVE",
"742 184 CURVE SMOOTH",
"742 317 OFFCURVE",
"631 380 OFFCURVE",
"504 416 CURVE",
"504 430 LINE",
"625 475 OFFCURVE",
"690 534 OFFCURVE",
"690 622 CURVE SMOOTH",
"690 717 OFFCURVE",
"618 806 OFFCURVE",
"391 806 CURVE SMOOTH",
"72 806 OFFCURVE",
"72 632 OFFCURVE",
"72 556 CURVE SMOOTH",
"72 0 LINE",
"234 0 LINE",
"234 562 LINE SMOOTH",
"234 608 OFFCURVE",
"234 688 OFFCURVE",
"389 688 CURVE SMOOTH",
"486 688 OFFCURVE",
"529 657 OFFCURVE",
"529 608 CURVE SMOOTH",
"529 552 OFFCURVE",
"471 514 OFFCURVE",
"351 488 CURVE",
"351 338 LINE",
"483 312 OFFCURVE",
"583 264 OFFCURVE",
"583 183 CURVE SMOOTH",
"583 131 OFFCURVE",
"538 103 OFFCURVE",
"467 103 CURVE SMOOTH",
"418 103 OFFCURVE",
"368 115 OFFCURVE",
"322 130 CURVE",
"322 11 LINE",
"361 -2 OFFCURVE",
"418 -13 OFFCURVE",
"482 -13 CURVE SMOOTH"
);
}
);
width = 750;
}
);
leftKerningGroup = b;
rightKerningGroup = s;
unicode = 00DF;
},
{
color = 6;
glyphname = t;
lastChange = "2022-02-18 13:14:15 +0000";
layers = (
{
anchors = (
{
name = bottom;
position = "{195, 0}";
},
{
name = center;
position = "{175, 300}";
},
{
name = top;
position = "{175, 600}";
},
{
name = topright;
position = "{218, 900}";
}
);
guideLines = (
{
angle = 270;
position = "{218, 675}";
}
);
hints = (
{
horizontal = 1;
origin = "{0, 18}";
target = up;
type = BottomGhost;
},
{
horizontal = 1;
origin = "{0, 12}";
target = "{0, 13}";
type = Stem;
},
{
origin = "{0, 15}";
target = "{0, 4}";
type = Stem;
},
{
horizontal = 1;
origin = "{0, 10}";
target = down;
type = TopGhost;
}
);
layerId = "D6DAFCCC-80B4-447A-AB8D-F3640E986932";
paths = (
{
closed = 1;
nodes = (
"280 0 LINE",
"280 6 LINE",
"247 42 OFFCURVE",
"220 86 OFFCURVE",
"220 196 CURVE SMOOTH",
"220 516 LINE",
"320 516 LINE",
"320 600 LINE",
"218 600 LINE",
"218 750 LINE",
"114 750 LINE",
"114 600 LINE",
"30 600 LINE",
"30 516 LINE",
"112 516 LINE",
"112 179 LINE SMOOTH",
"112 77 OFFCURVE",
"131 36 OFFCURVE",
"161 0 CURVE"
);
}
);
width = 350;
},
{
anchors = (
{
name = bottom;
position = "{213, 0}";
},
{
name = center;
position = "{201, 300}";
},
{
name = top;
position = "{201, 600}";
},
{
name = topright;
position = "{273, 900}";
}
);
guideLines = (
{
angle = 270;
position = "{273, 675}";
}
);
layerId = "2C59C6D3-D4C2-4A05-8DF2-5125000072A2";
paths = (
{
closed = 1;
nodes = (
"334 0 LINE",
"334 6 LINE",
"300 42 OFFCURVE",
"273 90 OFFCURVE",
"273 196 CURVE SMOOTH",
"273 486 LINE",
"370 486 LINE",
"370 600 LINE",
"273 600 LINE",
"273 750 LINE",
"114 750 LINE",
"114 600 LINE",
"30 600 LINE",
"30 486 LINE",
"112 486 LINE",
"112 179 LINE SMOOTH",
"112 78 OFFCURVE",
"131 36 OFFCURVE",
"162 0 CURVE"
);
}
);
width = 400;
}
);
leftKerningGroup = t;
rightKerningGroup = t;
unicode = 0074;
},
{
color = 6;
glyphname = u;
lastChange = "2022-02-18 13:14:15 +0000";
layers = (
{
anchors = (
{
name = bottom;
position = "{326, 0}";
},
{
name = ogonek;
position = "{562, 0}";
},
{
name = top;
position = "{326, 600}";
},
{
name = topright;
position = "{626, 600}";
}
);
guideLines = (
{
angle = 90;
position = "{732, 600}";
}
);
hints = (
{
horizontal = 1;
origin = "{0, 20}";
target = "{0, 11}";
type = Stem;
},
{
horizontal = 1;
origin = "{0, 16}";
target = down;
type = TopGhost;
},
{
horizontal = 1;
origin = "{0, 4}";
target = up;
type = BottomGhost;
},
{
origin = "{0, 17}";
target = "{0, 14}";
type = Stem;
},
{
origin = "{0, 8}";
target = "{0, 5}";
type = Stem;
}
);
layerId = "D6DAFCCC-80B4-447A-AB8D-F3640E986932";
paths = (
{
closed = 1;
nodes = (
"365 -15 OFFCURVE",
"422 23 OFFCURVE",
"444 90 CURVE",
"468 90 LINE",
"468 0 LINE",
"564 0 LINE",
"564 600 LINE",
"456 600 LINE",
"456 277 LINE SMOOTH",
"456 164 OFFCURVE",
"399 77 OFFCURVE",
"301 77 CURVE SMOOTH",
"222 77 OFFCURVE",
"186 134 OFFCURVE",
"186 238 CURVE SMOOTH",
"186 600 LINE",
"78 600 LINE",
"78 215 LINE SMOOTH",
"78 81 OFFCURVE",
"138 -15 OFFCURVE",
"278 -15 CURVE SMOOTH"
);
}
);
width = 650;
},
{
anchors = (
{
name = bottom;
position = "{342, 0}";
},
{
name = ogonek;
position = "{608, 0}";
},
{
name = top;
position = "{342, 600}";
},
{
name = topright;
position = "{668, 600}";
}
);
guideLines = (
{
angle = 180;
position = "{300, 720}";
}
);
layerId = "2C59C6D3-D4C2-4A05-8DF2-5125000072A2";
paths = (
{
closed = 1;
nodes = (
"365 -15 OFFCURVE",
"416 30 OFFCURVE",
"436 90 CURVE",
"460 90 LINE",
"460 0 LINE",
"606 0 LINE",
"606 600 LINE",
"444 600 LINE",
"444 276 LINE SMOOTH",
"444 186 OFFCURVE",
"400 117 OFFCURVE",
"321 117 CURVE SMOOTH",
"256 117 OFFCURVE",
"228 164 OFFCURVE",
"228 246 CURVE SMOOTH",
"228 600 LINE",
"66 600 LINE",
"66 219 LINE SMOOTH",
"66 75 OFFCURVE",
"134 -15 OFFCURVE",
"268 -15 CURVE SMOOTH"
);
}
);
width = 680;
}
);
leftKerningGroup = u;
rightKerningGroup = u;
unicode = 0075;
},
{
color = 6;
glyphname = uhorn;
lastChange = "2022-02-18 13:14:15 +0000";
layers = (
{
anchors = (
{
name = bottom;
position = "{326, 0}";
},
{
name = ogonek;
position = "{562, 0}";
},
{
name = top;
position = "{326, 600}";
}
);
guideLines = (
{
position = "{228, 510}";
}
);
hints = (
{
horizontal = 1;
origin = "{0, 30}";
target = "{0, 21}";
type = Stem;
},
{
horizontal = 1;
origin = "{0, 26}";
target = "{0, 6}";
type = Stem;
},
{
horizontal = 1;
origin = "{0, 4}";
target = up;
type = BottomGhost;
},
{
origin = "{0, 27}";
target = "{0, 24}";
type = Stem;
},
{
origin = "{0, 18}";
target = "{0, 5}";
type = Stem;
},
{
origin = "{0, 11}";
target = "{0, 10}";
type = Stem;
},
{
horizontal = 1;
origin = "{0, 11}";
target = down;
type = TopGhost;
},
{
horizontal = 1;
origin = "{0, 15}";
target = down;
type = TopGhost;
}
);
layerId = "D6DAFCCC-80B4-447A-AB8D-F3640E986932";
paths = (
{
closed = 1;
nodes = (
"365 -15 OFFCURVE",
"422 23 OFFCURVE",
"444 90 CURVE",
"468 90 LINE",
"468 0 LINE",
"564 0 LINE",
"564 450 LINE",
"570 450 LINE SMOOTH",
"689 450 OFFCURVE",
"732 551 OFFCURVE",
"732 660 CURVE",
"648 660 LINE",
"648 591 OFFCURVE",
"627 534 OFFCURVE",
"582 510 CURVE",
"558 510 LINE",
"558 600 LINE",
"456 600 LINE",
"456 277 LINE SMOOTH",
"456 164 OFFCURVE",
"399 77 OFFCURVE",
"301 77 CURVE SMOOTH",
"222 77 OFFCURVE",
"186 134 OFFCURVE",
"186 238 CURVE SMOOTH",
"186 600 LINE",
"78 600 LINE",
"78 215 LINE SMOOTH",
"78 81 OFFCURVE",
"138 -15 OFFCURVE",
"278 -15 CURVE SMOOTH"
);
}
);
width = 710;
},
{
anchors = (
{
name = bottom;
position = "{342, 0}";
},
{
name = ogonek;
position = "{608, 0}";
},
{
name = top;
position = "{342, 600}";
}
);
layerId = "2C59C6D3-D4C2-4A05-8DF2-5125000072A2";
paths = (
{
closed = 1;
nodes = (
"363 -15 OFFCURVE",
"414 30 OFFCURVE",
"434 90 CURVE",
"462 90 LINE",
"462 0 LINE",
"608 0 LINE",
"608 444 LINE",
"614 444 LINE SMOOTH",
"716 444 OFFCURVE",
"772 531 OFFCURVE",
"772 660 CURVE",
"651 660 LINE",
"651 588 OFFCURVE",
"638 564 OFFCURVE",
"614 544 CURVE",
"590 544 LINE",
"590 600 LINE",
"446 600 LINE",
"446 276 LINE SMOOTH",
"446 186 OFFCURVE",
"402 117 OFFCURVE",
"322 117 CURVE SMOOTH",
"256 117 OFFCURVE",
"228 164 OFFCURVE",
"228 246 CURVE SMOOTH",
"228 600 LINE",
"66 600 LINE",
"66 219 LINE SMOOTH",
"66 75 OFFCURVE",
"133 -15 OFFCURVE",
"266 -15 CURVE SMOOTH"
);
}
);
width = 740;
}
);
leftKerningGroup = u;
rightKerningGroup = uhorn;
unicode = 01B0;
},
{
color = 6;
glyphname = v;
lastChange = "2022-02-18 13:14:15 +0000";
layers = (
{
hints = (
{
horizontal = 1;
origin = "{0, 9}";
target = "{0, 5}";
type = Stem;
},
{
horizontal = 1;
origin = "{0, 7}";
target = down;
type = TopGhost;
},
{
horizontal = 1;
origin = "{0, 9}";
target = up;
type = BottomGhost;
}
);
layerId = "D6DAFCCC-80B4-447A-AB8D-F3640E986932";
paths = (
{
closed = 1;
nodes = (
"370 0 LINE",
"552 594 LINE",
"552 600 LINE",
"452 600 LINE",
"301 90 LINE",
"277 90 LINE",
"126 600 LINE",
"18 600 LINE",
"18 594 LINE",
"200 0 LINE"
);
}
);
width = 570;
},
{
layerId = "2C59C6D3-D4C2-4A05-8DF2-5125000072A2";
paths = (
{
closed = 1;
nodes = (
"435 0 LINE",
"608 594 LINE",
"608 600 LINE",
"459 600 LINE",
"329 132 LINE",
"305 132 LINE",
"176 600 LINE",
"12 600 LINE",
"12 594 LINE",
"185 0 LINE"
);
}
);
width = 620;
}
);
leftKerningGroup = v;
rightKerningGroup = v;
unicode = 0076;
},
{
color = 6;
glyphname = w;
lastChange = "2022-02-18 13:14:15 +0000";
layers = (
{
anchors = (
{
name = bottom;
position = "{450, 0}";
},
{
name = top;
position = "{450, 600}";
}
);
hints = (
{
horizontal = 1;
origin = "{0, 17}";
target = "{0, 13}";
type = Stem;
},
{
horizontal = 1;
origin = "{0, 15}";
target = "{0, 1}";
type = Stem;
},
{
horizontal = 1;
origin = "{0, 14}";
target = down;
type = TopGhost;
},
{
horizontal = 1;
origin = "{0, 17}";
target = up;
type = BottomGhost;
}
);
layerId = "D6DAFCCC-80B4-447A-AB8D-F3640E986932";
paths = (
{
closed = 1;
nodes = (
"328 0 LINE",
"436 514 LINE",
"464 514 LINE",
"572 0 LINE",
"747 0 LINE",
"858 594 LINE",
"858 600 LINE",
"762 600 LINE",
"668 90 LINE",
"648 90 LINE",
"540 600 LINE",
"366 600 LINE",
"259 90 LINE",
"239 90 LINE",
"144 600 LINE",
"42 600 LINE",
"42 594 LINE",
"153 0 LINE"
);
}
);
width = 900;
},
{
anchors = (
{
name = bottom;
position = "{490, 0}";
},
{
name = top;
position = "{490, 600}";
}
);
layerId = "2C59C6D3-D4C2-4A05-8DF2-5125000072A2";
paths = (
{
closed = 1;
nodes = (
"393 0 LINE",
"478 483 LINE",
"502 483 LINE",
"587 0 LINE",
"851 0 LINE",
"942 599 LINE",
"942 600 LINE",
"802 600 LINE",
"731 120 LINE",
"707 120 LINE",
"624 600 LINE",
"366 600 LINE",
"283 120 LINE",
"259 120 LINE",
"188 600 LINE",
"38 600 LINE",
"38 599 LINE",
"129 0 LINE"
);
}
);
width = 980;
}
);
leftKerningGroup = w;
rightKerningGroup = w;
unicode = 0077;
},
{
color = 6;
glyphname = x;
lastChange = "2022-02-18 13:14:15 +0000";
layers = (
{
background = {
paths = (
{
closed = 1;
nodes = (
"125 0 LINE",
"268 244 LINE",
"286 244 LINE",
"429 0 LINE",
"545 0 LINE",
"545 1 LINE",
"350 321 LINE",
"518 599 LINE",
"518 600 LINE",
"414 600 LINE",
"292 394 LINE",
"274 394 LINE",
"150 600 LINE",
"40 600 LINE",
"40 599 LINE",
"210 319 LINE",
"15 1 LINE",
"15 0 LINE"
);
}
);
};
hints = (
{
horizontal = 1;
origin = "{0, 17}";
target = up;
type = BottomGhost;
},
{
horizontal = 1;
origin = "{0, 13}";
target = down;
type = TopGhost;
},
{
horizontal = 1;
origin = "{0, 1}";
target = up;
type = BottomGhost;
},
{
horizontal = 1;
origin = "{0, 11}";
target = down;
type = TopGhost;
}
);
layerId = "D6DAFCCC-80B4-447A-AB8D-F3640E986932";
paths = (
{
closed = 1;
nodes = (
"125 0 LINE",
"268 244 LINE",
"286 244 LINE",
"429 0 LINE",
"545 0 LINE",
"545 6 LINE",
"350 321 LINE",
"518 594 LINE",
"518 600 LINE",
"414 600 LINE",
"292 394 LINE",
"274 394 LINE",
"150 600 LINE",
"40 600 LINE",
"40 594 LINE",
"210 319 LINE",
"15 6 LINE",
"15 0 LINE"
);
}
);
width = 560;
},
{
layerId = "2C59C6D3-D4C2-4A05-8DF2-5125000072A2";
paths = (
{
closed = 1;
nodes = (
"180 0 LINE",
"290 210 LINE",
"314 210 LINE",
"428 0 LINE",
"608 0 LINE",
"608 6 LINE",
"430 316 LINE",
"583 594 LINE",
"583 600 LINE",
"420 600 LINE",
"328 420 LINE",
"304 420 LINE",
"208 600 LINE",
"31 600 LINE",
"31 594 LINE",
"194 312 LINE",
"12 6 LINE",
"12 0 LINE"
);
}
);
width = 620;
}
);
leftKerningGroup = x;
rightKerningGroup = x;
unicode = 0078;
},
{
color = 6;
glyphname = y;
lastChange = "2022-02-18 13:14:15 +0000";
layers = (
{
anchors = (
{
name = bottom;
position = "{408, 0}";
},
{
name = top;
position = "{287, 600}";
}
);
hints = (
{
horizontal = 1;
origin = "{0, 16}";
target = down;
type = TopGhost;
},
{
horizontal = 1;
origin = "{0, 0}";
target = up;
type = BottomGhost;
}
);
layerId = "D6DAFCCC-80B4-447A-AB8D-F3640E986932";
paths = (
{
closed = 1;
nodes = (
"227 -200 LINE",
"261 -145 OFFCURVE",
"306 -52 OFFCURVE",
"346 54 CURVE SMOOTH",
"552 594 LINE",
"552 600 LINE",
"452 600 LINE",
"340 300 LINE",
"327 265 OFFCURVE",
"314 231 OFFCURVE",
"301 176 CURVE",
"277 176 LINE",
"264 231 OFFCURVE",
"251 265 OFFCURVE",
"238 300 CURVE",
"126 600 LINE",
"18 600 LINE",
"18 594 LINE",
"234 31 LINE",
"199 -52 OFFCURVE",
"154 -135 OFFCURVE",
"115 -194 CURVE",
"115 -200 LINE"
);
}
);
width = 570;
},
{
anchors = (
{
name = bottom;
position = "{465, 0}";
},
{
name = top;
position = "{302, 600}";
}
);
layerId = "2C59C6D3-D4C2-4A05-8DF2-5125000072A2";
paths = (
{
closed = 1;
nodes = (
"280 -200 LINE",
"310 -149 OFFCURVE",
"358 -53 OFFCURVE",
"406 82 CURVE SMOOTH",
"590 594 LINE",
"590 600 LINE",
"438 600 LINE",
"376 420 LINE SMOOTH",
"356 362 OFFCURVE",
"336 304 OFFCURVE",
"316 204 CURVE",
"292 204 LINE",
"272 304 OFFCURVE",
"252 362 OFFCURVE",
"232 420 CURVE SMOOTH",
"170 600 LINE",
"10 600 LINE",
"10 594 LINE",
"216 0 LINE",
"186 -66 OFFCURVE",
"144 -143 OFFCURVE",
"111 -198 CURVE",
"111 -200 LINE"
);
}
);
width = 600;
}
);
leftKerningGroup = y;
rightKerningGroup = y;
unicode = 0079;
},
{
color = 6;
glyphname = z;
lastChange = "2022-02-18 13:14:15 +0000";
layers = (
{
anchors = (
{
name = bottom;
position = "{274, 0}";
},
{
name = top;
position = "{281, 600}";
}
);
hints = (
{
horizontal = 1;
origin = "{0, 17}";
target = "{0, 2}";
type = Stem;
},
{
horizontal = 1;
origin = "{0, 9}";
target = "{0, 10}";
type = Stem;
},
{
origin = "{0, 17}";
target = "{0, 2}";
type = Stem;
},
{
origin = "{0, 12}";
target = "{0, 7}";
type = Stem;
}
);
layerId = "D6DAFCCC-80B4-447A-AB8D-F3640E986932";
paths = (
{
closed = 1;
nodes = (
"502 0 LINE",
"502 84 LINE",
"174 84 LINE",
"174 108 LINE",
"199 133 OFFCURVE",
"219 155 OFFCURVE",
"238 180 CURVE SMOOTH",
"487 498 LINE",
"487 600 LINE",
"63 600 LINE",
"63 516 LINE",
"364 516 LINE",
"364 492 LINE",
"345 474 OFFCURVE",
"320 445 OFFCURVE",
"300 420 CURVE SMOOTH",
"48 102 LINE",
"48 0 LINE"
);
}
);
width = 550;
},
{
anchors = (
{
name = bottom;
position = "{284, 0}";
},
{
name = top;
position = "{292, 600}";
}
);
background = {
paths = (
{
closed = 1;
nodes = (
"536 0 LINE",
"536 114 LINE",
"244 114 LINE",
"244 135 LINE",
"523 501 LINE",
"523 600 LINE",
"60 600 LINE",
"60 486 LINE",
"309 486 LINE",
"309 465 LINE",
"32 99 LINE",
"32 0 LINE"
);
}
);
};
guideLines = (
{
angle = 180;
position = "{390, 214}";
},
{
position = "{185, 386}";
}
);
layerId = "2C59C6D3-D4C2-4A05-8DF2-5125000072A2";
paths = (
{
closed = 1;
nodes = (
"534 0 LINE",
"534 114 LINE",
"234 114 LINE",
"234 138 LINE",
"255 158 OFFCURVE",
"278 184 OFFCURVE",
"304 214 CURVE SMOOTH",
"522 471 LINE",
"522 600 LINE",
"48 600 LINE",
"48 486 LINE",
"324 486 LINE",
"324 462 LINE",
"303 442 OFFCURVE",
"280 415 OFFCURVE",
"255 386 CURVE SMOOTH",
"36 129 LINE",
"36 0 LINE"
);
}
);
width = 570;
}
);
leftKerningGroup = z;
rightKerningGroup = z;
unicode = 007A;
},
